<svg width="99" height="98" viewBox="0 0 99 98" fill="none" xmlns="http://www.w3.org/2000/svg">
<rect x="0.519531" width="98" height="98" rx="20" fill="#3BDFAD" fill-opacity="0.2"/>
<g clip-path="url(#clip0_301_624)">
<path d="M73.2853 15.6367C73.8955 16.354 74.2463 17.2625 74.5788 18.1333C74.6506 18.3167 74.6506 18.3167 74.7239 18.5037C74.8276 18.769 74.9308 19.0344 75.0334 19.3001C75.2002 19.7316 75.3684 20.1626 75.5371 20.5934C75.7175 21.0543 75.8978 21.5153 76.0777 21.9764C76.6921 23.5511 77.3168 25.1215 77.943 26.6915C78.2036 27.3449 78.4638 27.9983 78.7241 28.6518C78.8578 28.9874 78.9914 29.3229 79.1251 29.6585C79.616 30.8904 80.1062 32.1226 80.5962 33.3548C81.9266 36.6996 83.2597 40.0431 84.6058 43.3816C84.9816 44.3145 85.3563 45.2479 85.7308 46.1813C86.0812 47.0539 86.4336 47.9257 86.7875 48.7969C87.0042 49.3317 87.219 49.8673 87.4332 50.4032C87.5318 50.6487 87.6312 50.8938 87.7316 51.1386C88.7065 53.5194 88.7065 53.5194 88.5197 54.6367C88.1497 55.2854 87.7437 55.5298 87.0611 55.803C86.8035 55.908 86.8035 55.908 86.5406 56.015C86.3548 56.0881 86.1689 56.1611 85.9774 56.2363C85.7833 56.3142 85.5892 56.3923 85.3952 56.4706C84.9814 56.637 84.5671 56.8018 84.1522 56.9656C83.5835 57.19 83.016 57.4172 82.4488 57.6451C81.9886 57.8298 81.528 58.0136 81.0674 58.1971C80.8436 58.2862 80.6199 58.3755 80.3962 58.4649C80.0825 58.5901 79.7683 58.7142 79.454 58.838C79.1839 58.945 79.1839 58.945 78.9082 59.0542C78.465 59.207 78.465 59.207 78.0079 59.207C78.0085 59.3208 78.0091 59.4345 78.0097 59.5518C78.0231 62.3211 78.0332 65.0904 78.0395 67.8597C78.0427 69.1989 78.0469 70.5381 78.0539 71.8773C78.06 73.0446 78.0639 74.2119 78.0653 75.3793C78.0661 75.9973 78.0679 76.6153 78.0724 77.2334C78.0765 77.8153 78.0778 78.3972 78.0769 78.9792C78.077 79.1925 78.0782 79.4059 78.0806 79.6192C78.0995 81.4292 78.0995 81.4292 77.7561 82.0212C77.0647 82.6826 76.2889 82.7061 75.3662 82.7067C75.2015 82.7074 75.2015 82.7074 75.0335 82.7082C74.6655 82.7094 74.2975 82.7085 73.9295 82.7076C73.6631 82.7081 73.3966 82.7087 73.1301 82.7094C72.3978 82.711 71.6655 82.7106 70.9331 82.71C70.1433 82.7096 69.3536 82.711 68.5638 82.7121C67.0165 82.7141 65.4693 82.7143 63.922 82.714C62.6647 82.7137 61.4073 82.714 60.1499 82.7146C59.9711 82.7147 59.7922 82.7148 59.608 82.7149C59.2447 82.7151 58.8814 82.7153 58.5181 82.7154C55.11 82.7171 51.7019 82.7168 48.2937 82.7158C45.1746 82.7151 42.0555 82.7168 38.9363 82.7197C35.7348 82.7226 32.5333 82.7239 29.3318 82.7233C27.5339 82.723 25.736 82.7234 23.9381 82.7255C22.4076 82.7274 20.8771 82.7276 19.3467 82.7257C18.5656 82.7248 17.7846 82.7247 17.0035 82.7265C16.2887 82.7281 15.5739 82.7277 14.8591 82.7255C14.6003 82.7251 14.3416 82.7255 14.0828 82.7267C13.7312 82.7283 13.3798 82.727 13.0282 82.725C12.7352 82.725 12.7352 82.725 12.4363 82.725C11.7922 82.6576 11.3961 82.5121 10.8244 82.2109C10.5015 81.7267 10.4814 81.6092 10.48 81.055C10.479 80.9107 10.4779 80.7665 10.4768 80.6178C10.4772 80.4591 10.4775 80.3003 10.4779 80.1367C10.4771 79.9682 10.4763 79.7998 10.4755 79.6262C10.4732 79.0589 10.4731 78.4916 10.473 77.9242C10.4718 77.5186 10.4706 77.113 10.4691 76.7075C10.4657 75.6036 10.4645 74.4998 10.4637 73.3959C10.4632 72.7069 10.4622 72.0178 10.4611 71.3288C10.4581 69.4215 10.4556 67.5143 10.4552 65.607C10.4551 65.4849 10.4551 65.3629 10.4551 65.2371C10.455 64.9896 10.455 64.7421 10.4549 64.4946C10.4549 64.3717 10.4549 64.2489 10.4548 64.1223C10.4548 63.9993 10.4548 63.8763 10.4548 63.7495C10.4542 61.7557 10.4501 59.7618 10.4444 57.7679C10.4386 55.7216 10.4356 53.6752 10.4356 51.6288C10.4355 50.4796 10.4342 49.3304 10.4298 48.1811C10.4261 47.2026 10.425 46.2242 10.4273 45.2457C10.4284 44.7464 10.4278 44.2471 10.4248 43.7478C10.4217 43.2066 10.4232 42.6657 10.426 42.1246C10.423 41.8874 10.423 41.8874 10.4199 41.6454C10.4324 40.5797 10.4324 40.5797 10.8897 39.9976C11.0189 39.9017 11.1482 39.8058 11.2814 39.707C11.3696 39.637 11.4577 39.5671 11.5486 39.495C12.4141 38.9432 13.3411 38.5883 14.3003 38.2305C14.8284 38.0332 15.3548 37.8314 15.8815 37.6303C16.047 37.5673 16.047 37.5673 16.216 37.503C17.4154 37.0458 18.6071 36.5698 19.7984 36.0918C20.024 36.0013 20.2497 35.9109 20.4754 35.8205C20.9465 35.6317 21.4175 35.4427 21.8885 35.2537C23.2203 34.7192 24.5527 34.1859 25.885 33.6525C26.0262 33.596 26.1674 33.5394 26.3129 33.4811C29.7061 32.1226 33.1019 30.7706 36.498 29.4193C36.9908 29.2233 37.4836 29.0272 37.9764 28.8311C39.6583 28.1618 41.3403 27.4925 43.0223 26.8234C46.2255 25.549 49.4285 24.2742 52.6315 22.9992C53.3334 22.7198 54.0354 22.4404 54.7373 22.161C58.0826 20.8297 61.4276 19.4977 64.7695 18.1581C65.011 18.0613 65.2525 17.9645 65.4941 17.8677C66.4713 17.4761 67.4485 17.0842 68.4252 16.6913C68.8867 16.5057 69.3483 16.3206 69.8099 16.1353C69.9711 16.0703 70.1322 16.0053 70.2983 15.9383C70.517 15.8507 70.517 15.8507 70.7401 15.7613C70.865 15.711 70.9899 15.6607 71.1187 15.6089C71.8895 15.3252 72.5226 15.2532 73.2853 15.6367ZM70.5282 19.3709C70.3962 19.4224 70.2642 19.474 70.1282 19.5272C69.982 19.585 69.8357 19.6428 69.685 19.7023C69.5297 19.7633 69.3745 19.8242 69.2145 19.8869C68.686 20.0946 68.1577 20.3031 67.6295 20.5117C67.344 20.6241 67.0584 20.7366 66.7728 20.8491C63.1359 22.2817 59.5071 23.7343 55.8786 25.188C51.5307 26.9298 47.1798 28.6639 42.8279 30.3954C37.2488 32.6151 31.6714 34.8387 26.0968 37.0695C25.9461 37.1298 25.7954 37.1901 25.6402 37.2522C23.8499 37.9687 22.0597 38.6854 20.2697 39.4023C20.2697 39.4526 20.2697 39.5028 20.2697 39.5546C21.3861 39.5723 22.5024 39.5858 23.6189 39.5941C24.1374 39.5981 24.6558 39.6034 25.1743 39.6121C25.771 39.622 26.3677 39.6257 26.9645 39.629C27.1497 39.6329 27.3349 39.6369 27.5257 39.6409C28.5991 39.6413 29.0759 39.5654 29.8673 38.7929C30.3427 38.5479 30.8405 38.3661 31.3408 38.1782C31.4913 38.1199 31.6419 38.0616 31.797 38.0015C32.1303 37.8725 32.464 37.7444 32.7978 37.6169C33.6479 37.292 34.4959 36.9621 35.344 36.6323C35.5534 36.5509 35.7629 36.4695 35.9724 36.3882C38.9203 35.2443 41.8539 34.0644 44.7887 32.8876C46.1168 32.3552 47.4451 31.8235 48.7734 31.2918C48.9167 31.2344 49.06 31.177 49.2076 31.1179C51.8185 30.0726 54.4307 29.0306 57.0449 27.9934C57.3248 27.8823 57.6047 27.771 57.8846 27.6598C58.3914 27.4584 58.8983 27.2574 59.4053 27.0565C59.5503 26.9988 59.6953 26.9412 59.8447 26.8818C61.972 26.0406 61.972 26.0406 62.9259 26.3007C63.2782 26.6054 63.2782 26.6054 63.4591 26.8101C65.2445 28.7815 67.4642 30.0012 70.1497 30.1522C70.516 30.1697 70.8823 30.1857 71.2486 30.2016C71.4258 30.2101 71.4258 30.2101 71.6065 30.2188C71.7132 30.2234 71.8199 30.228 71.9298 30.2328C72.2189 30.2617 72.2189 30.2617 72.6759 30.414C72.8368 30.8327 72.8368 30.8327 72.9806 31.3281C73.0846 31.5845 73.1915 31.8397 73.3008 32.094C73.609 32.8246 73.9005 33.56 74.1849 34.3002C74.4036 34.8686 74.6256 35.4357 74.8477 36.0027C74.9621 36.2969 75.0752 36.5917 75.1871 36.8869C75.3506 37.3176 75.5189 37.7462 75.6883 38.1746C75.737 38.3065 75.7858 38.4383 75.836 38.5742C76.1058 39.2425 76.207 39.4933 76.877 39.8218C77.1352 39.9158 77.1352 39.9158 77.3986 40.0117C77.9776 40.6894 77.9228 41.3983 77.9215 42.2443C77.923 42.3916 77.9246 42.5388 77.9262 42.6904C77.9308 43.176 77.9322 43.6614 77.9336 44.147C77.9361 44.484 77.9389 44.8211 77.9418 45.1581C77.9491 46.0445 77.9536 46.9308 77.9576 47.8171C77.9621 48.7219 77.9692 49.6267 77.9761 50.5314C77.9892 52.3061 77.9995 54.0807 78.0079 55.8554C78.6329 55.6166 79.2577 55.3772 79.8825 55.1377C80.1446 55.0376 80.1446 55.0376 80.4119 54.9354C81.9101 54.3607 83.3901 53.7487 84.8634 53.1132C84.573 52.2157 84.257 51.3339 83.9077 50.4578C83.8596 50.3364 83.8116 50.215 83.7621 50.0899C83.6027 49.6875 83.4428 49.2854 83.2829 48.8833C83.1679 48.5935 83.053 48.3037 82.9381 48.0139C82.5648 47.0728 82.1907 46.1321 81.8165 45.1913C81.6897 44.8722 81.5628 44.5531 81.4359 44.234C80.5678 42.051 79.6984 39.8685 78.8288 37.6861C78.1811 36.0604 77.5337 34.4345 76.8862 32.8087C76.8158 32.6319 76.7454 32.4552 76.6729 32.2731C75.4305 29.1533 74.1901 26.0326 72.952 22.9111C72.9119 22.81 72.8718 22.7088 72.8305 22.6047C72.3725 21.45 71.9147 20.2953 71.4572 19.1406C71.0938 19.1406 70.8669 19.2378 70.5282 19.3709ZM60.5881 29.8866C60.4565 29.9387 60.325 29.9907 60.1894 30.0443C59.9745 30.1312 59.9745 30.1312 59.7552 30.2198C59.6032 30.2802 59.4512 30.3407 59.2946 30.403C58.789 30.6044 58.284 30.8074 57.779 31.0103C57.4238 31.1521 57.0685 31.2939 56.7132 31.4356C55.8684 31.7727 55.024 32.1108 54.1798 32.4493C53.1484 32.8628 52.1164 33.2749 51.0845 33.687C49.1441 34.4622 47.2042 35.2388 45.2646 36.0158C44.1901 36.4462 43.1156 36.8763 42.0409 37.3064C41.7195 37.435 41.3981 37.5637 41.0768 37.6925C39.6292 38.2721 38.1786 38.8435 36.7228 39.4023C36.7228 39.4526 36.7228 39.5028 36.7228 39.5546C48.6376 39.5546 60.5524 39.5546 72.8283 39.5546C72.5508 38.6297 72.2876 37.7742 71.932 36.888C71.8925 36.7891 71.8529 36.6902 71.8121 36.5882C71.7298 36.3827 71.6471 36.1773 71.5641 35.972C71.4366 35.6565 71.3102 35.3405 71.184 35.0245C70.8872 34.1008 70.8872 34.1008 70.3908 33.3085C70.0746 33.2579 69.7582 33.2083 69.4411 33.1638C66.5318 32.755 63.9774 31.7702 61.8595 29.6523C61.3071 29.6523 61.0783 29.6906 60.5881 29.8866ZM13.7189 42.7538C13.7189 54.8697 13.7189 66.9856 13.7189 79.4687C33.8785 79.4687 54.0382 79.4687 74.8087 79.4687C74.8087 67.3528 74.8087 55.2369 74.8087 42.7538C54.6491 42.7538 34.4894 42.7538 13.7189 42.7538Z" fill="#3BDFAD"/>
<path d="M27.2795 45.6281C27.4307 45.6277 27.5819 45.6274 27.7377 45.627C28.2431 45.6261 28.7486 45.6262 29.254 45.6263C29.6169 45.6259 29.9798 45.6253 30.3427 45.6248C31.2253 45.6236 32.108 45.6231 32.9906 45.623C33.7082 45.6229 34.4258 45.6226 35.1434 45.6221C37.1795 45.6208 39.2156 45.6201 41.2517 45.6202C41.3613 45.6202 41.471 45.6202 41.584 45.6202C41.6937 45.6202 41.8035 45.6202 41.9167 45.6202C43.6964 45.6203 45.4761 45.6188 47.2559 45.6167C49.0848 45.6145 50.9138 45.6134 52.7428 45.6136C53.769 45.6136 54.7952 45.6132 55.8214 45.6116C56.7864 45.6101 57.7513 45.6101 58.7163 45.6112C59.0702 45.6113 59.4242 45.611 59.7782 45.6101C60.2617 45.6089 60.7452 45.6096 61.2288 45.6108C61.3685 45.61 61.5083 45.6092 61.6523 45.6084C63.6462 45.6191 63.6462 45.6191 64.3523 46.3007C64.6005 46.7129 64.7727 47.1003 64.9349 47.5527C66.0183 50.2348 67.8445 51.6169 70.3907 52.8086C71.4736 53.3289 71.4736 53.3289 71.7618 53.875C71.9002 54.6429 71.9368 55.3953 71.9363 56.1735C71.9371 56.3509 71.9371 56.3509 71.9378 56.532C71.9393 56.9202 71.9396 57.3084 71.9398 57.6967C71.9402 57.9685 71.9408 58.2404 71.9413 58.5122C71.9422 59.0811 71.9425 59.6499 71.9424 60.2187C71.9424 60.9449 71.9445 61.671 71.9471 62.3971C71.9488 62.9584 71.9491 63.5196 71.949 64.0808C71.9492 64.3484 71.9498 64.616 71.951 64.8836C71.9646 68.2746 71.9646 68.2746 71.2631 69.0207C70.8453 69.2631 70.4436 69.4462 69.9908 69.614C67.0481 70.8056 65.7713 72.7793 64.5291 75.553C64.2822 75.9911 64.1099 76.1599 63.6876 76.4219C63.3627 76.4795 63.3627 76.4795 63.0057 76.4802C62.8691 76.4816 62.7325 76.483 62.5917 76.4844C62.4423 76.4836 62.2928 76.4828 62.1389 76.482C61.9796 76.4829 61.8204 76.4838 61.6563 76.4848C61.121 76.4873 60.5857 76.4866 60.0504 76.4858C59.6673 76.487 59.2843 76.4883 58.9012 76.4898C57.9676 76.4928 57.0341 76.4937 56.1005 76.4934C55.3418 76.4932 54.5831 76.4938 53.8243 76.4949C53.6059 76.4952 53.3874 76.4955 53.169 76.4959C53.0059 76.4961 53.0059 76.4961 52.8395 76.4963C50.7827 76.4992 48.7259 76.4991 46.6691 76.498C44.787 76.4972 42.905 76.5003 41.023 76.5054C39.0909 76.5105 37.1588 76.5128 35.2268 76.5121C34.1419 76.5118 33.057 76.5126 31.9722 76.5164C30.9522 76.5199 29.9323 76.5195 28.9123 76.5164C28.5375 76.5159 28.1626 76.5167 27.7878 76.5188C27.277 76.5216 26.7665 76.5197 26.2557 76.5166C26.1066 76.5185 25.9575 76.5204 25.8038 76.5223C25.0964 76.513 24.7905 76.5029 24.2191 76.053C23.98 75.7327 23.7992 75.4771 23.6611 75.1061C23.6217 75.0064 23.5824 74.9066 23.5418 74.8038C23.502 74.6999 23.4622 74.596 23.4212 74.489C22.9764 73.4093 22.4554 72.5491 21.6407 71.6992C21.5394 71.5918 21.4381 71.4844 21.3337 71.3737C20.4005 70.4665 19.3032 69.9513 18.1368 69.4141C16.9561 68.8618 16.9561 68.8618 16.6134 68.3477C16.5821 67.887 16.5686 67.4402 16.5691 66.9793C16.5681 66.8393 16.5671 66.6993 16.566 66.5551C16.5631 66.0913 16.5625 65.6276 16.5622 65.1639C16.5612 64.8419 16.5602 64.5199 16.5591 64.1979C16.5573 63.5225 16.5567 62.8471 16.5569 62.1716C16.557 61.306 16.5528 60.4405 16.5475 59.5749C16.5442 58.9097 16.5435 58.2445 16.5437 57.5792C16.5433 57.2601 16.542 56.941 16.5396 56.6218C16.5367 56.1754 16.5375 55.7292 16.5394 55.2828C16.5377 55.1509 16.5359 55.019 16.5342 54.8832C16.5405 54.2745 16.5659 53.9528 16.8893 53.4227C17.3319 53.012 17.8195 52.8199 18.3749 52.6086C21.1199 51.4823 22.5585 49.692 23.7164 47.0195C23.7718 46.8844 23.8272 46.7493 23.8842 46.6101C24.1121 46.1963 24.2728 46.0273 24.6876 45.8008C25.5535 45.6373 26.4002 45.6266 27.2795 45.6281ZM26.5157 48.8477C26.1135 49.6018 25.7114 50.3559 25.297 51.1328C23.9207 53.0506 22.0975 54.7891 19.8126 55.5508C19.8126 59.1705 19.8126 62.7902 19.8126 66.5195C20.8683 67.1228 20.8683 67.1228 21.9454 67.7383C22.4313 68.0853 22.8719 68.4144 23.3165 68.8047C23.4304 68.9043 23.5443 69.0038 23.6617 69.1064C24.6234 70.0043 25.2616 71.0214 25.9064 72.1562C26.208 72.6841 26.208 72.6841 26.5157 73.2227C38.2294 73.2227 49.9431 73.2227 62.0118 73.2227C62.3637 72.5188 62.7156 71.815 63.0782 71.0898C63.4755 70.5498 63.8531 70.0602 64.297 69.5664C64.4154 69.4268 64.4154 69.4268 64.5362 69.2843C65.6243 68.0869 67.1755 67.3122 68.5626 66.5195C68.5626 62.8998 68.5626 59.2802 68.5626 55.5508C67.9593 55.2491 67.356 54.9475 66.7345 54.6367C64.4702 53.1469 63.0578 51.2443 61.8595 48.8477C50.196 48.8477 38.5326 48.8477 26.5157 48.8477Z" fill="#3BDFAD"/>
<path d="M49.5829 53.409C51.7541 55.1373 53.0976 57.203 53.4808 59.9687C53.6975 62.4496 53.152 64.902 51.5688 66.8706C50.2729 68.3838 48.8088 69.3636 46.93 70.0234C46.823 70.0611 46.716 70.0988 46.6057 70.1376C44.2833 70.792 41.6872 70.3254 39.6003 69.2206C37.3732 67.8855 35.9504 65.9696 35.1704 63.5095C34.6004 61.2239 34.855 58.712 35.9613 56.6171C37.3873 54.3589 39.3256 52.7002 41.933 51.9903C44.6151 51.5465 47.3136 51.8245 49.5829 53.409ZM39.3414 57.4169C38.3162 58.8179 37.9399 60.4701 38.1893 62.1776C38.5525 63.8921 39.4316 65.2033 40.8743 66.1767C42.3466 67.0608 43.7973 67.3611 45.503 67.0574C47.0981 66.6374 48.4335 65.7523 49.3675 64.3866C50.2598 62.642 50.5522 61.0624 49.9816 59.1712C49.3083 57.3654 48.0822 56.2025 46.3605 55.3847C43.7846 54.3481 41.0569 55.3808 39.3414 57.4169Z" fill="#3BDFAD"/>
<path d="M62.3739 58.9975C62.9177 59.4896 63.3202 59.8849 63.4414 60.6334C63.4835 61.5566 63.3431 62.1333 62.7738 62.8632C62.2605 63.3011 61.7632 63.5083 61.0885 63.5393C60.2349 63.4444 59.707 63.2028 59.1461 62.5586C58.6538 61.8834 58.5929 61.4027 58.6605 60.5781C58.8675 59.9098 59.156 59.3731 59.7459 58.9785C60.6134 58.5606 61.5178 58.5854 62.3739 58.9975ZM60.5172 60.6162C60.3019 60.8728 60.3019 60.8728 60.3648 61.197C60.4787 61.5207 60.4787 61.5207 60.7933 61.7968C61.1898 61.748 61.1898 61.748 61.555 61.6445C61.6583 61.2026 61.6583 61.2026 61.7073 60.7304C61.6068 60.6299 61.5063 60.5293 61.4027 60.4257C60.821 60.3681 60.821 60.3681 60.5172 60.6162Z" fill="#3BDFAD"/>
<path d="M28.544 58.9308C29.1431 59.3349 29.4865 59.7397 29.7152 60.4257C29.8114 61.2399 29.7767 61.9369 29.3183 62.6335C28.778 63.2177 28.1253 63.4386 27.3539 63.5488C26.5824 63.4386 25.9297 63.2177 25.3895 62.6335C24.9335 61.9407 24.8535 61.2354 24.9925 60.4257C25.203 59.7919 25.5313 59.3579 26.0875 58.988C26.9036 58.5817 27.7022 58.629 28.544 58.9308ZM26.8492 60.6161C26.6339 60.8728 26.6339 60.8728 26.6969 61.197C26.8107 61.5206 26.8107 61.5206 27.1253 61.7968C27.5219 61.748 27.5219 61.748 27.8871 61.6445C27.9904 61.2026 27.9904 61.2026 28.0394 60.7304C27.9389 60.6299 27.8383 60.5293 27.7347 60.4257C27.153 60.3681 27.153 60.3681 26.8492 60.6161Z" fill="#3BDFAD"/>
</g>
<defs>
<clipPath id="clip0_301_624">
<rect width="78" height="78" fill="white" transform="translate(10.5195 10)"/>
</clipPath>
</defs>
</svg>
