<svg width="99" height="98" viewBox="0 0 99 98" fill="none" xmlns="http://www.w3.org/2000/svg">
<rect x="0.240234" width="98" height="98" rx="20" fill="#B170FF" fill-opacity="0.1"/>
<g clip-path="url(#clip0_301_612)">
<path d="M31.9041 44.657C32.0674 44.656 32.2308 44.6551 32.3991 44.6541C32.942 44.6517 33.4848 44.6536 34.0277 44.6555C34.4187 44.6547 34.8097 44.6536 35.2007 44.6522C36.1494 44.6495 37.0982 44.6501 38.0469 44.6519C38.8178 44.6533 39.5887 44.6535 40.3596 44.6528C40.4695 44.6527 40.5795 44.6526 40.6928 44.6525C40.9162 44.6523 41.1396 44.6521 41.3629 44.6519C43.4537 44.6502 45.5444 44.6522 47.6351 44.6554C49.4291 44.6582 51.223 44.6577 53.0169 44.6549C55.1021 44.6516 57.1873 44.6503 59.2725 44.6522C59.4947 44.6524 59.7169 44.6526 59.9391 44.6528C60.0484 44.6529 60.1578 44.653 60.2704 44.6531C61.0409 44.6536 61.8114 44.6527 62.5819 44.6513C63.6179 44.6494 64.6539 44.6507 65.6899 44.6543C66.0707 44.6551 66.4514 44.6548 66.8322 44.6535C67.3506 44.6518 67.8689 44.6539 68.3874 44.657C68.615 44.6549 68.615 44.6549 68.8473 44.6528C69.8632 44.6645 69.8632 44.6645 70.3567 45.0248C70.5849 45.3689 70.6508 45.5437 70.6444 45.9531C70.6468 46.1039 70.6468 46.1039 70.6492 46.2578C70.5682 46.5625 70.5682 46.5625 69.9589 47.1718C69.1545 47.1718 68.3501 47.1718 67.5214 47.1718C67.5214 49.585 67.5214 51.9981 67.5214 54.4843C68.1749 54.4843 68.8285 54.4843 69.5018 54.4843C71.3033 54.9739 72.6225 55.9394 73.6151 57.5312C74.4338 59.0112 74.4517 60.8185 74.1239 62.4496C73.6175 64.0085 72.5484 65.1955 71.1776 66.0625C69.9924 66.6315 68.9107 66.7597 67.6098 66.7492C67.4265 66.7502 67.2433 66.7511 67.0544 66.7521C66.5504 66.7541 66.0465 66.7534 65.5425 66.7515C64.9972 66.7501 64.452 66.7522 63.9067 66.7539C62.8406 66.7566 61.7746 66.756 60.7085 66.7543C59.8424 66.7529 58.9762 66.7527 58.11 66.7534C57.9248 66.7535 57.9248 66.7535 57.7358 66.7537C57.4849 66.7539 57.2341 66.7541 56.9832 66.7543C54.6344 66.756 52.2856 66.754 49.9369 66.7507C47.9212 66.748 45.9056 66.7485 43.8899 66.7513C41.5476 66.7545 39.2053 66.7558 36.863 66.754C36.6134 66.7538 36.3638 66.7536 36.1143 66.7534C35.9915 66.7533 35.8687 66.7532 35.7421 66.7531C34.8764 66.7526 34.0106 66.7535 33.1449 66.7549C32.0908 66.7566 31.0367 66.7561 29.9826 66.7529C29.4447 66.7513 28.9069 66.7507 28.369 66.7527C27.7865 66.7548 27.2042 66.7523 26.6217 66.7492C26.3656 66.7513 26.3656 66.7513 26.1042 66.7533C25.8707 66.7509 25.8707 66.7509 25.6325 66.7485C25.4981 66.7484 25.3636 66.7483 25.2251 66.7482C24.7465 66.6467 24.5617 66.4352 24.2557 66.0625C24.1748 65.7578 24.1748 65.7578 24.1796 65.4531C24.1772 65.3023 24.1772 65.3023 24.1748 65.1484C24.2557 64.8437 24.2557 64.8437 24.8651 64.2343C25.6695 64.2343 26.4739 64.2343 27.3026 64.2343C27.3026 61.8212 27.3026 59.4081 27.3026 56.9218C26.4982 56.9218 25.6939 56.9218 24.8651 56.9218C24.2557 56.3125 24.2557 56.3125 24.1748 56.0078C24.1828 55.4983 24.2113 55.1725 24.4652 54.7224C25.0718 54.3613 25.6935 54.3585 26.3885 54.332C26.3353 54.2291 26.2821 54.1262 26.2273 54.0202C26.158 53.8843 26.0886 53.7484 26.0172 53.6084C25.9483 53.474 25.8794 53.3397 25.8083 53.2013C25.1961 51.8764 25.2563 49.9059 25.7125 48.5334C26.3495 47.0791 27.4532 45.8477 28.8986 45.1657C29.9255 44.7742 30.8098 44.647 31.9041 44.657ZM28.9784 48.2382C28.1116 49.3395 27.9378 50.3576 28.0643 51.7421C28.3408 52.6617 28.8996 53.3942 29.7229 53.8988C30.8311 54.4898 31.8909 54.5061 33.1238 54.4992C33.2547 54.4991 33.3855 54.4989 33.5203 54.4987C34.0059 54.498 34.4914 54.4958 34.9769 54.4939C36.6077 54.4891 36.6077 54.4891 38.2714 54.4843C38.2714 52.0712 38.2714 49.6581 38.2714 47.1718C37.1936 47.1655 36.1159 47.1593 35.0055 47.1528C34.668 47.15 34.3306 47.1472 33.9829 47.1444C33.7114 47.1435 33.4399 47.1427 33.1684 47.1421C33.0307 47.1405 32.893 47.139 32.7511 47.1374C31.3682 47.137 30.0534 47.3014 28.9784 48.2382ZM40.7089 47.1718C40.7089 47.9762 40.7089 48.7806 40.7089 49.6093C48.7526 49.6093 56.7964 49.6093 65.0839 49.6093C65.0839 48.805 65.0839 48.0006 65.0839 47.1718C57.0401 47.1718 48.9964 47.1718 40.7089 47.1718ZM40.7089 52.0468C40.7089 52.8512 40.7089 53.6556 40.7089 54.4843C48.7526 54.4843 56.7964 54.4843 65.0839 54.4843C65.0839 53.68 65.0839 52.8756 65.0839 52.0468C57.0401 52.0468 48.9964 52.0468 40.7089 52.0468ZM29.7401 56.9218C29.7401 57.7262 29.7401 58.5306 29.7401 59.3593C39.3926 59.3593 49.0451 59.3593 58.9901 59.3593C58.9901 58.555 58.9901 57.7506 58.9901 56.9218C49.3376 56.9218 39.6851 56.9218 29.7401 56.9218ZM61.4276 56.9218C61.4276 59.335 61.4276 61.7481 61.4276 64.2343C63.0442 64.2438 63.0442 64.2438 64.6935 64.2534C65.0309 64.2562 65.3684 64.2589 65.7161 64.2618C65.9876 64.2627 66.2591 64.2634 66.5305 64.2641C66.7371 64.2664 66.7371 64.2664 66.9479 64.2688C68.2336 64.2692 69.393 64.1613 70.4159 63.3203C71.2325 62.4978 71.6762 61.7967 71.6918 60.6066C71.6716 59.5109 71.3688 58.8538 70.673 58.0263C69.3839 56.9471 68.1932 56.8978 66.5603 56.907C66.3642 56.9072 66.3642 56.9072 66.1642 56.9074C65.6803 56.9082 65.1964 56.9103 64.7125 56.9123C63.6285 56.9155 62.5445 56.9186 61.4276 56.9218ZM29.7401 61.7968C29.7401 62.6012 29.7401 63.4056 29.7401 64.2343C39.3926 64.2343 49.0451 64.2343 58.9901 64.2343C58.9901 63.43 58.9901 62.6256 58.9901 61.7968C49.3376 61.7968 39.6851 61.7968 29.7401 61.7968Z" fill="#B170FF"/>
<path d="M20.1714 28.856C20.3566 28.8559 20.3566 28.8559 20.5455 28.8559C20.9518 28.8561 21.3582 28.8585 21.7646 28.8608C22.047 28.8614 22.3294 28.8619 22.6118 28.8622C23.3539 28.8633 24.0959 28.8663 24.838 28.8697C25.5957 28.8728 26.3535 28.8742 27.1112 28.8757C28.597 28.879 30.0829 28.8843 31.5687 28.8906C31.5687 29.695 31.5687 30.4994 31.5687 31.3281C31.222 31.3311 30.8752 31.3341 30.518 31.3373C29.3718 31.3475 28.2256 31.3593 27.0794 31.3719C26.3845 31.3795 25.6897 31.3866 24.9948 31.3924C24.3241 31.398 23.6534 31.4051 22.9827 31.4131C22.7269 31.4159 22.4711 31.4182 22.2154 31.42C21.8568 31.4226 21.4984 31.427 21.1399 31.4319C20.9816 31.4324 20.9816 31.4324 20.8201 31.4329C20.2287 31.4431 19.7414 31.4775 19.2289 31.7851C18.8269 32.4954 18.8801 33.2344 18.8818 34.0265C18.8809 34.1765 18.88 34.3264 18.8791 34.4809C18.8765 34.9838 18.8761 35.4867 18.8756 35.9897C18.8742 36.35 18.8727 36.7103 18.871 37.0706C18.8668 38.0495 18.8645 39.0283 18.8625 40.0071C18.8605 40.9262 18.8569 41.8454 18.8534 42.7645C18.8464 44.5848 18.8409 46.4052 18.8361 48.2255C18.8315 49.9937 18.8263 51.7618 18.8202 53.53C18.8196 53.6935 18.8196 53.6935 18.8191 53.8604C18.8172 54.4072 18.8153 54.9541 18.8134 55.501C18.7976 60.0371 18.784 64.5732 18.7719 69.1094C18.9118 69.1091 19.0518 69.1088 19.196 69.1085C27.4904 69.0914 35.7849 69.0784 44.0793 69.0705C45.0751 69.0695 46.0709 69.0685 47.0667 69.0675C47.364 69.0672 47.364 69.0672 47.6674 69.0669C50.8779 69.0636 54.0884 69.0576 57.2989 69.0506C60.5929 69.0435 63.8868 69.0392 67.1807 69.0377C69.2135 69.0366 71.2462 69.0333 73.279 69.0272C74.6727 69.0231 76.0663 69.0219 77.46 69.0229C78.2643 69.0234 79.0685 69.0226 79.8727 69.0186C80.6093 69.0148 81.3459 69.0147 82.0825 69.0173C82.3486 69.0176 82.6148 69.0166 82.881 69.0142C84.4587 69.0009 85.8259 69.0376 87.0413 70.1742C88.0327 71.207 88.3269 72.2501 88.3138 73.6692C88.2682 74.9676 87.8256 75.8383 86.8885 76.717C85.9915 77.4809 85.0996 77.7091 83.9438 77.699C83.8216 77.6997 83.6994 77.7005 83.5735 77.7013C83.1643 77.7032 82.7551 77.702 82.3459 77.7007C82.0495 77.7014 81.753 77.7024 81.4566 77.7035C80.6421 77.706 79.8276 77.7056 79.0131 77.7048C78.1347 77.7044 77.2562 77.7066 76.3777 77.7085C74.6567 77.7117 72.9357 77.7124 71.2147 77.7121C69.8159 77.7119 68.4172 77.7125 67.0184 77.7136C66.6157 77.7139 66.2129 77.7143 65.8102 77.7146C65.6098 77.7147 65.4093 77.7149 65.2028 77.7151C62.4881 77.7172 59.7735 77.7183 57.0588 77.7176C56.9527 77.7176 56.8465 77.7176 56.7372 77.7175C56.1992 77.7174 55.6611 77.7173 55.1231 77.7171C55.0163 77.7171 54.9094 77.717 54.7993 77.717C54.5833 77.717 54.3672 77.7169 54.1511 77.7168C50.7892 77.7159 47.4274 77.7183 44.0655 77.7232C40.2879 77.7287 36.5102 77.7316 32.7326 77.7309C30.7326 77.7305 28.7327 77.7313 26.7327 77.7351C25.03 77.7383 23.3274 77.7389 21.6247 77.736C20.7559 77.7346 19.8872 77.7344 19.0185 77.7376C18.223 77.7404 17.4276 77.7397 16.6321 77.7363C16.3445 77.7356 16.057 77.7363 15.7694 77.7383C12.7028 77.7589 12.7028 77.7589 11.4407 76.5758C10.4478 75.5443 10.1543 74.4994 10.1674 73.0807C10.213 71.7824 10.6556 70.9117 11.5927 70.0329C12.6221 69.1564 13.575 69.0442 14.8776 69.0808C15.0181 69.0829 15.1586 69.0849 15.3034 69.087C15.6471 69.0924 15.9907 69.0999 16.3344 69.1094C16.3338 68.9165 16.3332 68.7237 16.3327 68.5251C16.3194 63.9469 16.3094 59.3687 16.3032 54.7905C16.3025 54.2268 16.3017 53.6632 16.3009 53.0995C16.3007 52.9873 16.3006 52.8751 16.3004 52.7595C16.2977 50.9432 16.2929 49.1269 16.2873 47.3107C16.2816 45.4466 16.2783 43.5826 16.277 41.7185C16.2762 40.5686 16.2735 39.4186 16.2686 38.2687C16.265 37.3865 16.2646 36.5043 16.2654 35.6221C16.2653 35.2605 16.264 34.8989 16.2617 34.5373C16.2587 34.0433 16.2594 33.5495 16.2611 33.0555C16.2593 32.9127 16.2575 32.7698 16.2557 32.6226C16.2655 31.5429 16.5258 30.7386 17.2431 29.9201C17.3422 29.838 17.4414 29.7559 17.5436 29.6714C17.6424 29.5869 17.7411 29.5025 17.8429 29.4155C18.5929 28.8987 19.2806 28.8476 20.1714 28.856ZM13.0685 72.3371C12.7585 72.895 12.6919 73.3686 12.8304 73.9844C13.2968 74.7251 13.6724 74.9885 14.5062 75.2031C14.91 75.2309 15.2973 75.2444 15.7006 75.2419C15.8187 75.2424 15.9367 75.2428 16.0583 75.2434C16.4543 75.2446 16.8503 75.2437 17.2463 75.2428C17.5328 75.2433 17.8194 75.2439 18.106 75.2446C18.8939 75.2462 19.6818 75.2458 20.4698 75.2452C21.3194 75.2448 22.169 75.2462 23.0185 75.2473C24.6831 75.2493 26.3477 75.2495 28.0122 75.2492C29.3649 75.2489 30.7175 75.2492 32.0702 75.2498C32.2626 75.2499 32.4549 75.25 32.6531 75.2501C33.0439 75.2503 33.4347 75.2505 33.8254 75.2506C36.4499 75.2518 39.0744 75.2524 41.6988 75.2518C41.8015 75.2518 41.9041 75.2518 42.0099 75.2517C42.5301 75.2516 43.0503 75.2515 43.5705 75.2514C43.6738 75.2513 43.7771 75.2513 43.8835 75.2513C44.0925 75.2512 44.3014 75.2512 44.5103 75.2511C47.7617 75.2503 51.0131 75.2515 54.2645 75.2543C57.9171 75.2575 61.5698 75.2591 65.2224 75.2585C67.1566 75.2582 69.0907 75.2586 71.0248 75.2607C72.6713 75.2626 74.3177 75.2628 75.9641 75.2609C76.8044 75.26 77.6447 75.2599 78.485 75.2617C79.2539 75.2633 80.0229 75.2629 80.7918 75.2607C81.0703 75.2603 81.3487 75.2607 81.6271 75.2619C82.0053 75.2634 82.3833 75.2622 82.7614 75.2602C82.8698 75.2613 82.9782 75.2624 83.0898 75.2636C84.0143 75.2535 84.7176 75.0366 85.4127 74.4128C85.7227 73.8549 85.7893 73.3813 85.6508 72.7656C85.1844 72.0249 84.8088 71.7614 83.975 71.5469C83.5712 71.5191 83.1839 71.5056 82.7806 71.5081C82.6625 71.5076 82.5445 71.5071 82.4229 71.5066C82.0269 71.5053 81.6309 71.5062 81.2349 71.5071C80.9484 71.5067 80.6618 71.5061 80.3752 71.5054C79.5873 71.5038 78.7994 71.5041 78.0114 71.5048C77.1618 71.5052 76.3123 71.5038 75.4627 71.5027C73.7981 71.5007 72.1335 71.5004 70.469 71.5008C69.1163 71.5011 67.7637 71.5008 66.411 71.5001C66.2186 71.5001 66.0263 71.5 65.8281 71.4999C65.4373 71.4997 65.0465 71.4995 64.6558 71.4993C62.0313 71.4981 59.4068 71.4975 56.7824 71.4981C56.6797 71.4982 56.5771 71.4982 56.4713 71.4982C55.9511 71.4983 55.4309 71.4985 54.9107 71.4986C54.8074 71.4986 54.7041 71.4987 54.5977 71.4987C54.3887 71.4987 54.1798 71.4988 53.9709 71.4988C50.7195 71.4997 47.4681 71.4985 44.2167 71.4956C40.5641 71.4925 36.9114 71.4909 33.2588 71.4915C31.3246 71.4918 29.3905 71.4914 27.4564 71.4892C25.8099 71.4874 24.1635 71.4872 22.5171 71.489C21.6768 71.4899 20.8365 71.4901 19.9962 71.4883C19.2273 71.4866 18.4583 71.4871 17.6894 71.4892C17.4109 71.4896 17.1325 71.4893 16.8541 71.488C16.4759 71.4865 16.0979 71.4878 15.7198 71.4898C15.6114 71.4887 15.503 71.4875 15.3914 71.4864C14.4669 71.4964 13.7636 71.7133 13.0685 72.3371Z" fill="#B170FF"/>
<path d="M52.5814 22.5555C52.708 22.5946 52.8346 22.6338 52.9649 22.6741C53.3788 22.8027 53.7917 22.9343 54.2046 23.0659C54.4952 23.1569 54.7858 23.2476 55.0764 23.3382C55.8392 23.5765 56.6011 23.8174 57.3629 24.0588C58.1338 24.3026 58.9055 24.5437 59.6771 24.7852C61.17 25.253 62.6624 25.7218 64.1524 26.1988C64.4499 26.293 64.7484 26.3838 65.047 26.4744C65.2909 26.5501 65.2909 26.5501 65.5397 26.6274C65.7427 26.6887 65.7427 26.6887 65.9498 26.7512C66.3709 26.9409 66.6132 27.1704 66.9122 27.5196C66.9932 27.8243 66.9932 27.8243 66.9884 28.129C66.9908 28.2798 66.9908 28.2798 66.9932 28.4337C66.8737 28.8834 66.6589 29.0484 66.3029 29.3477C65.9177 29.5111 65.5512 29.6482 65.1543 29.7738C65.0443 29.8102 64.9343 29.8465 64.821 29.8839C64.5895 29.96 64.3577 30.0353 64.1257 30.1097C63.7697 30.2238 63.4146 30.3405 63.0596 30.4576C62.8343 30.5313 62.609 30.6049 62.3836 30.6784C62.2771 30.7131 62.1706 30.7479 62.0609 30.7836C61.3116 31.0235 61.3116 31.0235 60.9708 31.0235C60.9724 31.1842 60.9724 31.1842 60.9739 31.3481C60.9831 32.3589 60.99 33.3698 60.9945 34.3807C60.9969 34.9003 61.0001 35.42 61.0053 35.9396C61.0112 36.5375 61.0134 37.1353 61.0155 37.7332C61.0178 37.9192 61.0202 38.1052 61.0226 38.2969C61.0227 38.5576 61.0227 38.5576 61.0227 38.8235C61.0242 39.0524 61.0242 39.0524 61.0258 39.2858C60.9606 39.7857 60.8123 40.0653 60.5138 40.4688C57.6967 42.2718 53.7293 42.3867 50.4972 42.3636C50.2888 42.3629 50.2888 42.3629 50.0763 42.3622C42.3399 42.3242 42.3399 42.3242 40.0997 40.1641C39.9409 39.6876 39.929 39.358 39.9301 38.8581C39.9301 38.6843 39.9301 38.5105 39.9301 38.3314C39.9309 38.1438 39.9317 37.9562 39.9325 37.7629C39.9327 37.5708 39.9329 37.3788 39.9332 37.1808C39.9339 36.6707 39.9352 36.1605 39.9369 35.6503C39.9385 35.1295 39.9392 34.6087 39.94 34.0879C39.9416 33.0665 39.9442 32.045 39.9474 31.0235C39.833 30.9926 39.7185 30.9617 39.6006 30.9298C39.4502 30.889 39.2997 30.8482 39.1447 30.8061C38.9212 30.7456 38.9212 30.7456 38.6932 30.6838C37.9326 30.4721 37.1905 30.212 36.4435 29.9571C36.4435 31.0631 36.4435 32.1691 36.4435 33.3087C36.8959 33.4595 36.8959 33.4595 37.3575 33.6134C38.0782 34.1437 38.7042 34.8526 38.881 35.7462C38.9957 36.9481 39.0589 38.1175 38.2716 39.0977C37.5397 39.8663 36.8759 40.4088 35.793 40.52C34.4957 40.5343 33.5983 40.4868 32.6402 39.5744C31.668 38.5226 31.4953 37.6959 31.5221 36.271C31.6166 35.2025 32.0222 34.6347 32.8063 33.9276C33.1014 33.6832 33.3588 33.4799 33.7013 33.3087C33.7035 33.1574 33.7057 33.006 33.708 32.8501C33.7169 32.2848 33.7287 31.7195 33.7413 31.1543C33.7463 30.9103 33.7506 30.6664 33.7541 30.4224C33.7592 30.0703 33.7672 29.7183 33.7757 29.3662C33.7771 29.2045 33.7771 29.2045 33.7786 29.0395C33.8008 28.2779 33.8863 27.7009 34.3107 27.0626C34.8433 26.7735 35.4057 26.6196 35.9865 26.4532C36.3274 26.3438 36.6682 26.2339 37.0089 26.1237C37.387 26.0054 37.7653 25.8875 38.1437 25.77C38.3504 25.7056 38.5571 25.641 38.7638 25.5765C39.3059 25.4073 39.8481 25.2386 40.3904 25.07C41.0349 24.8694 41.6793 24.6682 42.3236 24.4671C42.8509 24.3026 43.3784 24.1385 43.9061 23.9753C44.8991 23.6681 45.8907 23.3576 46.8796 23.0371C47.0583 22.9799 47.237 22.9228 47.4212 22.8639C47.7515 22.7582 48.0814 22.6508 48.4105 22.5414C48.6323 22.4711 48.6323 22.4711 48.8586 22.3993C48.9846 22.3582 49.1106 22.317 49.2405 22.2747C50.4154 22.0507 51.4556 22.1902 52.5814 22.5555ZM49.1504 25.035C49.0094 25.0788 49.0094 25.0788 48.8655 25.1235C48.5577 25.2197 48.251 25.319 47.9442 25.4183C47.7291 25.4863 47.5138 25.5541 47.2985 25.6217C46.7336 25.7997 46.1697 25.9804 45.6059 26.1616C45.1461 26.3089 44.6858 26.4543 44.2255 26.5996C43.2727 26.9003 42.3203 27.2023 41.369 27.5076C41.2007 27.5615 41.0324 27.6154 40.859 27.671C40.4467 27.81 40.0447 27.9628 39.6427 28.129C40.1148 28.4437 40.5241 28.5986 41.0596 28.7832C41.1563 28.8166 41.253 28.8501 41.3526 28.8846C42.3646 29.2336 43.3796 29.574 44.3947 29.9137C44.8751 30.0748 45.3544 30.2384 45.833 30.4045C46.413 30.6057 46.9944 30.8021 47.5771 30.9953C47.7977 31.0692 48.0177 31.1448 48.2371 31.2222C49.6669 31.7242 50.6889 31.8715 52.1349 31.3282C52.3523 31.2607 52.57 31.1939 52.7879 31.1278C52.987 31.0614 53.1859 30.9943 53.3846 30.9265C53.5487 30.8715 53.5487 30.8715 53.7161 30.8154C54.0652 30.6981 54.414 30.58 54.7628 30.4618C55.0051 30.3802 55.2475 30.2987 55.4899 30.2173C55.9725 30.0551 56.4549 29.8926 56.9373 29.7299C57.8874 29.4094 58.8388 29.0929 59.7902 28.7764C60.083 28.6789 60.3757 28.5813 60.6685 28.4837C60.8709 28.4162 61.0732 28.3488 61.2755 28.2813C61.1451 27.9354 61.1451 27.9354 60.7361 27.8254C60.5637 27.7724 60.3914 27.7194 60.2138 27.6648C60.1189 27.6353 60.024 27.6057 59.9262 27.5753C59.6111 27.4776 59.2954 27.3817 58.9796 27.2857C58.7604 27.2183 58.5411 27.1508 58.3219 27.0832C57.8613 26.9415 57.4005 26.8006 56.9395 26.6603C56.3505 26.481 55.7621 26.2999 55.1738 26.1183C54.7205 25.9785 54.2669 25.8395 53.8133 25.7007C53.5964 25.6343 53.3796 25.5677 53.1628 25.5008C52.8583 25.4071 52.5534 25.3144 52.2485 25.2219C52.0754 25.1691 51.9023 25.1162 51.724 25.0617C50.77 24.8115 50.0986 24.7338 49.1504 25.035ZM42.5372 31.9376C42.5372 34.1496 42.5372 36.3616 42.5372 38.6407C47.8431 40.037 53.1064 40.3989 58.381 38.6407C58.381 36.4287 58.381 34.2166 58.381 31.9376C57.3656 32.2145 56.3828 32.4904 55.3954 32.8391C55.1579 32.9211 54.9204 33.0029 54.6828 33.0846C54.3171 33.2109 53.9517 33.3379 53.5869 33.4668C53.2288 33.593 52.8697 33.7161 52.5104 33.8389C52.4036 33.8775 52.2967 33.916 52.1866 33.9557C50.7175 34.4506 49.4928 34.2304 48.0597 33.7229C47.9104 33.6721 47.7611 33.6214 47.6073 33.5692C47.1353 33.4083 46.6644 33.2444 46.1935 33.0802C45.718 32.9166 45.2424 32.7537 44.7666 32.5912C44.4717 32.4902 44.177 32.3885 43.8826 32.286C43.7503 32.2402 43.618 32.1945 43.4816 32.1474C43.3651 32.1068 43.2486 32.0662 43.1286 32.0243C42.8432 31.9229 42.8432 31.9229 42.5372 31.9376ZM34.4059 35.9937C34.0841 36.464 34.0651 36.7102 34.1583 37.2696C34.3868 37.6505 34.3868 37.6505 34.7677 37.879C35.3271 37.9722 35.5733 37.9532 36.0436 37.6314C36.3653 37.1612 36.3844 36.9149 36.2911 36.3555C36.0626 35.9747 36.0626 35.9747 35.6818 35.7462C35.1224 35.6529 34.8762 35.672 34.4059 35.9937Z" fill="#B170FF"/>
<path d="M81.2272 20.2891C81.6866 20.3931 81.8435 20.609 82.1466 20.9687C82.3186 21.354 82.4654 21.7234 82.6018 22.1208C82.6424 22.2344 82.6829 22.348 82.7247 22.4651C82.8542 22.829 82.9813 23.1937 83.1082 23.5585C83.1917 23.7942 83.2753 24.0299 83.3591 24.2655C83.4839 24.6166 83.6079 24.968 83.729 25.3204C83.94 25.934 84.1592 26.5404 84.4061 27.1406C85.1992 29.1215 85.3445 30.8834 85.3242 33.001C85.3249 33.3402 85.326 33.6793 85.3276 34.0185C85.3305 34.9297 85.3268 35.8407 85.3216 36.7518C85.3172 37.7091 85.3184 38.6663 85.3188 39.6236C85.3187 41.2284 85.3144 42.8331 85.3074 44.4379C85.3002 46.086 85.2969 47.7341 85.298 49.3823C85.2993 51.3762 85.2975 53.3701 85.2928 55.364C85.291 56.1232 85.2903 56.8825 85.2905 57.6418C85.2904 58.5346 85.2873 59.4274 85.2819 60.3203C85.2803 60.6475 85.2798 60.9747 85.2804 61.3019C85.2811 61.749 85.278 62.1959 85.2739 62.643C85.2749 62.7719 85.276 62.9009 85.2771 63.0337C85.2611 64.0666 84.9692 64.8612 84.2847 65.6423C84.1856 65.7244 84.0864 65.8064 83.9842 65.891C83.8854 65.9755 83.7867 66.0599 83.6849 66.1469C82.8139 66.747 81.9773 66.7276 80.9564 66.7289C80.8102 66.7326 80.664 66.7364 80.5133 66.7402C79.3664 66.7449 78.561 66.5248 77.6917 65.7631C77.6096 65.6639 77.5275 65.5647 77.443 65.4626C77.3585 65.3638 77.2741 65.265 77.1871 65.1632C76.6403 64.3697 76.6151 63.6544 76.6102 62.7216C76.6083 62.5843 76.6064 62.4471 76.6045 62.3057C76.5986 61.8454 76.595 61.3852 76.5913 60.9249C76.5877 60.5947 76.5839 60.2645 76.5801 59.9343C76.5681 58.8472 76.5597 57.7602 76.5521 56.673C76.5508 56.4872 76.5495 56.3013 76.5482 56.1098C76.5362 54.3505 76.5259 52.5913 76.5188 50.832C76.5171 50.4244 76.5154 50.0168 76.5137 49.6093C76.5133 49.508 76.5128 49.4067 76.5124 49.3024C76.5048 47.5766 76.4867 45.8511 76.4658 44.1254C76.4473 42.5466 76.4379 40.9679 76.4348 39.389C76.4327 38.4504 76.427 37.5122 76.4113 36.5737C76.3337 31.7225 76.8887 27.7557 78.8075 23.2826C78.9478 22.948 79.0798 22.6112 79.2092 22.2722C79.2704 22.1129 79.2704 22.1129 79.3329 21.9503C79.4421 21.6643 79.5503 21.3778 79.6585 21.0914C80.014 20.3427 80.449 20.322 81.2272 20.2891ZM80.7755 25.6913C80.5716 26.2433 80.3687 26.7956 80.1661 27.3481C80.108 27.5054 80.0498 27.6627 79.99 27.8247C79.935 27.975 79.88 28.1252 79.8233 28.28C79.7723 28.4188 79.7212 28.5576 79.6686 28.7006C79.5409 29.0311 79.5409 29.0311 79.5567 29.3476C80.4616 29.3476 81.3666 29.3476 82.2989 29.3476C81.9422 28.1086 81.5216 26.9022 81.0802 25.6913C80.9796 25.6913 80.8791 25.6913 80.7755 25.6913ZM79.0997 31.9374C79.0997 40.0817 79.0997 48.226 79.0997 56.6171C80.3063 56.6171 81.5128 56.6171 82.7559 56.6171C82.7559 48.4728 82.7559 40.3285 82.7559 31.9374C81.5494 31.9374 80.3428 31.9374 79.0997 31.9374ZM79.0997 59.0546C79.0873 59.6958 79.0783 60.3367 79.0711 60.9779C79.0673 61.1592 79.0635 61.3405 79.0595 61.5272C79.0302 62.7982 79.0302 62.7982 79.5567 63.9296C80.1615 64.3098 80.841 64.3215 81.5372 64.2343C82.2172 63.9968 82.2172 63.9968 82.6267 63.4379C82.7725 62.9613 82.7906 62.5727 82.7857 62.0747C82.7847 61.8984 82.7837 61.7222 82.7827 61.5406C82.7802 61.3581 82.7776 61.1755 82.775 60.9875C82.7736 60.802 82.7722 60.6165 82.7708 60.4254C82.7672 59.9684 82.7618 59.5115 82.7559 59.0546C81.5494 59.0546 80.3428 59.0546 79.0997 59.0546Z" fill="#B170FF"/>
<path d="M69.1973 28.8906C70.9568 28.8906 72.7164 28.8906 74.5293 28.8906C74.4288 29.695 74.3282 30.4994 74.2246 31.3281C71.9623 31.3281 69.7 31.3281 67.3691 31.3281C67.6205 31.0768 67.8719 30.8254 68.1309 30.5664C68.6151 30.011 68.8546 29.5759 69.1973 28.8906Z" fill="#B170FF"/>
</g>
<defs>
<clipPath id="clip0_301_612">
<rect width="78" height="78" fill="white" transform="translate(10.2402 10)"/>
</clipPath>
</defs>
</svg>
