<svg width="99" height="98" viewBox="0 0 99 98" fill="none" xmlns="http://www.w3.org/2000/svg">
<rect x="0.0898438" width="98" height="98" rx="20" fill="#3BDFAD" fill-opacity="0.2"/>
<g clip-path="url(#clip0_301_599)">
<path d="M55.0312 11.6757C55.5762 12.1001 56.0691 12.5561 56.5547 13.0468C56.6497 13.1368 56.7448 13.2267 56.8427 13.3194C58.6477 15.165 59.3766 17.8032 59.3612 20.3158C59.2716 23.2664 58.0609 25.8075 55.9262 27.8432C53.7906 29.6529 51.1758 30.5665 48.3698 30.3753C45.3144 30.03 42.7479 28.715 40.8091 26.3132C39.1306 23.9293 38.4903 21.0797 38.9768 18.2075C39.5157 15.5647 40.9526 13.2321 43.1875 11.7019C46.8228 9.34336 51.3828 9.29346 55.0312 11.6757ZM49.2422 13.6562C49.6002 15.0882 50.6493 16.143 51.8641 16.9179C52.8786 17.4809 53.886 17.6492 55.0312 17.7695C54.564 16.2039 53.5304 15.2212 52.1367 14.4179C51.1798 13.9351 50.3088 13.725 49.2422 13.6562ZM44.6284 15.373C43.2937 16.7199 42.6416 18.3286 42.6152 20.2165C42.6447 22.1567 43.4262 23.6999 44.8051 25.0588C46.215 26.2072 47.9006 26.6726 49.6992 26.6054C51.6424 26.3566 53.1944 25.3739 54.4218 23.8632C54.8802 23.1281 55.1903 22.4336 55.3359 21.5781C54.9049 21.3626 54.4916 21.3615 54.0124 21.3115C51.2743 20.9701 48.8534 19.8086 47.1093 17.6171C46.5318 16.744 46.0472 15.8136 45.5859 14.8749C45.1531 14.8749 44.9439 15.0977 44.6284 15.373Z" fill="#3BDFAD"/>
<path d="M41.0154 49.3047C41.1589 49.4264 41.1589 49.4264 41.3052 49.5505C43.1031 51.1934 44.0874 53.7087 44.2402 56.1043C44.2641 59.1508 43.3641 61.9002 41.2344 64.1106C39.1433 66.1809 36.4844 67.0242 33.5949 67.0242C30.9191 66.9839 28.6479 65.9736 26.7213 64.1225C24.6402 61.9516 23.7176 59.4393 23.7366 56.4541C23.8135 53.6966 24.8891 51.3922 26.8475 49.4571C26.9521 49.3491 27.0568 49.241 27.1646 49.1298C28.4921 47.8441 30.2256 47.0712 32.0272 46.7149C32.1318 46.6933 32.2365 46.6717 32.3443 46.6494C35.5472 46.1473 38.6144 47.2043 41.0154 49.3047ZM34.0076 50.3711C34.7109 52.0223 35.8926 53.3058 37.5449 54.0214C38.3199 54.3107 38.9727 54.377 39.7967 54.3321C39.4119 52.9461 38.3303 51.9154 37.1247 51.1709C36.1206 50.6609 35.1391 50.3275 34.0076 50.3711ZM29.2998 52.3332C27.9997 53.6478 27.4619 55.2459 27.4568 57.0743C27.5685 58.7657 28.3191 60.4979 29.5897 61.6446C31.0712 62.8235 32.6669 63.404 34.5634 63.2977C36.0874 63.0966 37.7813 62.3441 38.813 61.1792C39.5459 60.2006 39.9852 59.3293 40.2537 58.1407C40.088 58.1257 39.9222 58.1108 39.7515 58.0954C37.18 57.8429 35.0495 57.1463 33.0936 55.3985C32.993 55.3985 32.8925 55.3985 32.7889 55.3985C32.7543 55.3168 32.7197 55.2351 32.6841 55.1509C32.4732 54.7692 32.2124 54.4645 31.9302 54.1339C31.3078 53.3582 30.8682 52.5107 30.5037 51.5899C29.9794 51.5899 29.675 51.9948 29.2998 52.3332Z" fill="#3BDFAD"/>
<path d="M71.3683 49.3493C73.2743 51.2175 74.3672 53.6908 74.4235 56.3478C74.4454 59.3697 73.649 61.845 71.5248 64.0558C69.3539 66.1369 66.8416 67.0595 63.8564 67.0405C61.099 66.9636 58.7945 65.888 56.8594 63.9297C56.7514 63.825 56.6434 63.7203 56.5321 63.6125C54.6613 61.6808 53.9675 59.0977 53.9648 56.4648C54.1271 53.7618 55.1881 51.1879 57.1641 49.3047C61.422 45.7485 67.1443 45.6664 71.3683 49.3493ZM64.3242 50.3711C64.7663 51.8866 65.7663 52.8744 67.1069 53.6613C68.087 54.164 69.0213 54.3851 70.1133 54.4843C69.7925 53.2014 68.8985 52.1827 67.8281 51.4375C66.7432 50.7965 65.6111 50.2906 64.3242 50.3711ZM59.7158 52.1611C58.5336 53.368 57.7862 54.9504 57.7258 56.6457C57.7754 58.6592 58.4845 60.3046 59.9443 61.7016C61.251 62.7824 62.838 63.3626 64.5349 63.3018C66.3128 63.1123 68.0143 62.4163 69.1992 61.0351C69.8219 60.1301 70.3489 59.2229 70.5703 58.1406C70.4521 58.1367 70.3339 58.1327 70.2121 58.1287C67.3728 57.9796 64.6647 56.9893 62.7041 54.881C61.8651 53.8955 61.231 52.7491 60.668 51.5898C60.204 51.5898 60.0456 51.8448 59.7158 52.1611Z" fill="#3BDFAD"/>
<path d="M33.4455 70.2885C34.0167 70.2901 34.5878 70.2885 35.159 70.2866C39.4707 70.2838 43.1238 70.7773 46.5 73.6798C46.6399 73.7894 46.6399 73.7894 46.7827 73.9012C49.7242 76.2436 51.5088 80.2342 52.9175 83.6107C53.0285 83.8726 53.0285 83.8726 53.1418 84.1399C53.5148 85.0584 53.7819 85.7878 53.6602 86.7813C53.3532 87.353 53.1339 87.64 52.5938 88.0001C52.248 88.0566 52.248 88.0566 51.8606 88.0667C51.7339 88.0728 51.6073 88.0789 51.4768 88.0852C50.9081 87.9661 50.5486 87.6494 50.1563 87.2384C49.8809 86.7479 49.8809 86.7479 49.654 86.194C49.6121 86.0942 49.5702 85.9944 49.527 85.8917C49.4379 85.6795 49.3499 85.4669 49.2629 85.2539C49.0354 84.699 48.7988 84.148 48.562 83.597C48.4925 83.4349 48.4925 83.4349 48.4216 83.2696C47.0564 80.1096 44.9806 76.4585 41.6475 75.0871C40.3766 74.6081 39.149 74.2749 37.7843 74.2622C37.6001 74.2602 37.4159 74.2583 37.2261 74.2563C37.0285 74.2551 36.831 74.254 36.6274 74.2529C36.4744 74.2519 36.4744 74.2519 36.3183 74.251C35.7772 74.2478 35.236 74.2456 34.6948 74.2442C34.2522 74.2428 33.8097 74.2397 33.367 74.2348C29.686 74.1952 26.4093 74.2629 23.555 76.9392C22.6479 77.8385 21.9132 78.863 21.2109 79.9259C21.1082 80.081 21.0055 80.2362 20.8997 80.396C19.9465 81.9564 19.2838 83.6644 18.5806 85.3472C17.5939 87.6801 17.5939 87.6801 16.9453 88.0001C16.3774 88.1017 15.8388 88.0913 15.2695 88.0001C14.7422 87.6127 14.4544 87.2257 14.2031 86.629C14.2242 85.4363 14.6243 84.4746 15.0981 83.3917C15.173 83.2185 15.2478 83.0454 15.3248 82.867C17.3891 78.1586 20.209 73.2655 25.2326 71.2691C25.4624 71.1852 25.6929 71.1032 25.9241 71.0233C26.0762 70.9696 26.0762 70.9696 26.2315 70.9148C28.5519 70.1766 31.0417 70.2803 33.4455 70.2885Z" fill="#3BDFAD"/>
<path d="M61.9697 70.3027C62.2365 70.3019 62.2365 70.3019 62.5086 70.3011C62.8828 70.3004 63.257 70.3 63.6313 70.3C64.1965 70.2997 64.7617 70.2969 65.3269 70.294C70.156 70.2821 70.156 70.2821 72.2559 71.0233C72.3693 71.0627 72.4826 71.102 72.5994 71.1426C74.7021 71.9116 76.3224 73.1687 77.8831 74.7462C78.0031 74.8629 78.1231 74.9795 78.2467 75.0997C80.7205 77.649 83.8083 82.711 84.0137 86.3345C83.9435 86.8954 83.7006 87.242 83.3675 87.6954C82.7156 88.13 82.151 88.0725 81.387 88.0001C80.8898 87.8454 80.705 87.6837 80.4496 87.2331C80.0001 86.3201 79.589 85.3971 79.1971 84.4581C77.4425 80.3248 75.361 76.5606 71.0604 74.7528C69.6747 74.3032 68.3344 74.2405 66.8846 74.238C66.6774 74.237 66.4703 74.236 66.2631 74.2349C65.8306 74.2331 65.3981 74.2325 64.9656 74.2327C64.5271 74.2328 64.0887 74.2306 63.6503 74.2265C60.6725 74.1986 58.1847 74.3101 55.4636 75.627C54.8289 75.8997 54.4931 75.9534 53.8128 75.8126C53.2427 75.5159 52.8449 75.182 52.6303 74.5647C52.543 74.01 52.579 73.5866 52.7178 73.0419C53.8905 71.5341 56.5554 70.7577 58.3831 70.4806C59.5792 70.3395 60.7663 70.3039 61.9697 70.3027Z" fill="#3BDFAD"/>
<path d="M48.5564 33.5851C49.0383 33.5848 49.5203 33.582 50.0022 33.5791C54.2169 33.5671 58.0981 33.9686 61.4295 36.8125C61.5418 36.9047 61.6541 36.9968 61.7699 37.0916C62.6915 37.8719 63.433 38.7551 64.1717 39.7071C64.2954 39.8535 64.2954 39.8535 64.4216 40.0028C64.9616 40.6716 65.1396 41.2987 65.0857 42.1446C64.8619 42.7807 64.6173 43.1911 64.0193 43.5157C63.3854 43.7174 62.8467 43.6997 62.2245 43.4472C61.5847 43 61.1604 42.337 60.713 41.7072C60.3842 41.2337 60.3842 41.2337 60.0131 40.8824C59.7537 40.6211 59.7537 40.6211 59.7537 40.3165C59.6214 40.2564 59.6214 40.2564 59.4865 40.1951C59.1271 40.0025 58.8544 39.7808 58.5445 39.5167C55.9117 37.4551 52.8677 37.4991 49.6856 37.5147C49.091 37.5171 48.4965 37.5147 47.9018 37.5118C44.3886 37.4817 44.3886 37.4817 41.1011 38.6026C40.9998 38.655 40.8986 38.7075 40.7943 38.7615C40.0973 39.135 39.5012 39.5632 38.9409 40.126C38.7303 40.3165 38.7303 40.3165 38.4256 40.3165C38.3853 40.4052 38.3451 40.494 38.3036 40.5854C38.1136 40.9394 37.9041 41.1994 37.6353 41.4971C37.5414 41.6018 37.4475 41.7065 37.3508 41.8143C37.2041 41.9778 37.2041 41.9778 37.0545 42.1446C36.7738 42.4709 36.4934 42.7976 36.2136 43.1247C35.942 43.4121 35.7743 43.5064 35.3805 43.5466C34.6486 43.5614 34.125 43.5655 33.5506 43.0586C33.1498 42.4367 32.9665 41.9643 33.0935 41.2305C34.4048 38.2428 37.4143 35.8345 40.3525 34.5982C43.0428 33.5974 45.7209 33.5849 48.5564 33.5851Z" fill="#3BDFAD"/>
</g>
<defs>
<clipPath id="clip0_301_599">
<rect width="78" height="78" fill="white" transform="translate(10.0898 10)"/>
</clipPath>
</defs>
</svg>
