<svg width="36" height="36" viewBox="0 0 36 36" fill="none" xmlns="http://www.w3.org/2000/svg">
<g clip-path="url(#clip0_311_362)">
<path d="M20.5308 0.28107C20.6012 0.300257 20.6012 0.300257 20.6729 0.319831C22.2328 0.754805 23.5242 1.64001 24.649 2.7854C24.7908 2.92446 24.9258 3.03773 25.0879 3.1507C26.116 3.91156 26.6661 4.99809 26.8589 6.25763C26.9231 6.8781 26.9414 7.49792 26.9476 8.12132C26.9491 8.27267 26.951 8.42402 26.9529 8.57538C26.9578 8.95021 26.9621 9.32505 26.9662 9.6999C26.9698 10.0191 26.9737 10.3384 26.9779 10.6576C26.9798 10.8065 26.9812 10.9554 26.9827 11.1043C26.9839 11.1943 26.985 11.2842 26.9862 11.3769C26.9876 11.4957 26.9876 11.4957 26.9889 11.6169C26.9913 11.8184 26.9913 11.8184 27.0699 12.0233C27.1196 12.7223 27.0823 13.2412 26.6392 13.7943C26.2177 14.245 25.7098 14.4765 25.1011 14.5545C25.0083 14.5545 24.9155 14.5545 24.8199 14.5545C24.8196 14.6162 24.8196 14.6162 24.8193 14.6792C24.7447 16.3369 23.7674 17.8283 22.6168 18.9556C21.8056 19.6873 21.8056 19.6873 21.5152 19.6873C21.4722 20.0492 21.4485 20.3992 21.5855 20.742C22.4287 21.7919 24.3642 22.1248 25.5759 22.5434C25.7735 22.6117 25.971 22.6801 26.1684 22.7487C26.2274 22.769 26.2864 22.7893 26.3472 22.8102C27.5173 23.2164 28.4889 23.6385 29.1265 24.7674C29.3006 25.1516 29.3977 25.535 29.4873 25.9464C29.5024 26.0141 29.5175 26.0818 29.533 26.1516C29.6958 26.8891 29.8482 27.6288 29.998 28.369C30.0124 28.4401 30.0268 28.5113 30.0417 28.5846C30.1176 28.9594 30.1933 29.3343 30.2687 29.7092C30.3306 30.0165 30.393 30.3237 30.4559 30.6307C30.5328 31.0062 30.6088 31.3818 30.6842 31.7576C30.7127 31.8992 30.7416 32.0407 30.7707 32.1822C31.2315 34.4216 31.2315 34.4216 30.6926 35.2442C30.365 35.6504 29.9733 35.8983 29.4605 35.9998C29.2808 36.0071 29.1029 36.0109 28.9231 36.0112C28.8694 36.0115 28.8156 36.0118 28.7602 36.0122C28.5827 36.0132 28.4053 36.0137 28.2278 36.0141C28.1044 36.0145 27.9809 36.0149 27.8575 36.0153C27.5988 36.0161 27.3402 36.0165 27.0815 36.0167C26.75 36.0171 26.4186 36.0188 26.0871 36.0208C25.8322 36.0221 25.5773 36.0225 25.3223 36.0226C25.2001 36.0228 25.0779 36.0233 24.9557 36.0243C24.7848 36.0255 24.614 36.0253 24.4432 36.0249C24.3675 36.0259 24.3675 36.0259 24.2902 36.0268C24.0729 36.025 23.9262 36.0114 23.7355 35.9032C23.5862 35.7493 23.5644 35.6504 23.5543 35.4373C23.6291 35.1692 23.6685 35.1033 23.9058 34.9451C24.1003 34.9351 24.2874 34.9319 24.4815 34.9363C24.5342 34.937 24.5869 34.9376 24.6412 34.9383C24.7711 34.9399 24.901 34.9424 25.0308 34.9451C25.0305 34.8851 25.0302 34.8251 25.0299 34.7633C25.0271 34.1974 25.0249 33.6315 25.0235 33.0657C25.0228 32.7747 25.0218 32.4838 25.0202 32.1929C25.0187 31.9121 25.0178 31.6312 25.0175 31.3504C25.0172 31.2433 25.0167 31.1363 25.0159 31.0292C25.0149 30.8791 25.0148 30.729 25.0149 30.5788C25.0145 30.4934 25.0142 30.408 25.0139 30.32C25.0307 30.0946 25.0683 29.9421 25.1714 29.742C25.3756 29.5719 25.4756 29.5292 25.7427 29.5399C25.959 29.6057 26.0269 29.6312 26.1558 29.8123C26.1812 30.0325 26.1812 30.0325 26.1798 30.3074C26.1798 30.3575 26.1798 30.4076 26.1799 30.4592C26.1797 30.6248 26.1781 30.7902 26.1764 30.9557C26.176 31.0705 26.1757 31.1853 26.1755 31.3001C26.1747 31.6021 26.1726 31.9041 26.1703 32.2062C26.1681 32.5144 26.1672 32.8226 26.1661 33.1309C26.1639 33.7356 26.1603 34.3404 26.1558 34.9451C26.5248 34.9385 26.8937 34.931 27.2626 34.9228C27.3879 34.9201 27.5131 34.9177 27.6384 34.9155C27.8194 34.9122 28.0004 34.9082 28.1814 34.9039C28.2642 34.9027 28.2642 34.9027 28.3486 34.9015C28.7909 34.8899 29.2772 34.8763 29.6363 34.598C29.8573 34.2941 29.842 33.9753 29.7939 33.6131C29.768 33.4628 29.7391 33.3133 29.709 33.1636C29.6926 33.0788 29.6926 33.0788 29.6758 32.9922C29.6394 32.8057 29.6024 32.6193 29.5654 32.4328C29.5396 32.3011 29.5138 32.1694 29.4881 32.0376C29.4338 31.7608 29.3793 31.484 29.3245 31.2073C29.2556 30.8587 29.1871 30.5101 29.1189 30.1614C28.9651 29.3756 28.8093 28.5903 28.6515 27.8054C28.6184 27.6411 28.5856 27.4767 28.5528 27.3123C28.4978 27.0368 28.4412 26.7616 28.3844 26.4865C28.3613 26.3709 28.3613 26.3709 28.3378 26.2529C28.2061 25.6278 27.9906 25.0352 27.4918 24.6092C26.8813 24.2416 26.2145 24.0254 25.5406 23.8094C25.4428 23.7775 25.345 23.7455 25.2472 23.7135C25.0113 23.6364 24.775 23.5601 24.5386 23.4842C24.5202 23.5446 24.5017 23.6049 24.4827 23.6671C24.3962 23.9112 24.2904 24.1264 24.1678 24.3543C24.1454 24.3963 24.1229 24.4383 24.0997 24.4816C24.0266 24.6181 23.9531 24.7543 23.8794 24.8904C23.8282 24.9859 23.7769 25.0814 23.7257 25.1768C23.4001 25.7829 23.0717 26.3875 22.7413 26.9911C22.4725 27.4821 22.2066 27.9746 21.9415 28.4676C21.9005 28.5437 21.8595 28.6198 21.8173 28.6983C21.6099 29.0834 21.403 29.4687 21.1966 29.8543C21.1168 30.0029 21.0369 30.1515 20.9571 30.3001C20.9214 30.367 20.8858 30.434 20.849 30.5029C20.1502 31.8008 20.1502 31.8008 19.6871 32.2029C19.6363 32.2508 19.5856 32.2987 19.5333 32.348C18.9074 32.7791 18.2089 32.8999 17.4634 32.7918C16.8719 32.6667 16.3131 32.347 15.9495 31.8588C15.5595 31.2404 15.2051 30.6094 14.8663 29.9617C14.8164 29.8673 14.7664 29.7729 14.7164 29.6786C14.6172 29.4909 14.5191 29.3028 14.4218 29.1142C14.3191 28.9151 14.2133 28.718 14.1058 28.5214C14.0524 28.4212 13.9991 28.3211 13.9459 28.221C13.9202 28.1752 13.8945 28.1295 13.868 28.0824C13.7457 27.8485 13.7049 27.7302 13.7587 27.4681C13.8631 27.2569 13.9178 27.1687 14.1324 27.0701C14.3785 27.0701 14.3785 27.0701 14.6246 27.1404C14.8377 27.3728 14.9859 27.6218 15.1319 27.9002C15.1739 27.9796 15.2159 28.0591 15.2593 28.141C15.2812 28.1829 15.3031 28.2247 15.3257 28.2678C15.4414 28.4883 15.5582 28.7083 15.6751 28.9282C15.7106 28.995 15.7106 28.995 15.7469 29.0631C16.0203 29.5758 16.3074 30.0805 16.5969 30.5842C16.6325 30.6464 16.6681 30.7087 16.7048 30.7728C16.736 30.8269 16.7673 30.881 16.7994 30.9368C16.8746 31.0779 16.8746 31.0779 16.9449 31.2889C17.0712 31.3701 17.0712 31.3701 17.2261 31.4295C17.2778 31.4509 17.3295 31.4723 17.3827 31.4943C17.8282 31.6482 18.1861 31.6674 18.6324 31.4998C18.7269 31.4305 18.8208 31.3604 18.9136 31.2889C18.96 31.2889 19.0064 31.2889 19.0543 31.2889C19.0815 31.2337 19.0815 31.2337 19.1092 31.1773C19.2168 30.9642 19.3285 30.7533 19.4404 30.5424C19.4645 30.497 19.4885 30.4517 19.5133 30.405C19.5916 30.2572 19.6701 30.1095 19.7486 29.9617C19.7755 29.911 19.8024 29.8604 19.8302 29.8081C20.1913 29.1283 20.5554 28.4503 20.9253 27.7752C21.1947 27.2837 21.4608 26.7904 21.7261 26.2967C22.0424 25.7084 22.3599 25.1208 22.6797 24.5345C22.7132 24.4731 22.7467 24.4117 22.7812 24.3484C22.8131 24.2901 22.8449 24.2318 22.8778 24.1717C22.9081 24.116 22.9385 24.0603 22.9698 24.003C23.0337 23.8871 23.0985 23.7717 23.1639 23.6567C23.1962 23.5999 23.2285 23.543 23.2617 23.4845C23.2909 23.4337 23.3201 23.3829 23.3502 23.3305C23.4241 23.2057 23.4241 23.2057 23.4136 23.0623C23.2048 23.0159 22.996 22.9695 22.7808 22.9217C22.7433 22.9915 22.7433 22.9915 22.705 23.0627C22.1368 24.1189 21.5672 25.1743 20.9955 26.2286C20.8435 26.5091 20.6916 26.7895 20.5397 27.07C20.4638 27.2101 20.3879 27.3501 20.312 27.4902C20.1159 27.852 19.9202 28.214 19.725 28.5764C18.6011 30.6611 18.6011 30.6611 18.3511 30.867C18.0976 30.9327 17.9287 30.9611 17.6788 30.8758C17.222 30.4776 16.9603 29.8743 16.69 29.3421C16.4091 28.7965 16.1239 28.2541 15.8287 27.7161C15.5201 27.1534 15.2141 26.5895 14.9102 26.0242C14.5783 25.4072 14.246 24.7904 13.9127 24.1741C13.8752 24.1049 13.8378 24.0356 13.7992 23.9642C13.6097 23.6142 13.4175 23.2663 13.2183 22.9217C13.0095 22.9681 12.8007 23.0145 12.5855 23.0623C12.6756 23.3559 12.7866 23.6124 12.9373 23.8797C12.9778 23.9526 13.0183 24.0254 13.06 24.1005C13.1451 24.2523 13.2304 24.4039 13.316 24.5554C13.3563 24.6282 13.3967 24.7011 13.4383 24.7762C13.4753 24.842 13.5124 24.9078 13.5505 24.9756C13.647 25.1866 13.6913 25.3626 13.7105 25.5936C13.6305 25.7572 13.558 25.8867 13.4293 26.0154C13.029 26.0483 13.029 26.0483 12.8668 26.0154C12.6188 25.804 12.4828 25.5703 12.3323 25.2835C12.2983 25.2193 12.2983 25.2193 12.2635 25.1538C12.1917 25.0179 12.1205 24.8817 12.0494 24.7454C11.9776 24.609 11.9057 24.4726 11.8337 24.3363C11.7686 24.2129 11.7038 24.0893 11.6391 23.9657C11.5318 23.7598 11.5318 23.7598 11.3902 23.5545C10.8685 23.6575 10.3787 23.8148 9.87847 23.994C9.80279 24.02 9.72711 24.046 9.64913 24.0728C8.84985 24.358 8.26 24.7009 7.87688 25.4823C7.72022 25.8739 7.65333 26.2931 7.57134 26.7054C7.54873 26.8164 7.52607 26.9274 7.50337 27.0383C7.44919 27.3041 7.39566 27.57 7.34238 27.8359C7.2554 28.2693 7.16687 28.7024 7.07811 29.1355C6.98123 29.6084 6.88495 30.0814 6.78905 30.5545C6.72823 30.8545 6.66722 31.1545 6.60575 31.4544C6.54684 31.7421 6.48863 32.0298 6.4309 32.3177C6.40926 32.4251 6.38739 32.5324 6.36526 32.6396C6.13471 33.5873 6.13471 33.5873 6.27496 34.5233C6.53111 34.816 6.79491 34.8294 7.17144 34.8748C7.38221 34.8874 7.59289 34.8926 7.80398 34.8971C7.89189 34.8993 7.89189 34.8993 7.98158 34.9015C8.1671 34.9061 8.35262 34.9102 8.53814 34.9144C8.66462 34.9174 8.7911 34.9205 8.91758 34.9236C9.22615 34.9311 9.53473 34.9382 9.84332 34.9451C9.84261 34.8494 9.84261 34.8494 9.8419 34.7517C9.83767 34.1506 9.83446 33.5495 9.83239 32.9484C9.83128 32.6393 9.82979 32.3303 9.8274 32.0212C9.82511 31.723 9.82385 31.4249 9.8233 31.1267C9.82291 31.0129 9.82215 30.899 9.82101 30.7852C9.81949 30.6259 9.81927 30.4667 9.81937 30.3074C9.81867 30.1714 9.81867 30.1714 9.81795 30.0325C9.84332 29.8123 9.84332 29.8123 9.93765 29.6798C10.1175 29.5589 10.2609 29.5397 10.4761 29.5311C10.695 29.6206 10.798 29.6843 10.9069 29.8957C10.9804 30.1324 10.9852 30.3309 10.9843 30.5788C10.9843 30.6262 10.9843 30.6736 10.9843 30.7224C10.9842 30.878 10.9832 31.0336 10.982 31.1892C10.9818 31.2975 10.9816 31.4057 10.9814 31.514C10.9809 31.7982 10.9795 32.0825 10.978 32.3667C10.9765 32.657 10.9759 32.9474 10.9752 33.2377C10.9737 33.8069 10.9713 34.376 10.9683 34.9451C11.0246 34.9449 11.0809 34.9446 11.1388 34.9443C12.5073 34.9381 13.8757 34.9335 15.2442 34.9306C15.906 34.9291 16.5677 34.9271 17.2295 34.9239C17.8062 34.9211 18.3829 34.9193 18.9596 34.9187C19.2651 34.9183 19.5705 34.9174 19.876 34.9154C20.1634 34.9135 20.4508 34.9129 20.7382 34.9133C20.8437 34.9132 20.9493 34.9127 21.0548 34.9116C21.1988 34.9102 21.3428 34.9107 21.4868 34.9113C21.5675 34.9111 21.6481 34.9108 21.7312 34.9105C21.9839 34.953 22.0667 35.0229 22.2183 35.2264C22.2564 35.493 22.2674 35.6463 22.1138 35.8723C21.861 36.0547 21.6236 36.0387 21.3234 36.0355C21.2608 36.036 21.1981 36.0364 21.1336 36.0369C20.9233 36.038 20.7131 36.0371 20.5028 36.0362C20.3522 36.0366 20.2016 36.0371 20.0509 36.0377C19.6414 36.039 19.2319 36.0385 18.8223 36.0376C18.3937 36.0369 17.9651 36.0375 17.5365 36.038C16.8162 36.0385 16.0959 36.0378 15.3756 36.0365C14.5435 36.035 13.7115 36.0354 12.8795 36.037C12.165 36.0383 11.4505 36.0385 10.736 36.0377C10.3094 36.0373 9.88275 36.0372 9.4561 36.0382C9.05453 36.039 8.65299 36.0384 8.25143 36.0368C8.10433 36.0364 7.95722 36.0365 7.81012 36.0371C6.11951 36.0436 6.11951 36.0436 5.44659 35.4167C5.00724 34.9061 4.94133 34.2773 4.97705 33.626C5.03687 32.9855 5.18992 32.3516 5.31777 31.722C5.35167 31.5523 5.38551 31.3825 5.41929 31.2128C5.49008 30.8581 5.56148 30.5036 5.63334 30.1492C5.72491 29.6974 5.81502 29.2452 5.90469 28.793C5.9743 28.4427 6.04463 28.0926 6.11518 27.7425C6.14866 27.5759 6.18193 27.4093 6.21498 27.2427C6.76497 24.4772 6.76497 24.4772 7.96685 23.5372C8.46253 23.2137 8.99198 23.0281 9.55061 22.8423C9.68983 22.796 9.82882 22.749 9.96778 22.7019C10.3625 22.5682 10.7575 22.4354 11.1527 22.3033C11.3957 22.2221 11.6384 22.14 11.8809 22.0575C11.9725 22.0265 12.0641 21.9959 12.1559 21.9655C12.7214 21.7785 13.2111 21.5577 13.7105 21.2342C13.7839 21.1957 13.8573 21.1572 13.933 21.1175C14.2161 20.9561 14.3811 20.8413 14.4848 20.5248C14.508 20.2616 14.4981 20.0786 14.4136 19.8279C14.2443 19.6634 14.0756 19.5709 13.8662 19.4621C13.4531 19.2312 13.1318 18.8925 12.7964 18.5623C12.7458 18.5134 12.6951 18.4644 12.6429 18.414C11.716 17.4516 10.9683 15.8984 10.9683 14.5545C10.9249 14.5527 10.8815 14.5509 10.8368 14.549C10.1163 14.5008 9.55635 14.2556 9.06988 13.7108C8.81748 13.3205 8.70838 12.9529 8.70513 12.4891C8.70414 12.4247 8.70314 12.3604 8.70211 12.2941C8.71832 12.0936 8.71832 12.0936 8.78829 11.9199C8.88773 11.5706 8.8799 11.2367 8.88064 10.8752C8.88241 10.7157 8.8842 10.5562 8.88599 10.3967C8.888 10.1478 8.88969 9.89883 8.89102 9.64987C8.89872 8.44685 8.92024 7.25477 9.32916 6.10822C9.34682 6.05702 9.36449 6.00583 9.3827 5.95309C9.6471 5.21478 9.98661 4.48335 10.4761 3.86701C10.7504 3.77884 10.8975 3.77361 11.1705 3.86261C11.3483 4.03519 11.3756 4.16718 11.3999 4.4104C11.3814 4.7148 11.2181 4.95049 11.065 5.20734C10.116 6.90525 10.0213 8.7106 10.0543 10.617C10.3579 10.6194 10.6171 10.5965 10.898 10.4764C11.0275 10.259 11.089 10.0477 11.1622 9.80594C11.3686 9.23017 11.7983 8.88032 12.3306 8.60871C12.6488 8.4636 12.9079 8.35752 13.2594 8.36237C13.3248 8.36306 13.3901 8.36374 13.4574 8.36445C13.5281 8.36548 13.5989 8.3665 13.6718 8.36756C13.823 8.36879 13.9742 8.36998 14.1254 8.37113C14.3626 8.37329 14.5999 8.37576 14.8371 8.37906C15.7543 8.39114 16.6143 8.38066 17.5074 8.15607C17.5645 8.14245 17.6217 8.12883 17.6806 8.1148C18.7322 7.84703 19.6566 7.35068 20.5179 6.70038C20.9511 6.38786 21.2534 6.19729 21.7964 6.25763C22.1355 6.39415 22.3117 6.55209 22.5303 6.8421C23.0028 7.43385 23.3267 7.6967 24.0624 7.8811C24.4052 7.97218 24.5957 8.09248 24.8199 8.36701C24.8958 8.59473 24.9046 8.77423 24.9124 9.01383C24.9154 9.0988 24.9183 9.18377 24.9214 9.27132C24.9241 9.3601 24.9269 9.44888 24.9297 9.54035C24.9328 9.62994 24.9358 9.71954 24.9389 9.81185C24.9464 10.0334 24.9536 10.2549 24.9605 10.4764C25.2157 10.5228 25.471 10.5692 25.7339 10.617C25.7375 10.1457 25.74 9.67431 25.7417 9.20295C25.7424 9.04305 25.7433 8.88315 25.7445 8.72326C25.8009 6.40851 25.8009 6.40851 24.7496 4.42951C24.5308 4.21789 24.3101 4.04013 24.0508 3.88019C23.8549 3.74021 23.7377 3.61871 23.585 3.43634C22.4822 2.16431 20.6483 1.33268 18.9839 1.19513C16.7811 1.08125 14.7696 1.47899 13.003 2.85627C12.6365 3.13344 12.6365 3.13344 12.3746 3.10675C12.0576 2.98127 12.0576 2.98127 11.9527 2.81232C11.8811 2.57706 11.8558 2.44911 11.9585 2.22263C12.1254 1.99517 12.3244 1.84862 12.5547 1.69171C12.5992 1.66095 12.6437 1.63019 12.6896 1.5985C12.8184 1.51011 12.948 1.4229 13.0777 1.33576C13.1343 1.29633 13.191 1.2569 13.2494 1.21628C15.2995 -0.122348 18.2095 -0.379752 20.5308 0.28107ZM21.0186 7.76496C19.8135 8.64445 18.482 9.16588 17.0152 9.4217C16.9455 9.43425 16.8759 9.4468 16.8041 9.45974C16.4512 9.50935 16.0989 9.4925 15.7435 9.48404C15.591 9.48178 15.4385 9.47964 15.2859 9.47759C15.0474 9.47412 14.8089 9.47003 14.5704 9.46404C14.3389 9.45848 14.1074 9.45566 13.8758 9.45328C13.8053 9.45088 13.7347 9.44849 13.6621 9.44601C13.0577 9.44369 12.6996 9.66574 12.2735 10.0809C12.1278 10.3257 12.0797 10.549 12.023 10.8279C12.2777 11.0368 12.2777 11.0368 12.5855 11.1092C12.785 11.0094 12.9638 10.883 13.148 10.7576C13.3425 10.6928 13.4634 10.6774 13.6644 10.6749C13.7259 10.674 13.7874 10.6731 13.8508 10.6721C13.9504 10.6714 13.9504 10.6714 14.0519 10.6706C14.1205 10.67 14.1891 10.6694 14.2598 10.6688C14.4051 10.6679 14.5504 10.6671 14.6958 10.6666C14.9169 10.6654 15.138 10.6623 15.3591 10.6592C15.5005 10.6585 15.6419 10.6579 15.7833 10.6574C15.849 10.6562 15.9146 10.6549 15.9823 10.6537C16.3974 10.655 16.7486 10.7093 17.0855 10.9686C17.1727 11.1021 17.1727 11.1021 17.2393 11.2322C17.3133 11.3657 17.3133 11.3657 17.4371 11.4608C17.7477 11.52 18.0416 11.5273 18.3511 11.4608C18.4946 11.3158 18.5621 11.2447 18.5621 11.0389C18.6558 10.992 18.7496 10.9451 18.8433 10.8983C18.9303 10.8445 18.9303 10.8445 19.0191 10.7896C19.3496 10.6522 19.6396 10.6544 19.9941 10.6544C20.064 10.6538 20.1339 10.6533 20.2058 10.6527C20.3532 10.652 20.5006 10.6518 20.648 10.6521C20.8724 10.6522 21.0966 10.6492 21.321 10.6461C21.4647 10.6458 21.6083 10.6456 21.7519 10.6456C21.8517 10.6438 21.8517 10.6438 21.9535 10.6421C22.4182 10.6469 22.6943 10.7595 23.0621 11.0389C23.1317 11.0853 23.2013 11.1317 23.273 11.1795C23.4947 11.073 23.613 11.0145 23.7652 10.8279C23.8287 10.5148 23.8115 10.2099 23.796 9.89191C23.7926 9.7635 23.7926 9.7635 23.7892 9.6325C23.7834 9.42143 23.7753 9.21071 23.7652 8.99982C23.7183 8.98653 23.6714 8.97324 23.6231 8.95955C22.7731 8.71277 22.1458 8.35195 21.6767 7.57901C21.6466 7.53741 21.6165 7.49581 21.5855 7.45294C21.3537 7.45294 21.1977 7.62979 21.0186 7.76496ZM24.8902 11.6014C24.8902 12.2047 24.8902 12.8079 24.8902 13.4295C25.4763 13.2873 25.4763 13.2873 25.8746 12.9373C25.9885 12.7094 25.9843 12.4805 25.9449 12.2342C25.7063 11.8391 25.4675 11.7302 25.0308 11.6014C24.9844 11.6014 24.938 11.6014 24.8902 11.6014ZM10.0235 11.9266C9.85693 12.1798 9.83041 12.4263 9.84332 12.7264C9.96583 13.0507 10.1768 13.1949 10.4761 13.3592C10.6153 13.3824 10.7546 13.4056 10.898 13.4295C10.898 12.8262 10.898 12.2229 10.898 11.6014C10.5844 11.6014 10.2797 11.7558 10.0235 11.9266ZM13.5699 11.742C13.3916 12.0094 13.406 12.2277 13.4073 12.5374C13.4061 12.5899 13.405 12.6425 13.4038 12.6966C13.4035 13.0397 13.4538 13.2718 13.6402 13.5701C14.022 13.9161 14.441 13.8666 14.9278 13.869C15.0004 13.8704 15.0731 13.8719 15.1479 13.8734C15.5417 13.8754 15.8338 13.8679 16.1714 13.6404C16.4765 13.3143 16.4637 12.9832 16.4659 12.5506C16.4669 12.4585 16.4679 12.3664 16.4689 12.2715C16.4537 12.0384 16.4213 11.9392 16.3121 11.742C15.9241 11.7368 15.5362 11.733 15.1482 11.7304C15.0162 11.7294 14.8841 11.7279 14.7521 11.7261C14.5625 11.7235 14.373 11.7223 14.1835 11.7214C14.1242 11.7203 14.065 11.7192 14.0039 11.7181C13.8204 11.7156 13.8204 11.7156 13.5699 11.742ZM19.4058 11.8826C19.3704 12.1228 19.3765 12.3653 19.3751 12.6077C19.3727 12.6746 19.3704 12.7414 19.3681 12.8103C19.3655 13.1383 19.3649 13.3045 19.5659 13.5732C19.9929 13.8801 20.3179 13.875 20.834 13.8734C20.9416 13.8751 20.9416 13.8751 21.0514 13.8768C21.4667 13.8771 21.7945 13.8697 22.148 13.6404C22.379 13.2664 22.3897 12.9252 22.3809 12.4935C22.3811 12.4365 22.3814 12.3795 22.3816 12.3209C22.3917 11.9977 22.3917 11.9977 22.2183 11.742C22.0182 11.728 21.8252 11.7223 21.6251 11.7233C21.5369 11.7231 21.5369 11.7231 21.447 11.7229C21.3226 11.7228 21.1982 11.7231 21.0739 11.7237C20.8831 11.7244 20.6924 11.7237 20.5017 11.7228C20.381 11.7229 20.2604 11.7231 20.1397 11.7233C20.0824 11.723 20.0251 11.7228 19.9661 11.7225C19.6528 11.7121 19.6528 11.7121 19.4058 11.8826ZM12.023 12.1639C11.9922 14.2495 12.1185 16.0811 13.5699 17.7186C13.6071 17.7616 13.6444 17.8047 13.6828 17.849C14.6299 18.871 16.1225 19.5573 17.5074 19.617C17.5907 19.6224 17.5907 19.6224 17.6757 19.628C19.2234 19.6837 20.714 19.0841 21.8668 18.0701C21.9203 18.0233 21.9739 17.9764 22.0291 17.9281C23.0817 16.9449 23.7223 15.4912 23.7819 14.0543C23.7881 13.7653 23.7838 13.4767 23.7784 13.1878C23.7773 13.0876 23.7764 12.9874 23.7755 12.8872C23.7732 12.6461 23.7696 12.405 23.7652 12.1639C23.6226 12.2184 23.6226 12.2184 23.4839 12.3045C23.4445 12.5297 23.4445 12.5297 23.4488 12.7923C23.4274 13.3999 23.3297 13.9415 22.917 14.4095C22.3256 14.9155 21.6201 14.9492 20.8736 14.9368C20.7459 14.9376 20.7459 14.9376 20.6157 14.9383C19.8639 14.933 19.2545 14.8101 18.7027 14.2733C18.4076 13.8792 18.3452 13.5056 18.3116 13.0252C18.3057 12.9429 18.2998 12.8606 18.2937 12.7758C18.2895 12.7131 18.2852 12.6504 18.2808 12.5858C18.0488 12.5858 17.8168 12.5858 17.5777 12.5858C17.561 12.7054 17.561 12.7054 17.5439 12.8275C17.4223 13.6367 17.2903 14.1707 16.6114 14.6792C16.0843 14.9656 15.536 14.9295 14.9498 14.928C14.86 14.9292 14.7703 14.9303 14.6778 14.9315C14.0564 14.9318 13.4678 14.9059 12.9854 14.471C12.9422 14.4338 12.8989 14.3965 12.8544 14.3581C12.4485 13.8671 12.3969 13.3814 12.3652 12.7643C12.3611 12.707 12.3569 12.6497 12.3526 12.5907C12.3487 12.5132 12.3487 12.5132 12.3446 12.4342C12.3152 12.2895 12.3152 12.2895 12.1606 12.2163C12.1152 12.199 12.0698 12.1817 12.023 12.1639ZM19.6475 20.4564C19.215 20.5675 18.799 20.6549 18.3511 20.6717C18.2568 20.6759 18.2568 20.6759 18.1605 20.6802C17.4835 20.6956 16.7721 20.6429 16.1201 20.4558C15.8849 20.3776 15.8849 20.3776 15.6089 20.3904C15.5675 20.5804 15.5675 20.5804 15.6089 20.8123C15.7155 20.9484 15.8342 21.0587 15.9616 21.1754C16.0962 21.3 16.2148 21.429 16.334 21.5682C16.5923 21.8677 16.8586 22.1595 17.1256 22.4512C17.315 22.661 17.498 22.8756 17.6782 23.0934C17.7993 23.2135 17.9143 23.2759 18.0699 23.3436C18.3919 23.0291 18.7015 22.709 18.9952 22.368C19.1389 22.2021 19.2852 22.0388 19.4322 21.8758C19.4848 21.8168 19.5375 21.7578 19.5918 21.697C19.7049 21.573 19.8206 21.4513 19.9384 21.3317C20.304 20.9852 20.304 20.9852 20.4297 20.5223C20.4167 20.4556 20.4036 20.3889 20.3902 20.3201C20.1288 20.3201 19.898 20.3895 19.6475 20.4564ZM14.5455 22.0428C14.4815 22.0885 14.4175 22.1342 14.3516 22.1812C14.3024 22.2167 14.2533 22.2523 14.2027 22.2889C14.2489 22.3749 14.2489 22.3749 14.2961 22.4627C14.3411 22.5469 14.3862 22.631 14.4312 22.7152C14.4556 22.7607 14.48 22.8062 14.5051 22.8531C14.667 23.1562 14.8259 23.4607 14.983 23.7663C15.0204 23.8387 15.0577 23.9112 15.0962 23.9858C15.1708 24.1306 15.245 24.2755 15.3188 24.4205C15.3534 24.4875 15.3879 24.5545 15.4235 24.6235C15.4542 24.6834 15.4849 24.7433 15.5165 24.8051C15.6042 24.9529 15.6927 25.0573 15.8199 25.1717C15.9769 25.0623 16.1336 24.9523 16.2901 24.8421C16.3561 24.7962 16.3561 24.7962 16.4234 24.7494C16.6943 24.5579 16.9282 24.3585 17.1558 24.117C17.1209 24.0829 17.086 24.0488 17.0501 24.0137C16.7667 23.7341 16.4958 23.449 16.2363 23.1472C16.0155 22.8936 15.787 22.647 15.5601 22.399C15.431 22.2553 15.3076 22.1101 15.1871 21.9593C15.1407 21.9056 15.0943 21.852 15.0464 21.7967C14.8314 21.7967 14.7177 21.9191 14.5455 22.0428ZM20.7717 21.9769C20.6983 22.0571 20.6254 22.1377 20.5528 22.2186C20.4954 22.2817 20.4954 22.2817 20.4368 22.3461C20.204 22.6027 19.9746 22.8621 19.748 23.1241C19.4522 23.4602 19.1467 23.7878 18.8433 24.117C19.109 24.3989 19.3915 24.6213 19.709 24.8421C19.7544 24.8741 19.7998 24.906 19.8465 24.9389C19.9572 25.0168 20.0682 25.0943 20.1793 25.1717C20.4817 24.8368 20.6661 24.4455 20.8692 24.0467C20.9439 23.9016 21.0187 23.7564 21.0936 23.6114C21.1476 23.5064 21.1476 23.5064 21.2027 23.3993C21.3335 23.1464 21.4674 22.8952 21.6031 22.6448C21.6602 22.5395 21.6602 22.5395 21.7184 22.432C21.7442 22.3848 21.7699 22.3375 21.7964 22.2889C21.6825 22.2065 21.5681 22.1245 21.4537 22.0428C21.39 21.9971 21.3264 21.9514 21.2609 21.9044C21.0066 21.741 20.9912 21.7583 20.7717 21.9769ZM17.5074 25.3123C17.5535 25.5661 17.5535 25.5661 17.648 25.8045C17.88 25.8045 18.1121 25.8045 18.3511 25.8045C18.5058 25.5539 18.5058 25.5539 18.483 25.3782C18.4011 25.1969 18.3121 25.1293 18.1402 25.0311C17.8111 25.0311 17.745 25.1011 17.5074 25.3123ZM16.4527 26.0858C16.3873 26.269 16.3719 26.3418 16.4483 26.5252C16.4729 26.5658 16.4976 26.6064 16.523 26.6483C16.5694 26.6483 16.6158 26.6483 16.6636 26.6483C16.6457 26.4835 16.622 26.3193 16.5933 26.1561C16.5469 26.1329 16.5005 26.1097 16.4527 26.0858ZM19.4761 26.0858C19.3248 26.3127 19.3214 26.387 19.3355 26.6483C19.3819 26.6483 19.4283 26.6483 19.4761 26.6483C19.5766 26.4827 19.6228 26.4035 19.5904 26.2088C19.5759 26.1682 19.5614 26.1276 19.5464 26.0858C19.5232 26.0858 19.5 26.0858 19.4761 26.0858ZM17.7183 26.9295C17.657 27.0844 17.5972 27.2396 17.5381 27.3953C17.5047 27.4818 17.4713 27.5683 17.4368 27.6574C17.3091 28.125 17.457 28.4084 17.6876 28.8192C17.7326 28.9002 17.7776 28.9812 17.8241 29.0647C17.8588 29.1258 17.8935 29.1869 17.9293 29.2498C17.9757 29.2498 18.0221 29.2498 18.0699 29.2498C18.1668 29.0851 18.2616 28.9196 18.3555 28.7532C18.3829 28.7071 18.4104 28.6609 18.4386 28.6133C18.6232 28.2817 18.6607 28.0832 18.5621 27.7029C18.5178 27.5624 18.4697 27.423 18.417 27.2855C18.3916 27.2181 18.3661 27.1508 18.3399 27.0814C18.3204 27.0313 18.3009 26.9811 18.2808 26.9295C18.0952 26.9295 17.9096 26.9295 17.7183 26.9295Z" fill="#1F2646"/>
</g>
<defs>
<clipPath id="clip0_311_362">
<rect width="36" height="36" fill="white"/>
</clipPath>
</defs>
</svg>
