<svg width="36" height="36" viewBox="0 0 36 36" fill="none" xmlns="http://www.w3.org/2000/svg">
<g clip-path="url(#clip0_311_352)">
<path d="M2.91015 2.38125C2.96295 2.38109 3.01575 2.38092 3.07015 2.38075C3.24809 2.38028 3.42602 2.38031 3.60395 2.38034C3.73241 2.38011 3.86087 2.37985 3.98934 2.37956C4.34315 2.37886 4.69696 2.37859 5.05078 2.37841C5.43207 2.37813 5.81336 2.37746 6.19466 2.37685C7.11589 2.37546 8.03712 2.37475 8.95835 2.37412C9.39207 2.37381 9.8258 2.37344 10.2595 2.37307C11.7012 2.37187 13.1428 2.37085 14.5844 2.37034C14.9586 2.37021 15.3328 2.37008 15.707 2.36994C15.7535 2.36992 15.7999 2.3699 15.8478 2.36989C17.3079 2.36935 18.7679 2.36783 20.2279 2.36561C21.8682 2.36313 23.5084 2.36161 25.1487 2.36137C26.0172 2.36122 26.8857 2.3606 27.7541 2.35881C28.4937 2.35728 29.2333 2.35671 29.973 2.3574C30.3503 2.35772 30.7276 2.35758 31.1049 2.35622C31.4506 2.35498 31.7962 2.35505 32.1418 2.35614C32.2667 2.35631 32.3915 2.356 32.5163 2.35517C33.545 2.34872 34.4013 2.50509 35.1695 3.24186C35.6621 3.76991 36.0166 4.37936 36.0176 5.11873C36.0181 5.19894 36.0185 5.27915 36.019 5.36179C36.0188 5.44922 36.0186 5.53665 36.0183 5.62673C36.0186 5.7211 36.0189 5.81546 36.0193 5.90982C36.0201 6.16872 36.0201 6.42761 36.02 6.68651C36.0199 6.96591 36.0207 7.2453 36.0214 7.52469C36.0226 8.07196 36.0229 8.61922 36.023 9.1665C36.0231 9.61146 36.0234 10.0564 36.0238 10.5014C36.0251 11.7634 36.0257 13.0255 36.0256 14.2875C36.0256 14.3895 36.0256 14.3895 36.0256 14.4936C36.0256 14.5617 36.0256 14.6298 36.0256 14.7C36.0255 15.8034 36.0269 16.9068 36.0288 18.0102C36.0309 19.1437 36.0318 20.2771 36.0317 21.4105C36.0317 22.0467 36.032 22.6828 36.0336 23.319C36.0348 23.8607 36.0351 24.4024 36.0342 24.9441C36.0337 25.2203 36.0337 25.4965 36.0349 25.7728C36.036 26.026 36.0358 26.2793 36.0346 26.5325C36.0343 26.6667 36.0354 26.8009 36.0365 26.9351C36.0294 27.8174 35.7531 28.5371 35.1582 29.191C34.6589 29.6741 33.9649 30.0329 33.2565 30.032C33.2011 30.0321 33.1457 30.0321 33.0886 30.0322C32.9984 30.0319 32.9984 30.0319 32.9064 30.0315C32.8426 30.0315 32.7788 30.0315 32.713 30.0315C32.5022 30.0315 32.2915 30.0309 32.0807 30.0304C31.9345 30.0302 31.7883 30.0301 31.6421 30.0301C31.2574 30.0298 30.8727 30.0291 30.488 30.0283C30.0954 30.0276 29.7028 30.0273 29.3102 30.0269C28.54 30.0262 27.7698 30.025 26.9995 30.0235C27.0001 30.0643 27.0008 30.1051 27.0014 30.1471C27.0076 30.5714 27.0119 30.9956 27.015 31.42C27.0164 31.5783 27.0183 31.7367 27.0207 31.8951C27.0242 32.1227 27.0257 32.3502 27.027 32.5778C27.0284 32.6487 27.0299 32.7195 27.0314 32.7925C27.0315 33.2698 27.0315 33.2698 26.8967 33.5157C26.6224 33.6598 26.3876 33.6787 26.0855 33.6094C25.8843 33.4895 25.7362 33.3345 25.5776 33.1634C25.5333 33.1181 25.4889 33.0729 25.4432 33.0262C25.3027 32.8822 25.1646 32.7362 25.0264 32.5899C24.9312 32.4915 24.8358 32.3933 24.7403 32.2952C24.5073 32.0552 24.2763 31.8133 24.0464 31.5704C23.7423 31.8253 23.4517 32.0866 23.1727 32.3694C23.1394 32.4029 23.1061 32.4365 23.0718 32.4711C22.9673 32.5764 22.863 32.682 22.7588 32.7877C22.6201 32.9282 22.4812 33.0685 22.3421 33.2087C22.2812 33.2705 22.2203 33.3322 22.1575 33.3958C21.9262 33.6165 21.7629 33.6329 21.4429 33.63C21.3042 33.6094 21.3042 33.6094 21.1328 33.4776C20.9738 33.2613 20.9439 33.1457 20.9447 32.8811C20.9447 32.8178 20.9447 32.7545 20.9447 32.6892C20.945 32.6207 20.9454 32.5522 20.9458 32.4817C20.9459 32.3766 20.9459 32.3766 20.9461 32.2695C20.9465 32.0452 20.9474 31.821 20.9483 31.5967C20.9486 31.4449 20.9489 31.2932 20.9492 31.1414C20.95 30.7687 20.9512 30.3961 20.9526 30.0235C20.9138 30.0236 20.875 30.0237 20.835 30.0238C18.5328 30.0301 16.2306 30.0349 13.9283 30.0379C13.6517 30.0382 13.375 30.0386 13.0983 30.0389C13.0432 30.039 12.9881 30.0391 12.9314 30.0392C12.0405 30.0404 11.1497 30.0426 10.2589 30.0452C9.34421 30.0478 8.42954 30.0494 7.51485 30.05C6.95085 30.0503 6.38687 30.0516 5.82287 30.0539C5.38974 30.0555 4.95662 30.0557 4.52349 30.0553C4.34629 30.0554 4.16908 30.0559 3.99188 30.057C3.74922 30.0584 3.50662 30.0581 3.26396 30.0573C3.19447 30.0581 3.12497 30.059 3.05337 30.0598C2.20322 30.0526 1.45479 29.7571 0.832286 29.1798C0.31747 28.6419 -0.008551 27.992 -0.00991499 27.2424C-0.0102284 27.1625 -0.0105418 27.0826 -0.0108648 27.0002C-0.0108518 26.9124 -0.0108387 26.8246 -0.0108253 26.7341C-0.0110574 26.6398 -0.0113194 26.5456 -0.0116088 26.4513C-0.0123129 26.1921 -0.0125745 25.9329 -0.0127611 25.6737C-0.0130357 25.3942 -0.0137091 25.1147 -0.0143229 24.8352C-0.0157123 24.1601 -0.0164206 23.485 -0.0170462 22.8099C-0.0173544 22.4918 -0.0177317 22.1738 -0.0181 21.8558C-0.0192962 20.7985 -0.0203151 19.7412 -0.0208243 18.6839C-0.0209586 18.4096 -0.0210937 18.1352 -0.0212312 17.8609C-0.0212652 17.7927 -0.0212995 17.7245 -0.0213345 17.6542C-0.021918 16.5499 -0.0236991 15.4456 -0.025983 14.3413C-0.0283093 13.2072 -0.029575 12.0731 -0.0297996 10.9391C-0.0299517 10.3025 -0.0305655 9.66584 -0.0323632 9.02922C-0.0338909 8.48698 -0.0344547 7.94475 -0.0337716 7.4025C-0.0334525 7.126 -0.0335831 6.84951 -0.0349502 6.57301C-0.0361929 6.31947 -0.0361174 6.06597 -0.0350277 5.81244C-0.0347826 5.67811 -0.0359151 5.54379 -0.0371094 5.40947C-0.0301738 4.47591 0.265334 3.83819 0.902599 3.16852C1.46842 2.63053 2.13971 2.37962 2.91015 2.38125ZM1.65626 4.24958C1.6114 4.30169 1.56653 4.35381 1.52031 4.40751C1.31266 4.70278 1.24759 4.95591 1.24686 5.31463C1.24637 5.39327 1.24587 5.47191 1.24536 5.55294C1.24553 5.63898 1.2457 5.72502 1.24587 5.81367C1.2455 5.90536 1.24513 5.99704 1.24476 6.0915C1.24376 6.34589 1.24364 6.60027 1.24367 6.85466C1.24356 7.12906 1.24264 7.40347 1.24183 7.67787C1.24022 8.27786 1.23967 8.87785 1.23931 9.47784C1.23908 9.85256 1.23862 10.2273 1.23812 10.602C1.23674 11.6398 1.23559 12.6775 1.23538 13.7153C1.23537 13.7817 1.23536 13.8481 1.23534 13.9165C1.23532 14.0511 1.23529 14.1858 1.23527 14.3204C1.23525 14.3872 1.23524 14.454 1.23523 14.5229C1.23521 14.5898 1.2352 14.6567 1.23519 14.7256C1.23494 15.8095 1.23304 16.8934 1.23041 17.9773C1.22773 19.0905 1.22637 20.2037 1.22635 21.3168C1.22631 21.9417 1.22571 22.5666 1.22368 23.1914C1.22195 23.7236 1.22144 24.2557 1.2225 24.7878C1.223 25.0592 1.22295 25.3305 1.22135 25.6019C1.21963 25.8965 1.22065 26.191 1.22192 26.4856C1.221 26.5708 1.22007 26.6561 1.21911 26.7439C1.22492 27.3312 1.33548 27.8137 1.73808 28.2594C2.22628 28.7292 2.78609 28.789 3.43307 28.7832C3.5082 28.7834 3.58333 28.7836 3.66074 28.7838C3.91165 28.7841 4.16252 28.783 4.41342 28.7818C4.59361 28.7818 4.7738 28.7818 4.95399 28.7819C5.34149 28.782 5.72898 28.7814 6.11648 28.7802C6.67673 28.7785 7.23698 28.7779 7.79723 28.7776C8.7063 28.7772 9.61536 28.7758 10.5244 28.7738C11.4073 28.7719 12.2901 28.7704 13.173 28.7695C13.2546 28.7694 13.2546 28.7694 13.338 28.7693C13.6112 28.769 13.8844 28.7688 14.1576 28.7685C16.4226 28.7663 18.6876 28.7626 20.9526 28.7579C20.9576 27.4566 20.9613 26.1554 20.9636 24.8541C20.9647 24.2499 20.9661 23.6457 20.9686 23.0414C20.9707 22.5147 20.972 21.9879 20.9725 21.4612C20.9728 21.1823 20.9734 20.9036 20.9749 20.6247C20.9764 20.362 20.9768 20.0994 20.9765 19.8366C20.9766 19.6948 20.9777 19.5531 20.9789 19.4113C20.9773 18.9341 20.9427 18.5747 20.7417 18.1407C20.7229 18.074 20.704 18.0073 20.6846 17.9385C20.611 17.7711 20.611 17.7711 20.4165 17.71C20.299 17.6796 20.299 17.6796 20.1792 17.6485C19.3832 17.3699 19.3832 17.3699 19.2608 17.1827C19.239 17.1276 19.2172 17.0725 19.1948 17.0157C19.1766 16.9749 19.1584 16.9341 19.1396 16.8921C18.9607 16.4676 18.9315 16.1176 19.0366 15.6622C19.0763 15.4655 19.0763 15.4655 18.9487 15.3282C18.8499 15.2491 18.751 15.1701 18.6518 15.0914C18.6091 15.0564 18.5665 15.0215 18.5225 14.9854C18.4614 14.9378 18.4614 14.9378 18.3992 14.8893C18.0355 14.5096 18.0307 14.0986 18.0391 13.5998C18.0765 13.3072 18.1687 13.1418 18.342 12.9093C18.4347 12.7937 18.4347 12.7937 18.4609 12.6124C18.4055 12.3782 18.2794 12.2176 18.1401 12.0235C17.9904 11.5742 17.9857 11.011 18.1885 10.5777C18.3242 10.3497 18.4825 10.2051 18.7026 10.0548C18.7679 10.0025 18.8332 9.95034 18.9004 9.89655C18.9512 9.85595 19.0019 9.81534 19.0542 9.7735C19.0426 9.71695 19.031 9.66039 19.0191 9.60212C18.9393 9.03376 18.9495 8.58463 19.2651 8.086C19.5537 7.76895 19.8741 7.59999 20.2935 7.54108C20.459 7.51025 20.459 7.51025 20.6011 7.45319C20.7101 7.26714 20.7101 7.26714 20.7417 7.03132C20.886 6.55151 21.067 6.20326 21.4976 5.9195C21.9053 5.77051 22.2706 5.74545 22.6973 5.81843C22.8514 5.84365 22.8514 5.84365 22.9917 5.836C23.1644 5.6919 23.1644 5.6919 23.273 5.48444C23.5001 5.1518 23.7326 4.96822 24.1167 4.85163C24.6583 4.77957 25.0625 4.84361 25.523 5.13288C25.6899 5.25255 25.6899 5.25255 25.8745 5.2735C26.0294 5.19819 26.1653 5.11035 26.3057 5.01066C26.6415 4.78379 27.0332 4.81672 27.4214 4.85163C27.8637 4.95 28.068 5.13451 28.3179 5.50641C28.4473 5.69806 28.4473 5.69806 28.6167 5.836C28.8602 5.86138 29.0654 5.83225 29.3067 5.79343C29.7265 5.74146 30.0688 5.88831 30.4009 6.13923C30.6867 6.43184 30.7875 6.68201 30.8403 7.07966C30.8667 7.24351 30.8667 7.24351 30.937 7.38288C31.0882 7.4732 31.2268 7.51025 31.3976 7.55179C31.8275 7.65669 32.1787 7.84378 32.4136 8.22663C32.6264 8.66332 32.7007 9.04854 32.5454 9.52302C32.5252 9.77736 32.5252 9.77736 32.6962 9.90973C32.8236 10.0052 32.9514 10.1 33.0796 10.1943C33.3349 10.3979 33.4637 10.5806 33.5386 10.8985C33.6033 11.5188 33.5444 11.9229 33.187 12.4366C33.0934 12.646 33.0934 12.646 33.1793 12.8005C33.2421 12.8991 33.308 12.9958 33.3771 13.09C33.6203 13.4335 33.5747 13.8723 33.5386 14.2735C33.4177 14.6962 33.1836 14.9337 32.8355 15.1876C32.7841 15.2159 32.7327 15.2443 32.6797 15.2735C32.5296 15.3941 32.5296 15.3941 32.5495 15.6122C32.5612 15.6954 32.5729 15.7786 32.585 15.8643C32.6345 16.3763 32.6303 16.745 32.3013 17.156C31.9798 17.4735 31.6761 17.568 31.2433 17.6683C31.0647 17.7078 31.0647 17.7078 30.937 17.8682C30.9138 17.9349 30.8906 18.0016 30.8667 18.0704C30.8495 18.1128 30.8324 18.1553 30.8147 18.199C30.643 18.6513 30.626 19.0637 30.6287 19.544C30.6283 19.6258 30.628 19.7076 30.6276 19.7919C30.6269 19.9686 30.6267 20.1453 30.6269 20.3219C30.6272 20.6015 30.6263 20.881 30.6249 21.1606C30.622 21.804 30.6212 22.4474 30.6204 23.0908C30.6197 23.6817 30.6185 24.2725 30.6156 24.8634C30.6141 25.1858 30.6143 25.5082 30.6147 25.8307C30.614 25.9992 30.6133 26.1677 30.6125 26.3363C30.6132 26.4512 30.6132 26.4512 30.6138 26.5685C30.6085 27.2223 30.6085 27.2223 30.3745 27.4923C30.1453 27.6069 29.9964 27.5954 29.7417 27.5626C29.2312 27.2138 28.8056 26.7049 28.3706 26.2662C28.2987 26.1939 28.2267 26.1216 28.1547 26.0493C27.9804 25.8742 27.8063 25.6989 27.6323 25.5235C27.5532 25.5908 27.4741 25.6582 27.395 25.7256C27.351 25.7632 27.3069 25.8007 27.2615 25.8394C27.1712 25.9183 27.0843 26.0012 26.9995 26.086C26.9872 26.2877 26.9833 26.4826 26.9858 26.6842C26.986 26.7433 26.9862 26.8024 26.9864 26.8633C26.9872 27.0525 26.9889 27.2416 26.9907 27.4307C26.9914 27.5588 26.9921 27.6869 26.9927 27.815C26.9942 28.1293 26.9966 28.4436 26.9995 28.7579C27.8125 28.7644 28.6254 28.7694 29.4383 28.7724C29.8159 28.7739 30.1934 28.7759 30.5709 28.7791C30.9357 28.7822 31.3004 28.7838 31.6651 28.7846C31.8039 28.7851 31.9426 28.7861 32.0814 28.7876C33.207 28.8188 33.207 28.8188 34.1997 28.3434C34.2531 28.2767 34.2531 28.2767 34.3076 28.2086C34.3445 28.1646 34.3814 28.1206 34.4194 28.0753C34.754 27.5544 34.7642 27.1219 34.7612 26.5124C34.7615 26.4204 34.7619 26.3285 34.7623 26.2339C34.7633 25.9795 34.763 25.7252 34.7625 25.4708C34.7622 25.1962 34.7631 24.9217 34.7638 24.6471C34.765 24.1094 34.765 23.5718 34.7647 23.0341C34.7644 22.5971 34.7645 22.1601 34.7649 21.723C34.7649 21.6608 34.765 21.5986 34.765 21.5345C34.7651 21.4081 34.7652 21.2817 34.7653 21.1553C34.7663 19.9702 34.7659 18.7851 34.7651 17.6001C34.7644 16.5161 34.7653 15.4321 34.767 14.3481C34.7687 13.2347 34.7694 12.1214 34.7689 11.0081C34.7687 10.3832 34.7689 9.75822 34.7701 9.13328C34.7711 8.6013 34.7712 8.06934 34.7699 7.53736C34.7693 7.26601 34.7692 6.99467 34.7703 6.72332C34.7714 6.42901 34.7704 6.13476 34.7691 5.84046C34.7698 5.75489 34.7705 5.66931 34.7712 5.58115C34.7662 5.00875 34.6877 4.62865 34.3016 4.18641C34.2499 4.14199 34.1983 4.09758 34.145 4.05182C34.0937 4.00632 34.0424 3.96082 33.9896 3.91395C33.6376 3.6713 33.2843 3.63572 32.8669 3.63823C32.8146 3.63798 32.7623 3.63773 32.7084 3.63748C32.533 3.63683 32.3577 3.63717 32.1823 3.63751C32.0554 3.63725 31.9284 3.63693 31.8015 3.63655C31.4525 3.63569 31.1036 3.63571 30.7546 3.63587C30.3783 3.6359 30.002 3.63512 29.6257 3.63446C28.8884 3.63329 28.1511 3.6329 27.4138 3.63282C26.8146 3.63276 26.2154 3.63247 25.6162 3.63202C23.9176 3.63078 22.2191 3.63014 20.5206 3.63024C20.429 3.63025 20.3374 3.63025 20.2431 3.63026C20.1514 3.63026 20.0597 3.63027 19.9652 3.63028C18.4788 3.63033 16.9925 3.62899 15.5062 3.627C13.9804 3.62499 12.4546 3.62401 10.9288 3.62413C10.0721 3.62418 9.21532 3.62379 8.35855 3.62228C7.62913 3.621 6.89972 3.62069 6.17029 3.62165C5.79811 3.62211 5.42594 3.62212 5.05376 3.6209C4.71299 3.61979 4.37223 3.61999 4.03146 3.62122C3.90825 3.62143 3.78503 3.62118 3.66183 3.62039C2.53995 3.6135 2.53995 3.6135 1.65626 4.24958ZM24.398 6.04694C24.2707 6.17644 24.2707 6.17644 24.1607 6.34577C23.8964 6.70565 23.6543 6.94379 23.2026 7.03132C23.0856 7.03769 22.9683 7.04046 22.8511 7.04011C22.7619 7.04038 22.7619 7.04038 22.6709 7.04065C22.4995 7.03132 22.4995 7.03132 22.3463 6.98929C22.304 6.97996 22.2618 6.97062 22.2183 6.961C21.9462 7.14505 21.9021 7.34669 21.8349 7.65781C21.7489 7.98627 21.5919 8.22955 21.335 8.45514C21.058 8.59613 20.7897 8.66906 20.4879 8.73914C20.3087 8.77791 20.3087 8.77791 20.1792 8.92975C20.186 9.14739 20.186 9.14739 20.2188 9.39557C20.2662 9.9544 20.205 10.2427 19.876 10.7051C19.687 10.8985 19.687 10.8985 19.4541 11.0435C19.2541 11.1587 19.2541 11.1587 19.2168 11.338C19.2662 11.5356 19.3219 11.6131 19.4409 11.773C19.7052 12.1672 19.6803 12.6215 19.6167 13.0782C19.5169 13.3084 19.4043 13.5023 19.2651 13.711C19.2641 13.8897 19.2641 13.8897 19.3355 14.0626C19.4707 14.1855 19.4707 14.1855 19.6387 14.2867C20.0019 14.5522 20.1458 14.824 20.2495 15.2579C20.2726 15.5303 20.2505 15.745 20.2012 16.0137C20.1542 16.2353 20.1542 16.2353 20.2644 16.3579C20.4116 16.4694 20.5118 16.4912 20.6934 16.5191C21.1594 16.6114 21.4584 16.8346 21.7261 17.2266C21.8677 17.5176 21.9329 17.8271 22.0073 18.1407C22.2405 18.2084 22.418 18.2059 22.6533 18.1671C23.1082 18.1086 23.5067 18.2346 23.8926 18.4747C24.0577 18.6445 24.1856 18.8211 24.3128 19.0204C24.4 19.1467 24.4 19.1467 24.6089 19.1954C24.7505 19.1291 24.7505 19.1291 24.8901 19.0284C25.3191 18.7375 25.7165 18.7251 26.2261 18.7735C26.432 18.8435 26.6047 18.9403 26.7886 19.0548C26.8819 19.1024 26.9756 19.1495 27.0698 19.1954C27.2601 19.0105 27.4291 18.834 27.5928 18.6241C27.9191 18.258 28.2467 18.1807 28.7189 18.1443C28.9733 18.1392 29.2096 18.1692 29.4605 18.211C29.659 17.9944 29.7068 17.7919 29.7708 17.5095C29.8798 17.1331 30.1288 16.88 30.4448 16.6641C30.6484 16.5677 30.8356 16.5142 31.0557 16.462C31.2896 16.4058 31.2896 16.4058 31.3941 16.251C31.4358 16.0735 31.4075 15.9955 31.3589 15.8204C31.318 15.3463 31.4057 14.9718 31.6401 14.5548C31.7721 14.4066 31.8958 14.3175 32.062 14.2032C32.1171 14.1611 32.1722 14.1191 32.229 14.0757C32.2667 14.0482 32.3044 14.0206 32.3433 13.9923C32.3138 13.7567 32.2455 13.5821 32.1323 13.377C31.9139 12.9505 31.8667 12.5672 32.0093 12.107C32.0932 11.8838 32.2005 11.7217 32.3433 11.5313C32.373 11.3593 32.373 11.3593 32.3433 11.1798C32.2317 11.0588 32.2317 11.0588 32.0796 10.9688C31.6956 10.7028 31.4662 10.4493 31.3589 9.98444C31.3392 9.69846 31.3419 9.43005 31.4028 9.14948C31.4506 8.9795 31.4506 8.9795 31.2886 8.78913C31.0632 8.70827 30.8353 8.65042 30.6039 8.58945C30.312 8.48562 30.1101 8.3519 29.932 8.09589C29.8158 7.85018 29.7272 7.62326 29.6714 7.35651C29.6273 7.10227 29.6273 7.10227 29.4692 6.99177C29.2963 6.95616 29.2084 6.9884 29.0386 7.03132C28.558 7.08117 28.1683 7.04192 27.773 6.75007C27.5533 6.53531 27.3805 6.30204 27.2105 6.04694C26.9781 6.0751 26.8106 6.13845 26.6128 6.25788C26.2581 6.46884 25.9344 6.49671 25.523 6.46882C25.1945 6.37962 24.9504 6.25037 24.6792 6.04694C24.5864 6.04694 24.4936 6.04694 24.398 6.04694ZM22.2183 19.4766C22.2183 23.4212 22.2183 27.3657 22.2183 31.4298C22.5975 31.1114 22.5975 31.1114 22.9387 30.7692C22.9758 30.7296 23.0129 30.6901 23.0512 30.6493C23.1264 30.5684 23.2007 30.4867 23.2742 30.4043C23.47 30.1984 23.6244 30.0677 23.9082 30.0139C24.4678 30.0332 24.7904 30.47 25.1582 30.8497C25.2523 30.9461 25.3465 31.0425 25.4408 31.1386C25.482 31.181 25.5231 31.2234 25.5655 31.2671C25.6497 31.3675 25.6497 31.3675 25.7339 31.3594C25.7339 30.0601 25.7339 28.7607 25.7339 27.4219C25.5947 27.4915 25.5947 27.4915 25.4526 27.5626C25.1926 27.5858 25.0243 27.5978 24.7935 27.4703C24.5381 27.2051 24.5967 26.8481 24.5945 26.5036C24.5938 26.4384 24.5931 26.3732 24.5924 26.306C24.5901 26.0903 24.5884 25.8746 24.5867 25.6589C24.5852 25.5094 24.5837 25.36 24.5822 25.2105C24.5783 24.8169 24.5749 24.4233 24.5715 24.0298C24.5679 23.6282 24.564 23.2267 24.5601 22.8251C24.5526 22.0371 24.5454 21.249 24.5386 20.461C24.49 20.4471 24.4413 20.4332 24.3913 20.4189C24.3277 20.4004 24.2641 20.3819 24.1985 20.3628C24.1354 20.3445 24.0723 20.3263 24.0073 20.3075C23.8078 20.2408 23.6757 20.1575 23.5234 20.0128C23.4783 19.97 23.4332 19.9272 23.3867 19.8831C23.2535 19.7364 23.1585 19.5789 23.062 19.4063C22.7848 19.2938 22.7848 19.2938 22.2183 19.4766ZM28.687 19.336C28.4776 19.4692 28.4776 19.4692 28.3355 19.6876C28.0085 20.1067 27.7525 20.3041 27.2236 20.3819C26.7364 20.4186 26.3194 20.2834 25.9448 19.9688C25.8984 19.9688 25.852 19.9688 25.8042 19.9688C25.8042 21.7787 25.8042 23.5885 25.8042 25.4532C26.1838 25.132 26.1838 25.132 26.5395 24.7926C26.5785 24.7531 26.6175 24.7135 26.6577 24.6727C26.6965 24.633 26.7354 24.5933 26.7754 24.5523C27.2545 24.0624 27.2545 24.0624 27.5708 24.0118C27.9677 24.063 28.1307 24.261 28.4058 24.5391C28.4846 24.6179 28.5634 24.6966 28.6423 24.7753C28.7678 24.9007 28.893 25.0263 29.0172 25.153C29.1168 25.2543 29.2182 25.3539 29.3198 25.4532C29.343 25.4532 29.3662 25.4532 29.3901 25.4532C29.3901 23.4809 29.3901 21.5087 29.3901 19.4766C29.1581 19.4302 28.9261 19.3838 28.687 19.336Z" fill="#1F2646"/>
<path d="M7.23376 7.15048C7.34688 7.14995 7.46 7.14935 7.57312 7.14871C7.87905 7.14717 8.18497 7.14655 8.4909 7.14619C8.68214 7.14593 8.87337 7.1455 9.0646 7.145C9.73199 7.14328 10.3994 7.14236 11.0668 7.14211C11.6886 7.14185 12.3105 7.13974 12.9324 7.1368C13.4668 7.13437 14.0013 7.13328 14.5357 7.13323C14.8547 7.13317 15.1737 7.13256 15.4927 7.13056C15.7924 7.12872 16.0921 7.12856 16.3918 7.12969C16.5017 7.12982 16.6117 7.12935 16.7216 7.12823C16.8718 7.12679 17.0218 7.12753 17.1719 7.1288C17.2559 7.12866 17.3399 7.12852 17.4264 7.12838C17.7128 7.18475 17.8179 7.30057 17.9998 7.52359C18.0729 7.78213 18.0353 8.02009 17.9075 8.25748C17.6747 8.47298 17.4284 8.44656 17.127 8.44688C17.0581 8.44711 17.0581 8.44711 16.9877 8.44734C16.8334 8.44776 16.6791 8.44769 16.5248 8.44763C16.4143 8.44784 16.3037 8.44809 16.1932 8.44837C15.955 8.44892 15.7167 8.44928 15.4785 8.44951C15.1014 8.44993 14.7243 8.45109 14.3473 8.45242C14.2181 8.45286 14.089 8.45331 13.9599 8.45375C13.8952 8.45398 13.8305 8.4542 13.7639 8.45443C12.886 8.45738 12.0082 8.4597 11.1303 8.46057C10.5382 8.46116 9.94614 8.46274 9.35407 8.46545C9.04088 8.46683 8.72771 8.46771 8.41451 8.46736C8.11959 8.46703 7.8247 8.468 7.52979 8.46996C7.42189 8.47044 7.31398 8.47045 7.20608 8.46994C6.62764 8.46748 6.13222 8.48324 5.62476 8.78921C5.52905 8.84577 5.52905 8.84577 5.4314 8.90347C4.84987 9.51731 4.87179 10.2255 4.87838 11.0192C4.87813 11.1445 4.87773 11.2697 4.8772 11.395C4.8762 11.7335 4.87739 12.0719 4.87904 12.4104C4.88046 12.7654 4.88004 13.1204 4.87988 13.4755C4.87988 14.0714 4.88127 14.6673 4.88353 15.2631C4.88612 15.9513 4.88674 16.6395 4.88625 17.3277C4.88581 17.9909 4.88656 18.6541 4.88793 19.3173C4.88851 19.5991 4.8887 19.8808 4.88859 20.1626C4.88853 20.4944 4.88953 20.8262 4.89135 21.1581C4.89185 21.2796 4.892 21.4012 4.89176 21.5227C4.8915 21.6891 4.89254 21.8554 4.8939 22.0217C4.89353 22.0694 4.89316 22.1171 4.89277 22.1662C4.89976 22.6632 5.05402 23.1342 5.41382 23.4845C5.88995 23.7946 6.2443 23.9151 6.8136 23.9156C6.86246 23.9158 6.91131 23.9159 6.96164 23.9161C7.1253 23.9165 7.28895 23.9164 7.45261 23.9164C7.56996 23.9166 7.68731 23.9168 7.80466 23.9171C8.05734 23.9177 8.31002 23.918 8.5627 23.9183C8.96212 23.9187 9.36154 23.9198 9.76096 23.9212C9.89769 23.9216 10.0344 23.9221 10.1711 23.9225C10.2738 23.9228 10.2738 23.9228 10.3786 23.9232C11.3085 23.9261 12.2384 23.9285 13.1683 23.9293C13.7956 23.9299 14.4229 23.9315 15.0502 23.9342C15.3822 23.9356 15.7142 23.9365 16.0462 23.9361C16.3583 23.9358 16.6704 23.9367 16.9825 23.9387C17.0971 23.9392 17.2118 23.9392 17.3264 23.9387C17.4827 23.9381 17.639 23.9392 17.7953 23.9407C17.9266 23.9409 17.9266 23.9409 18.0605 23.9412C18.3217 23.9833 18.402 24.0522 18.5623 24.258C18.6626 24.4586 18.6544 24.5979 18.6326 24.8205C18.506 25.0103 18.4157 25.1398 18.2107 25.2423C18.0551 25.2496 17.8993 25.2521 17.7435 25.2527C17.6706 25.2531 17.6706 25.2531 17.5963 25.2535C17.4327 25.2542 17.2691 25.2545 17.1055 25.2548C16.9885 25.2552 16.8715 25.2557 16.7545 25.2562C16.3694 25.2577 15.9842 25.2584 15.599 25.2591C15.4663 25.2594 15.3336 25.2597 15.2009 25.26C14.5769 25.2613 13.9529 25.2623 13.3289 25.2629C12.6097 25.2636 11.8905 25.2654 11.1713 25.2683C10.615 25.2704 10.0586 25.2714 9.50225 25.2717C9.17026 25.2718 8.83828 25.2724 8.5063 25.2742C8.19332 25.2759 7.88037 25.2762 7.56739 25.2754C7.45314 25.2754 7.33889 25.2758 7.22465 25.2768C6.30443 25.2842 5.47078 25.1691 4.7107 24.6095C4.65124 24.5704 4.59178 24.5312 4.53052 24.4909C3.92296 23.9145 3.58699 23.1809 3.55355 22.3441C3.548 22.0593 3.54873 21.7747 3.55042 21.4898C3.55016 21.3613 3.54977 21.2327 3.54927 21.1042C3.5483 20.7575 3.54907 20.4107 3.55024 20.064C3.55121 19.6999 3.55075 19.3359 3.55051 18.9718C3.55032 18.3608 3.55126 17.7498 3.55289 17.1388C3.55477 16.4336 3.55489 15.7284 3.55406 15.0232C3.5533 14.343 3.55374 13.6628 3.55473 12.9826C3.55514 12.6939 3.55513 12.4052 3.5548 12.1166C3.55446 11.7764 3.55518 11.4362 3.5567 11.0961C3.55708 10.9716 3.55712 10.8472 3.55677 10.7228C3.55415 9.66355 3.68191 8.82501 4.42121 8.01056C5.24295 7.24371 6.16048 7.15081 7.23376 7.15048Z" fill="#1F2646"/>
<path d="M29.0727 8.96975C30.0823 9.94191 30.6208 11.1541 30.6742 12.551C30.6561 13.8589 30.1719 15.1007 29.268 16.0491C28.2815 16.9908 27.0237 17.4809 25.6618 17.4621C24.4783 17.4192 23.3796 16.9672 22.5004 16.1721C22.4575 16.1349 22.4146 16.0976 22.3705 16.0592C21.4689 15.225 21.0291 14.0271 20.9335 12.8268C20.8977 11.4402 21.3886 10.1679 22.332 9.15515C24.2032 7.37305 27.1117 7.26217 29.0727 8.96975ZM23.0761 10.2483C22.5131 10.9395 22.1649 11.8569 22.1994 12.7532C22.3113 13.7983 22.7206 14.6073 23.4848 15.3284C24.2883 15.9737 25.2025 16.2532 26.227 16.1721C27.2239 16.02 28.068 15.518 28.6906 14.7236C29.2447 13.9054 29.482 12.9962 29.3427 12.0149C29.1505 11.0491 28.6779 10.2779 27.8851 9.68359C26.31 8.63516 24.378 8.88097 23.0761 10.2483Z" fill="#1F2646"/>
<path d="M9.42188 19.1955C9.70046 19.3879 9.82027 19.6309 9.97119 19.925C10.1703 20.3037 10.3931 20.5833 10.7578 20.8127C10.9898 20.8852 10.9898 20.8852 11.1797 20.883C11.1956 20.796 11.2116 20.709 11.228 20.6194C11.2833 20.4049 11.3239 20.3162 11.4697 20.1404C11.7088 20.0208 11.8452 20.0141 12.1042 20.0621C12.3137 20.1385 12.3954 20.2788 12.5156 20.4612C12.8204 20.8476 13.1501 20.9248 13.6099 21.0324C13.6827 21.0503 13.7555 21.0682 13.8305 21.0867C14.5085 21.2434 15.1908 21.3176 15.8842 21.3673C16.0032 21.3769 16.0032 21.3769 16.1246 21.3868C16.1949 21.3914 16.2652 21.3961 16.3376 21.4009C16.5683 21.4563 16.6575 21.5438 16.8047 21.7268C16.8563 21.9422 16.845 22.1423 16.8047 22.3596C16.6501 22.5728 16.5621 22.6279 16.3125 22.7112C14.9542 22.7705 13.4873 22.4859 12.2234 21.9915C12.033 21.92 12.033 21.92 11.8889 21.9855C11.8293 22.0271 11.8293 22.0271 11.7686 22.0696C11.3948 22.2785 11.0353 22.2811 10.6172 22.219C10.1394 22.0572 9.73989 21.7612 9.35156 21.4455C9.31993 21.4855 9.2883 21.5255 9.25571 21.5667C8.77203 22.1473 8.12049 22.6398 7.38281 22.8518C7.09765 22.8518 6.95536 22.8275 6.72363 22.6628C6.58028 22.4588 6.54415 22.3276 6.53906 22.0783C6.695 21.7058 6.96216 21.59 7.30563 21.4074C7.75474 21.164 8.15204 20.9418 8.36719 20.4612C8.41682 20.2458 8.44967 20.0364 8.47128 19.8165C8.51254 19.5916 8.58623 19.451 8.71875 19.2658C8.94625 19.1521 9.17589 19.156 9.42188 19.1955Z" fill="#1F2646"/>
<path d="M7.38754 10.7476C7.49814 10.7468 7.49814 10.7468 7.61097 10.7461C7.73228 10.7458 7.73228 10.7458 7.85605 10.7455C7.94124 10.745 8.02643 10.7446 8.1142 10.7441C8.3967 10.7427 8.67921 10.7419 8.96172 10.7412C9.05902 10.7409 9.15633 10.7406 9.25364 10.7403C9.71071 10.739 10.1678 10.738 10.6249 10.7374C11.1524 10.7367 11.6798 10.7349 12.2073 10.732C12.6152 10.7299 13.023 10.7289 13.4309 10.7286C13.6744 10.7285 13.918 10.7278 14.1615 10.7261C14.4332 10.7241 14.7049 10.7244 14.9766 10.7249C15.0571 10.724 15.1377 10.7231 15.2208 10.7222C15.7661 10.7258 15.7661 10.7258 16.044 10.8918C16.1943 11.0655 16.2371 11.1452 16.2682 11.3732C16.2403 11.6151 16.1816 11.7515 16.0199 11.9342C15.7347 12.1308 15.3694 12.0803 15.0362 12.0759C14.9496 12.0764 14.863 12.077 14.7738 12.0775C14.5368 12.0784 14.3 12.0775 14.063 12.0756C13.8148 12.074 13.5666 12.0746 13.3183 12.0749C12.9015 12.075 12.4847 12.0734 12.0679 12.0708C11.5863 12.0679 11.1048 12.0674 10.6232 12.0682C10.1595 12.0691 9.69582 12.0683 9.23213 12.0667C9.03499 12.066 8.83786 12.0659 8.64072 12.0662C8.36533 12.0665 8.08999 12.0645 7.81461 12.0622C7.73292 12.0625 7.65124 12.0629 7.56708 12.0632C7.01726 12.056 7.01726 12.056 6.73607 11.8954C6.55514 11.6775 6.53383 11.5317 6.53868 11.2501C6.75722 10.8287 6.9297 10.7497 7.38754 10.7476Z" fill="#1F2646"/>
<path d="M7.39322 13.1301C7.46646 13.1296 7.5397 13.1291 7.61516 13.1286C7.69512 13.1287 7.77509 13.1289 7.85747 13.1291C7.94199 13.1287 8.0265 13.1284 8.11358 13.128C8.34515 13.1272 8.57671 13.127 8.80828 13.1272C9.00171 13.1273 9.19514 13.1269 9.38856 13.1266C9.84495 13.1258 10.3013 13.1258 10.7577 13.1262C11.2283 13.1266 11.6989 13.1258 12.1694 13.1243C12.5737 13.123 12.978 13.1226 13.3822 13.1228C13.6236 13.123 13.8649 13.1228 14.1063 13.1218C14.3754 13.1208 14.6446 13.1214 14.9137 13.1222C14.9935 13.1217 15.0734 13.1212 15.1556 13.1206C15.2658 13.1213 15.2658 13.1213 15.3781 13.1221C15.4417 13.1221 15.5053 13.1221 15.5709 13.1221C15.7911 13.1545 15.9216 13.2292 16.1011 13.3593C16.2646 13.6046 16.2652 13.704 16.2417 13.9922C16.1568 14.2272 16.1067 14.2697 15.8901 14.414C15.7244 14.4321 15.7244 14.4321 15.525 14.4328C15.4494 14.4334 15.3738 14.434 15.2959 14.4347C15.2129 14.4346 15.13 14.4345 15.0445 14.4345C14.9571 14.4349 14.8698 14.4354 14.7798 14.4359C14.5401 14.437 14.3004 14.4375 14.0607 14.4376C13.8606 14.4377 13.6605 14.4382 13.4604 14.4387C12.9884 14.4399 12.5165 14.4402 12.0445 14.4401C11.5575 14.44 11.0705 14.4415 10.5835 14.4437C10.1654 14.4456 9.74739 14.4463 9.32932 14.4462C9.07961 14.4462 8.82991 14.4466 8.5802 14.4481C8.30176 14.4497 8.02334 14.449 7.7449 14.4482C7.62068 14.4494 7.62068 14.4494 7.49395 14.4506C7.41814 14.45 7.34233 14.4494 7.26422 14.4488C7.16547 14.4489 7.16547 14.4489 7.06472 14.449C6.83599 14.4032 6.75317 14.3124 6.60889 14.1328C6.52248 13.8678 6.52591 13.7456 6.62208 13.4824C6.82789 13.1701 7.03059 13.1309 7.39322 13.1301Z" fill="#1F2646"/>
<path d="M7.46701 15.5207C7.57509 15.52 7.57509 15.52 7.68535 15.5192C7.80278 15.5195 7.80278 15.5195 7.92258 15.5197C8.00562 15.5194 8.08866 15.519 8.17421 15.5186C8.40143 15.5178 8.62863 15.5177 8.85584 15.5178C9.04577 15.5179 9.2357 15.5176 9.42563 15.5172C9.87383 15.5164 10.322 15.5164 10.7702 15.5168C11.2321 15.5173 11.6939 15.5164 12.1557 15.5149C12.5528 15.5137 12.9498 15.5132 13.3468 15.5135C13.5837 15.5136 13.8206 15.5134 14.0575 15.5124C14.3218 15.5116 14.586 15.512 14.8503 15.5129C14.9284 15.5123 15.0066 15.5118 15.0871 15.5112C15.4771 15.5139 15.7675 15.5245 16.1019 15.75C16.2546 15.9359 16.2425 16.0333 16.2337 16.2773C16.1651 16.5519 16.1088 16.6313 15.891 16.8047C15.7166 16.8401 15.7166 16.8401 15.5174 16.8404C15.4417 16.8412 15.366 16.842 15.288 16.8428C15.1639 16.8419 15.1639 16.8419 15.0373 16.8411C14.9063 16.8418 14.9063 16.8418 14.7726 16.8425C14.5331 16.8436 14.2938 16.8433 14.0544 16.8424C13.8037 16.8417 13.5531 16.8424 13.3025 16.8428C12.8817 16.8433 12.4608 16.8427 12.04 16.8413C11.5535 16.8398 11.0671 16.8403 10.5806 16.8418C10.1628 16.8431 9.74506 16.8433 9.3273 16.8426C9.07782 16.8421 8.82836 16.8421 8.57888 16.843C8.30078 16.844 8.02271 16.8426 7.74461 16.8411C7.66191 16.8416 7.57921 16.8422 7.494 16.8428C7.38044 16.8416 7.38044 16.8416 7.26458 16.8404C7.19884 16.8403 7.13309 16.8402 7.06535 16.8401C6.837 16.7937 6.75391 16.7028 6.60973 16.5234C6.52404 16.2606 6.5277 16.1354 6.61852 15.873C6.83393 15.5571 7.09981 15.5216 7.46701 15.5207Z" fill="#1F2646"/>
</g>
<defs>
<clipPath id="clip0_311_352">
<rect width="36" height="36" fill="white"/>
</clipPath>
</defs>
</svg>
