<svg width="36" height="36" viewBox="0 0 36 36" fill="none" xmlns="http://www.w3.org/2000/svg">
<g clip-path="url(#clip0_311_330)">
<path d="M3.82459 0.808244C3.94043 0.80792 4.05627 0.807473 4.1721 0.806915C4.48874 0.805745 4.80535 0.806319 5.12198 0.807192C5.46411 0.80783 5.80623 0.806845 6.14836 0.806073C6.81792 0.804824 7.48748 0.805092 8.15704 0.805908C8.70132 0.806543 9.2456 0.806629 9.78988 0.806323C9.86741 0.80628 9.94495 0.806237 10.0248 0.806192C10.1823 0.806102 10.3399 0.806011 10.4974 0.805919C11.9736 0.805117 13.4499 0.806038 14.9261 0.80755C16.1922 0.808806 17.4582 0.808588 18.7243 0.807292C20.1954 0.805786 21.6664 0.805194 23.1375 0.806058C23.2944 0.806147 23.4513 0.806236 23.6083 0.806323C23.7241 0.806388 23.7241 0.806388 23.8422 0.806454C24.3857 0.806697 24.9292 0.806288 25.4727 0.805625C26.1352 0.804836 26.7977 0.805052 27.4602 0.806548C27.7981 0.807286 28.136 0.807579 28.4739 0.806647C28.7835 0.805806 29.093 0.806274 29.4026 0.807765C29.5143 0.808078 29.626 0.807923 29.7377 0.807238C30.7984 0.801238 31.6061 1.04474 32.3919 1.7756C33.1752 2.60054 33.4943 3.70763 33.4844 4.82153C33.4844 4.88543 33.4844 4.94933 33.4844 5.01516C33.4843 5.22722 33.4832 5.43926 33.4821 5.65132C33.4818 5.80418 33.4816 5.95704 33.4815 6.1099C33.4811 6.43808 33.4803 6.76626 33.4793 7.09444C33.4778 7.61361 33.4777 8.13278 33.478 8.65195C33.4781 8.82996 33.4782 9.00797 33.4783 9.18598C33.4783 9.27509 33.4784 9.36421 33.4784 9.45602C33.4788 10.664 33.4779 11.8719 33.4742 13.0799C33.4716 13.8958 33.4711 14.7117 33.4728 15.5276C33.4736 15.9591 33.4734 16.3904 33.4707 16.8218C33.4682 17.2274 33.4683 17.6329 33.4704 18.0384C33.4707 18.1871 33.47 18.3357 33.4683 18.4843C33.4259 19.3812 33.4259 19.3812 33.8156 20.1502C33.8656 20.1922 33.9156 20.2342 33.967 20.2775C34.2257 20.4957 34.2915 20.7841 34.3316 21.1093C34.3501 21.5252 34.2811 21.9381 34.0042 22.2626C33.971 22.2975 33.9378 22.3324 33.9037 22.3684C33.8529 22.4351 33.8021 22.5018 33.7498 22.5705C33.7731 22.7762 33.7731 22.7762 33.8905 22.9924C33.941 23.1151 33.9908 23.2382 34.0399 23.3615C34.0771 23.4513 34.0771 23.4513 34.1151 23.5428C34.1717 23.6955 34.1717 23.6955 34.1717 23.8361C34.2935 23.8296 34.2935 23.8296 34.4178 23.823C34.899 23.8238 35.3024 23.9921 35.6483 24.3283C36.0294 24.8471 36.0173 25.2879 36.0206 25.9075C36.0214 26.0113 36.0228 26.1152 36.0249 26.219C36.0381 26.8735 36.0469 27.3933 35.5958 27.9159C35.1174 28.2982 34.7801 28.3574 34.1717 28.3361C34.1589 28.3796 34.1462 28.423 34.133 28.4677C34.1153 28.5273 34.0976 28.5868 34.0794 28.6482C34.0609 28.7123 34.0425 28.7765 34.0234 28.8426C33.9608 29.0393 33.9608 29.0393 33.885 29.2096C33.8154 29.3696 33.7642 29.4979 33.7498 29.6721C33.8362 29.822 33.9375 29.9257 34.061 30.0464C34.2967 30.2973 34.3082 30.6042 34.3343 30.9333C34.3077 31.6273 33.9328 32.0094 33.4686 32.4846C33.4142 32.5425 33.3598 32.6004 33.3038 32.6601C32.835 33.149 32.4529 33.4238 31.7679 33.4909C31.2523 33.4487 30.8772 33.2682 30.5155 32.9065C30.2316 32.9365 29.9888 33.0436 29.7289 33.157C29.3351 33.3283 29.3351 33.3283 29.1795 33.3283C29.1828 33.3726 29.1861 33.4168 29.1894 33.4624C29.2081 33.9064 29.1648 34.2308 28.8983 34.594C28.5857 34.9273 28.2823 35.1369 27.817 35.1769C27.5772 35.1797 27.3374 35.1826 27.0976 35.1825C26.9439 35.1828 26.7903 35.1854 26.6366 35.188C26.0355 35.193 25.5562 35.1803 25.0998 34.7371C24.776 34.2645 24.6564 33.8981 24.6092 33.3283C24.4628 33.271 24.3163 33.2139 24.1698 33.157C24.0474 33.1092 24.0474 33.1092 23.9226 33.0605C23.8475 33.0329 23.7725 33.0053 23.6952 32.9768C23.6445 32.9574 23.5938 32.938 23.5416 32.918C23.4064 32.8931 23.4064 32.8931 23.2807 32.9869C23.2362 33.0256 23.1917 33.0643 23.1458 33.1042C22.7514 33.419 22.3704 33.5124 21.867 33.469C21.2616 33.3633 20.9178 32.9987 20.5047 32.5681C20.4423 32.5055 20.3798 32.4429 20.3155 32.3784C19.8797 31.9337 19.587 31.5939 19.5863 30.9465C19.5955 30.5104 19.6588 30.2457 19.8983 29.883C19.9574 29.8345 19.9574 29.8345 20.0178 29.785C20.0479 29.7477 20.0781 29.7105 20.1092 29.6721C20.0743 29.3781 19.9667 29.1156 19.8587 28.8415C19.8267 28.7599 19.7947 28.6782 19.7618 28.5941C19.7372 28.5321 19.7127 28.4702 19.6873 28.4065C19.6097 28.4064 19.5321 28.4063 19.4521 28.4062C18.7207 28.405 17.9893 28.402 17.2578 28.3972C16.8818 28.3948 16.5057 28.393 16.1297 28.3927C15.7668 28.3924 15.4039 28.3904 15.041 28.3872C14.9025 28.3863 14.7641 28.386 14.6256 28.3863C14.4317 28.3867 14.2378 28.3849 14.0439 28.3825C13.958 28.3834 13.958 28.3834 13.8704 28.3844C13.5701 28.3783 13.4616 28.362 13.2191 28.1664C13.0264 27.9182 12.976 27.7333 13.0077 27.4221C13.1507 27.1361 13.2719 26.9731 13.5702 26.8596C13.7668 26.8427 13.7668 26.8427 13.9958 26.8436C14.0817 26.8436 14.1675 26.8436 14.256 26.8437C14.3945 26.8447 14.3945 26.8447 14.5359 26.8459C14.6316 26.8461 14.7274 26.8463 14.8231 26.8465C15.0747 26.847 15.3262 26.8484 15.5777 26.8499C15.8346 26.8514 16.0915 26.852 16.3483 26.8527C16.852 26.8542 17.3556 26.8566 17.8592 26.8596C17.8576 26.7841 17.8576 26.7841 17.8559 26.7072C17.8515 26.4767 17.8487 26.2463 17.846 26.0158C17.8443 25.9367 17.8425 25.8576 17.8407 25.7761C17.836 25.2383 17.8566 24.7956 18.2144 24.3662C18.7576 23.9065 18.7576 23.9065 19.1248 23.8361C19.1921 23.842 19.1921 23.842 19.2608 23.848C19.4391 23.855 19.5287 23.8516 19.6873 23.7658C19.8885 23.441 20.1296 23.015 20.0955 22.6238C20.0333 22.4881 19.9611 22.3836 19.8675 22.2673C19.5586 21.8438 19.5312 21.4588 19.5624 20.9492C19.7142 20.3749 20.1468 19.9669 20.5575 19.5603C20.6088 19.5076 20.6601 19.4549 20.7129 19.4006C21.122 18.9918 21.4647 18.7451 22.0648 18.7385C22.6311 18.752 23.0457 18.9963 23.4842 19.3361C23.536 19.3124 23.5877 19.2887 23.6411 19.2642C23.7097 19.2328 23.7783 19.2015 23.849 19.1692C23.9167 19.1382 23.9844 19.1072 24.0541 19.0752C24.2376 18.9935 24.4222 18.9171 24.6092 18.844C24.6095 18.7801 24.6095 18.7801 24.6098 18.7149C24.6333 18.2054 24.7756 17.8329 25.1014 17.4377C25.6573 16.9725 26.2092 16.9992 26.9076 16.9939C26.9949 16.9918 27.0822 16.9898 27.1722 16.9877C27.7765 16.9835 28.2367 17.0414 28.7112 17.4328C29.0873 17.8906 29.18 18.2661 29.2498 18.844C29.4194 18.9167 29.5893 18.9883 29.7596 19.0593C29.8076 19.08 29.8555 19.1007 29.9049 19.1221C30.1647 19.2292 30.3189 19.2873 30.5858 19.1955C30.7153 19.1157 30.7153 19.1157 30.8363 19.0197C31.2344 18.7147 31.4252 18.7736 31.992 18.7736C31.992 16.4301 31.992 14.0866 31.992 11.6721C21.9219 11.6721 11.8517 11.6721 1.47641 11.6721C0.180376 19.7003 0.180376 19.7003 2.24985 26.3674C2.62372 26.6864 2.91493 26.7976 3.40379 26.8004C3.44921 26.8007 3.49462 26.8011 3.54141 26.8014C3.63993 26.8022 3.73846 26.8028 3.83698 26.8033C3.99305 26.8041 4.1491 26.8055 4.30516 26.807C4.74885 26.8113 5.19254 26.8151 5.63625 26.8175C5.90776 26.819 6.17926 26.8215 6.45076 26.8246C6.55408 26.8256 6.65741 26.8262 6.76074 26.8264C6.90549 26.8268 7.05017 26.8284 7.1949 26.8303C7.31831 26.8312 7.31831 26.8312 7.44421 26.832C7.74494 26.8698 7.9275 26.9856 8.14292 27.1936C8.26359 27.4222 8.25325 27.5891 8.22641 27.844C8.1103 28.0928 8.03544 28.1822 7.80454 28.3361C7.58951 28.355 7.58951 28.355 7.32169 28.3566C7.27284 28.357 7.22399 28.3575 7.17365 28.358C7.01187 28.3593 6.85011 28.3596 6.68833 28.3598C6.5754 28.3602 6.46248 28.3607 6.34955 28.3612C6.11241 28.362 5.87528 28.3623 5.63814 28.3622C5.33608 28.3622 5.03407 28.3641 4.73203 28.3665C4.49845 28.3681 4.26488 28.3684 4.0313 28.3683C3.92007 28.3685 3.80885 28.3691 3.69763 28.3702C2.67271 28.3793 1.91218 28.1828 1.12485 27.4924C0.280609 26.6379 -0.0220885 25.6059 -0.018953 24.4371C-0.0192716 24.3497 -0.01959 24.2623 -0.0199183 24.1722C-0.0206524 23.9307 -0.0207604 23.6893 -0.0205942 23.4478C-0.0205654 23.1869 -0.0213425 22.926 -0.0220085 22.6651C-0.0231748 22.1544 -0.023563 21.6436 -0.0236415 21.1329C-0.0237084 20.7175 -0.0239979 20.3022 -0.0244432 19.8868C-0.0256812 18.708 -0.0263302 17.5293 -0.0262247 16.3505C-0.0262191 16.287 -0.0262136 16.2235 -0.0262078 16.1581C-0.0261992 16.0627 -0.0261992 16.0627 -0.0261904 15.9654C-0.0261332 14.9355 -0.0274784 13.9057 -0.0294616 12.8758C-0.0314839 11.8172 -0.0324526 10.7586 -0.0323313 9.70002C-0.0322847 9.10615 -0.0326674 8.5123 -0.0341844 7.91843C-0.0354681 7.41271 -0.035768 6.90701 -0.0348158 6.40129C-0.0343582 6.14356 -0.0343429 5.88585 -0.0355687 5.62813C-0.0368875 5.34796 -0.035999 5.06784 -0.0349175 4.78768C-0.0356408 4.70728 -0.0363641 4.62689 -0.0371094 4.54405C-0.028339 3.51099 0.34652 2.50709 1.05674 1.74703C1.88272 0.973494 2.72364 0.801496 3.82459 0.808244ZM2.01117 2.944C0.607904 4.80819 1.47641 9.17868 1.47641 10.1955C11.5466 10.1955 21.6167 10.1955 31.992 10.1955C32.4457 6.84615 32.4457 6.84615 31.3073 2.81793C30.9232 2.47468 30.5572 2.29423 30.0347 2.29378C29.9878 2.29345 29.941 2.29312 29.8927 2.29279C29.7358 2.29195 29.579 2.29261 29.4221 2.29326C29.3085 2.29297 29.1948 2.29258 29.0812 2.29211C28.769 2.2911 28.4568 2.2914 28.1445 2.29192C27.8078 2.29225 27.471 2.29137 27.1343 2.29065C26.4745 2.28944 25.8148 2.28938 25.1551 2.28975C24.6189 2.29003 24.0828 2.28993 23.5466 2.28956C23.4703 2.2895 23.394 2.28945 23.3154 2.2894C23.1605 2.28929 23.0055 2.28918 22.8506 2.28907C21.3971 2.28811 19.9435 2.28849 18.49 2.2893C17.16 2.28999 15.83 2.28909 14.5 2.2874C13.1347 2.28569 11.7693 2.28501 10.404 2.28548C9.63731 2.28573 8.87067 2.28557 8.10402 2.28434C7.45135 2.2833 6.7987 2.28326 6.14603 2.28448C5.81302 2.28508 5.48002 2.28523 5.14701 2.28416C4.8421 2.28318 4.53722 2.28351 4.23231 2.28488C4.12207 2.28514 4.01182 2.28493 3.90158 2.2842C3.12209 2.27939 2.5687 2.35458 2.01117 2.944ZM26.1561 18.5627C26.1418 18.7802 26.1318 18.9972 26.1259 19.215C26.1114 19.5227 26.0624 19.7232 25.8748 19.969C25.6234 20.1302 25.3579 20.2103 25.075 20.2985C24.6522 20.4325 24.274 20.6232 23.8909 20.8441C23.535 21.0368 23.3165 21.0576 22.9217 20.9533C22.7229 20.808 22.7229 20.808 22.5526 20.6325C22.3869 20.4578 22.3869 20.4578 22.2186 20.3205C21.8966 20.3205 21.8312 20.3888 21.6093 20.6067C21.5711 20.6457 21.5329 20.6847 21.4935 20.7248C21.4539 20.7627 21.4144 20.8006 21.3736 20.8396C21.246 20.9634 21.246 20.9634 21.0936 21.1643C21.1244 21.4163 21.2221 21.5255 21.4056 21.696C21.6461 21.9214 21.7836 22.0711 21.8407 22.4079C21.8336 22.8057 21.643 23.1209 21.4597 23.4625C21.2393 23.8774 21.0969 24.2918 20.9673 24.7425C20.8732 24.9856 20.8177 25.0965 20.6014 25.2424C20.3979 25.2833 20.1977 25.2881 19.9906 25.2907C19.6349 25.2673 19.6349 25.2673 19.3358 25.383C19.3288 25.4868 19.3266 25.591 19.3264 25.695C19.3264 25.7579 19.3263 25.8208 19.3262 25.8856C19.3264 25.9518 19.3267 26.018 19.327 26.0861C19.3267 26.1523 19.3265 26.2185 19.3262 26.2866C19.3263 26.3496 19.3264 26.4125 19.3264 26.4773C19.3265 26.5354 19.3266 26.5935 19.3267 26.6533C19.3208 26.7898 19.3208 26.7898 19.4061 26.8596C19.6236 26.8739 19.8405 26.8839 20.0584 26.8898C20.3665 26.9043 20.5764 26.9375 20.8123 27.1408C20.8979 27.3082 20.9627 27.4573 21.0233 27.633C21.0568 27.7237 21.0903 27.8143 21.1238 27.9049C21.1404 27.9509 21.157 27.9969 21.174 28.0442C21.329 28.4737 21.4956 28.8684 21.7281 29.2628C21.8605 29.5097 21.8965 29.7126 21.8176 29.9805C21.6777 30.2625 21.452 30.4356 21.2202 30.6436C21.1784 30.6942 21.1367 30.7449 21.0936 30.7971C21.1181 31.0302 21.2056 31.1455 21.3707 31.3058C21.4117 31.3461 21.4528 31.3864 21.495 31.428C21.5595 31.4898 21.5595 31.4898 21.6253 31.5529C21.6686 31.5953 21.7119 31.6376 21.7565 31.6812C21.8632 31.7854 21.9705 31.889 22.078 31.9924C22.1114 31.9636 22.1448 31.9348 22.1793 31.9051C22.2641 31.8323 22.3494 31.7599 22.435 31.6878C22.568 31.5755 22.568 31.5755 22.6745 31.4642C22.8654 31.2771 23.0025 31.2168 23.2645 31.1618C23.6511 31.1826 23.9719 31.3766 24.3059 31.5561C24.7207 31.7769 25.1341 31.916 25.5859 32.0416C25.8499 32.152 25.9452 32.2355 26.0858 32.4846C26.115 32.6859 26.1314 32.8635 26.1341 33.0647C26.1131 33.399 26.1131 33.399 26.2264 33.6799C26.3362 33.686 26.4463 33.6874 26.5563 33.6868C26.6227 33.6865 26.6891 33.6863 26.7575 33.6861C26.8273 33.6855 26.8971 33.6849 26.9691 33.6843C27.0392 33.684 27.1093 33.6837 27.1815 33.6833C27.3554 33.6825 27.5292 33.6813 27.703 33.6799C27.7056 33.6028 27.7082 33.5256 27.7109 33.4462C27.7156 33.3439 27.7202 33.2416 27.7249 33.1394C27.7265 33.0887 27.7281 33.0379 27.7298 32.9857C27.7454 32.6739 27.7769 32.4518 27.9842 32.2033C28.1369 32.1223 28.1369 32.1223 28.3182 32.0671C28.651 31.9578 28.9772 31.8405 29.3026 31.7111C29.3878 31.6778 29.473 31.6444 29.5608 31.6101C29.7437 31.5302 29.903 31.4504 30.073 31.3494C30.2988 31.2222 30.4614 31.165 30.7226 31.1772C31.0581 31.2742 31.3175 31.5695 31.5292 31.8372C31.6388 31.9384 31.6388 31.9384 31.8042 31.9237C32.0559 31.8273 32.2142 31.6653 32.3963 31.4738C32.431 31.439 32.4658 31.4042 32.5015 31.3684C32.663 31.2029 32.7618 31.0895 32.8358 30.8674C32.7858 30.8183 32.7359 30.7691 32.6844 30.7185C32.6198 30.6545 32.5552 30.5906 32.4886 30.5246C32.4242 30.461 32.3597 30.3974 32.2933 30.3318C32.0641 30.0928 32.0393 29.9463 32.0438 29.6144C32.0752 29.3549 32.1941 29.154 32.3216 28.9294C32.5723 28.4637 32.7458 28.0078 32.8918 27.5001C32.999 27.2232 33.1324 27.0628 33.3983 26.9299C33.589 26.9136 33.7785 26.9004 33.9696 26.8903C34.0491 26.8858 34.0491 26.8858 34.1302 26.8811C34.2612 26.8737 34.3923 26.8666 34.5233 26.8596C34.5253 26.615 34.5266 26.3703 34.5277 26.1257C34.5283 26.0559 34.5289 25.986 34.5295 25.9141C34.5297 25.8477 34.5299 25.7813 34.5302 25.7129C34.5305 25.6514 34.5309 25.5899 34.5313 25.5266C34.5393 25.3834 34.5393 25.3834 34.453 25.3127C34.2204 25.3008 33.9882 25.2918 33.7553 25.2887C33.5147 25.2792 33.3416 25.2497 33.1286 25.1356C32.923 24.8999 32.858 24.6696 32.7743 24.3723C32.6176 23.8551 32.4204 23.4002 32.1552 22.93C32.0467 22.6744 32.0379 22.4942 32.0623 22.219C32.2521 21.8546 32.5407 21.5851 32.8358 21.3049C32.5258 20.9329 32.1977 20.5885 31.8514 20.2502C31.6084 20.3537 31.463 20.4926 31.2801 20.6809C31.0636 20.8725 30.9087 20.999 30.6165 21.0236C30.2208 20.9912 29.8936 20.8016 29.5497 20.6166C29.134 20.3939 28.7178 20.2499 28.2663 20.117C28.0065 20.0217 27.8954 19.9319 27.7733 19.6877C27.7547 19.4458 27.742 19.2043 27.7307 18.9619C27.7405 18.7058 27.7405 18.7058 27.6327 18.4924C27.5288 18.4855 27.4247 18.4832 27.3207 18.4831C27.2577 18.483 27.1948 18.4829 27.13 18.4828C27.0308 18.4832 27.0308 18.4832 26.9295 18.4836C26.8634 18.4833 26.7972 18.4831 26.729 18.4828C26.6347 18.4829 26.6347 18.4829 26.5384 18.4831C26.4513 18.4832 26.4513 18.4832 26.3624 18.4833C26.2259 18.4774 26.2259 18.4774 26.1561 18.5627Z" fill="#1F2646"/>
<path d="M20.9073 3.8565C20.968 3.8559 21.0287 3.85529 21.0912 3.85467C21.1573 3.85437 21.2233 3.85407 21.2914 3.85376C21.3614 3.85318 21.4314 3.85261 21.5035 3.85202C21.7353 3.85027 21.9672 3.84911 22.199 3.8481C22.2783 3.84772 22.3577 3.84735 22.4395 3.84696C22.8599 3.84508 23.2803 3.84372 23.7007 3.8427C24.0477 3.84177 24.3946 3.83981 24.7416 3.83694C25.1614 3.83346 25.5811 3.83173 26.0009 3.83123C26.1603 3.83076 26.3198 3.82969 26.4792 3.828C27.4985 3.81781 28.2977 3.81129 29.1094 4.50013C29.5693 5.0267 29.8719 5.66868 29.8367 6.38292C29.7164 7.16032 29.4276 7.79742 28.8018 8.28822C28.2875 8.61115 27.7727 8.67986 27.1757 8.67698C27.1047 8.67746 27.0337 8.67795 26.9606 8.67844C26.7277 8.67972 26.4949 8.67946 26.262 8.67906C26.0991 8.67938 25.9361 8.67975 25.7732 8.68017C25.4323 8.6808 25.0915 8.68063 24.7507 8.67993C24.3151 8.67913 23.8796 8.68055 23.444 8.6826C23.1077 8.68389 22.7714 8.68387 22.4351 8.68347C22.2746 8.68346 22.1141 8.68388 21.9535 8.68476C21.7286 8.68581 21.5037 8.68505 21.2787 8.68385C21.1805 8.68487 21.1805 8.68487 21.0802 8.68591C20.3322 8.67759 19.7836 8.40276 19.2656 7.87513C18.8238 7.42108 18.6746 6.88059 18.668 6.25795C18.6806 5.48932 18.9127 4.99908 19.4406 4.4441C19.8571 4.07875 20.3521 3.86064 20.9073 3.8565ZM20.2939 5.74379C20.1554 6.02624 20.1187 6.23068 20.1797 6.5392C20.3398 6.85353 20.4936 7.02485 20.8125 7.17201C21.0323 7.20276 21.2501 7.20155 21.4718 7.20042C21.5377 7.2009 21.6036 7.20138 21.6715 7.20188C21.889 7.20317 22.1064 7.2029 22.3239 7.2025C22.4753 7.20282 22.6267 7.20319 22.7781 7.20361C23.0954 7.20424 23.4126 7.20407 23.7298 7.20337C24.1361 7.20256 24.5423 7.20398 24.9486 7.20604C25.2612 7.20733 25.5739 7.20731 25.8865 7.20691C26.0363 7.2069 26.1861 7.20732 26.3359 7.20819C26.5454 7.20924 26.7549 7.20849 26.9644 7.20728C27.057 7.2083 27.057 7.2083 27.1514 7.20934C27.5339 7.20474 27.75 7.14337 28.0547 6.89076C28.2475 6.68727 28.2973 6.54591 28.3008 6.26674C28.2933 6.01454 28.2658 5.8588 28.1074 5.66029C27.8594 5.43481 27.6821 5.32655 27.3456 5.32555C27.2607 5.32481 27.2607 5.32481 27.1741 5.32404C27.1127 5.32422 27.0513 5.32439 26.9879 5.32457C26.9227 5.32421 26.8575 5.32385 26.7904 5.32348C26.5748 5.32251 26.3592 5.32257 26.1436 5.32273C25.9937 5.32246 25.8438 5.32216 25.6938 5.32182C25.3795 5.3213 25.0652 5.32132 24.7509 5.32169C24.3483 5.3221 23.9457 5.32091 23.5432 5.31927C23.2335 5.31824 22.9238 5.31818 22.6141 5.31839C22.4657 5.31836 22.3173 5.31799 22.1689 5.31728C21.9612 5.31641 21.7536 5.31689 21.5459 5.31771C21.4847 5.31717 21.4236 5.31663 21.3605 5.31608C20.9116 5.31996 20.6032 5.39389 20.2939 5.74379Z" fill="#1F2646"/>
<path d="M29.5008 22.5142C30.2124 23.0999 30.747 23.7438 31.0784 24.6095C31.101 24.6661 31.1235 24.7228 31.1468 24.7811C31.5014 25.835 31.3492 27.0738 30.8894 28.0636C30.3099 29.1582 29.3855 29.9686 28.1956 30.3355C26.8543 30.6557 25.6494 30.4231 24.469 29.7423C23.5263 29.1313 22.9385 28.1964 22.6541 27.1231C22.414 25.9544 22.5971 24.8022 23.196 23.7728C23.8899 22.7506 24.865 22.0607 26.0774 21.775C27.2271 21.5864 28.5566 21.7886 29.5008 22.5142ZM24.6336 24.3329C24.3832 24.6865 24.2277 25.0353 24.1175 25.4532C24.1015 25.5112 24.0856 25.5692 24.0691 25.629C23.97 26.4222 24.1492 27.1884 24.6272 27.8397C25.1047 28.4014 25.6998 28.8304 26.4378 28.9688C27.2761 29.0347 28.0399 28.9301 28.7015 28.3797C28.7434 28.3421 28.7853 28.3045 28.8284 28.2657C28.8934 28.2104 28.8934 28.2104 28.9597 28.1539C29.4612 27.6965 29.7782 27.0472 29.8282 26.3695C29.8526 25.4985 29.6334 24.7539 29.0366 24.1011C28.431 23.5308 27.7615 23.2476 26.9388 23.1812C26.0579 23.2093 25.1842 23.6474 24.6336 24.3329Z" fill="#1F2646"/>
<path d="M7.95816 4.23859C8.49164 4.59926 8.8069 5.10916 8.96753 5.72778C9.09473 6.41574 8.96901 7.04527 8.60498 7.64188C8.26488 8.11751 7.76132 8.54576 7.17236 8.64822C6.30591 8.71244 5.61779 8.65724 4.92786 8.08792C4.40801 7.5798 4.18945 7.00086 4.12695 6.28836C4.13818 5.63818 4.38292 4.9554 4.85205 4.49979C5.05259 4.33682 5.25893 4.20295 5.48486 4.07791C5.52728 4.05389 5.5697 4.02987 5.6134 4.00513C6.37569 3.64884 7.265 3.82916 7.95816 4.23859ZM5.7793 5.75662C5.66769 5.95633 5.63449 6.09832 5.62549 6.32791C5.73195 6.6529 5.85079 6.8845 6.11768 7.10135C6.43227 7.20621 6.70262 7.22388 7.00977 7.08816C7.2816 6.87511 7.42761 6.70452 7.51953 6.36746C7.5247 6.07287 7.47566 5.9391 7.31299 5.6951C7.07332 5.47881 6.91556 5.35265 6.59229 5.32156C6.2273 5.35198 6.02999 5.49729 5.7793 5.75662Z" fill="#1F2646"/>
<path d="M14.1324 4.21891C14.6781 4.63341 15.0163 5.1497 15.1582 5.82155C15.2542 6.58634 15.0566 7.21094 14.6465 7.8488C14.1057 8.40423 13.5019 8.6668 12.7349 8.67936C11.9974 8.67241 11.5012 8.4677 10.9666 7.96058C10.4743 7.40892 10.3041 6.79178 10.3182 6.06434C10.3666 5.42531 10.6555 4.87447 11.1141 4.42875C11.9805 3.70904 13.1615 3.62413 14.1324 4.21891ZM12.0054 5.73503C11.7993 6.0221 11.7997 6.17734 11.8417 6.5211C11.925 6.84631 12.1794 6.99504 12.4449 7.17204C12.7818 7.20518 12.9391 7.20811 13.2403 7.04899C13.5389 6.81226 13.5389 6.81226 13.6624 6.46589C13.6824 6.08147 13.6206 5.85192 13.3589 5.55485C13.15 5.38547 13.0302 5.34637 12.7613 5.31755C12.4038 5.35585 12.2404 5.46743 12.0054 5.73503Z" fill="#1F2646"/>
<path d="M15.0474 16.172C15.3086 16.3826 15.5285 16.6242 15.7505 16.8751C15.794 16.9236 15.8375 16.9721 15.8823 17.0221C15.9615 17.1117 16.04 17.202 16.1177 17.2929C16.2618 17.4597 16.4104 17.622 16.5591 17.7848C17.4678 18.7915 17.4678 18.7915 17.4567 19.4404C17.4079 19.9023 16.9852 20.238 16.6852 20.566C16.5472 20.7168 16.4118 20.8692 16.2778 21.0235C15.1631 22.3016 15.1631 22.3016 14.9067 22.4298C14.3612 22.4601 14.3612 22.4601 14.1333 22.2892C13.9713 22.0866 13.9245 21.9545 13.8916 21.6959C13.9494 21.225 14.2973 20.9071 14.6123 20.5753C14.6873 20.495 14.7623 20.4146 14.8372 20.3342C14.8913 20.2764 14.8913 20.2764 14.9464 20.2175C15.0778 20.0769 15.2085 19.9359 15.3374 19.7931C15.3738 19.7532 15.4103 19.7133 15.4478 19.6722C15.5578 19.5221 15.6174 19.3699 15.6802 19.1954C15.6126 19.1215 15.6126 19.1215 15.5437 19.046C14.8445 18.2791 14.8445 18.2791 14.6071 18.002C14.5162 17.8961 14.4234 17.7918 14.3297 17.6884C13.886 17.1779 13.886 17.1779 13.8652 16.8575C13.9375 16.5239 14.0287 16.4058 14.2739 16.172C14.5565 16.0778 14.771 16.0656 15.0474 16.172Z" fill="#1F2646"/>
<path d="M7.17235 16.1718C7.36619 16.2911 7.4323 16.3798 7.49562 16.5975C7.54622 16.8893 7.55852 17.0252 7.40663 17.2913C7.23864 17.5131 7.05992 17.7189 6.86913 17.9208C6.80051 17.9946 6.73194 18.0684 6.66341 18.1422C6.63027 18.1778 6.59713 18.2134 6.56299 18.2501C6.36261 18.4668 6.16641 18.6876 5.97704 18.914C5.91613 18.9825 5.91613 18.9825 5.85399 19.0524C5.75077 19.1868 5.75077 19.1868 5.78296 19.3299C5.84434 19.4982 5.91725 19.5863 6.04131 19.7149C6.08302 19.7587 6.12473 19.8026 6.1677 19.8477C6.2121 19.8934 6.25649 19.9392 6.30223 19.9863C6.39228 20.0809 6.48228 20.1755 6.57222 20.2703C6.61535 20.3154 6.65849 20.3606 6.70292 20.4071C7.49405 21.2399 7.49405 21.2399 7.55907 21.6869C7.5124 22.0195 7.40742 22.1242 7.17235 22.3593C6.95371 22.4686 6.78123 22.4498 6.53954 22.4296C6.20937 22.2645 5.99861 22.0279 5.765 21.7504C5.60563 21.5625 5.44029 21.3809 5.27391 21.1992C4.72978 20.6014 4.72978 20.6014 4.54305 20.3823C4.46623 20.2922 4.38718 20.204 4.30629 20.1175C4.02068 19.7887 3.96218 19.5375 3.96599 19.1046C4.05583 18.6997 4.35234 18.4102 4.62792 18.1142C4.83559 17.8892 5.04243 17.6642 5.24315 17.433C6.49015 15.9999 6.49015 15.9999 7.17235 16.1718Z" fill="#1F2646"/>
<path d="M11.7422 15.6095C11.9882 15.7581 12.0731 15.8286 12.1641 16.1016C12.1836 16.4705 12.1314 16.8018 12.0448 17.1583C12.0321 17.2124 12.0194 17.2665 12.0063 17.3223C11.9645 17.5 11.9219 17.6776 11.8793 17.8551C11.8498 17.9793 11.8203 18.1035 11.7909 18.2278C11.7293 18.4877 11.6672 18.7475 11.6049 19.0072C11.5253 19.3392 11.4465 19.6714 11.368 20.0037C11.3074 20.2601 11.2463 20.5165 11.1851 20.7728C11.1559 20.8952 11.1268 21.0176 11.0979 21.1401C11.0573 21.3117 11.0161 21.483 10.9747 21.6544C10.963 21.7045 10.9513 21.7545 10.9392 21.8061C10.7512 22.577 10.7512 22.577 10.4854 22.8429C10.3054 22.9381 10.1894 22.9827 9.9844 22.9923C9.73913 22.9119 9.55121 22.8327 9.35599 22.6627C9.16683 22.251 9.30408 21.759 9.40591 21.3371C9.41917 21.28 9.43243 21.2229 9.4461 21.164C9.48975 20.9769 9.53433 20.7899 9.57901 20.603C9.60989 20.4723 9.64075 20.3415 9.67157 20.2107C9.73617 19.9374 9.80125 19.6642 9.86664 19.391C9.95031 19.0414 10.0325 18.6914 10.1144 18.3413C10.1777 18.0715 10.2418 17.8018 10.3062 17.5322C10.3369 17.4033 10.3673 17.2742 10.3974 17.1451C10.4395 16.9647 10.4829 16.7846 10.5265 16.6045C10.5386 16.5514 10.5508 16.4983 10.5633 16.4436C10.6415 16.1279 10.7423 15.9144 10.9688 15.6798C11.2121 15.5581 11.4762 15.5755 11.7422 15.6095Z" fill="#1F2646"/>
<path d="M11.0394 26.9298C11.2885 27.1478 11.38 27.2734 11.4261 27.6022C11.3891 27.857 11.3363 27.9929 11.18 28.1955C10.8975 28.3838 10.6684 28.385 10.3363 28.3361C10.1345 28.21 10.0205 28.1264 9.9144 27.9142C9.88482 27.6991 9.88065 27.4961 9.9144 27.2814C10.2235 26.8804 10.5534 26.7776 11.0394 26.9298Z" fill="#1F2646"/>
</g>
<defs>
<clipPath id="clip0_311_330">
<rect width="36" height="36" fill="white"/>
</clipPath>
</defs>
</svg>
