<svg width="285" height="101" viewBox="0 0 285 101" fill="none" xmlns="http://www.w3.org/2000/svg">
<circle cx="203.5" cy="20.5" r="19" transform="rotate(90 203.5 20.5)" stroke="#3BDFAD" stroke-width="3"/>
<circle cx="142.5" cy="20.5" r="19" transform="rotate(90 142.5 20.5)" stroke="#3BDFAD" stroke-width="3"/>
<circle cx="81.5" cy="20.5" r="19" transform="rotate(90 81.5 20.5)" stroke="#3BDFAD" stroke-width="3"/>
<circle cx="20.5" cy="20.5" r="19" transform="rotate(90 20.5 20.5)" stroke="#3BDFAD" stroke-width="3"/>
<circle cx="264.5" cy="20.5" r="19" transform="rotate(90 264.5 20.5)" stroke="#3BDFAD" stroke-width="3"/>
<circle cx="203.5" cy="80.5" r="19" transform="rotate(90 203.5 80.5)" stroke="#B170FF" stroke-width="3"/>
<circle cx="142.5" cy="80.5" r="19" transform="rotate(90 142.5 80.5)" stroke="#B170FF" stroke-width="3"/>
<circle cx="81.5" cy="80.5" r="19" transform="rotate(90 81.5 80.5)" stroke="#B170FF" stroke-width="3"/>
<circle cx="20.5" cy="80.5" r="19" transform="rotate(90 20.5 80.5)" stroke="#B170FF" stroke-width="3"/>
<circle cx="264.5" cy="80.5" r="19" transform="rotate(90 264.5 80.5)" stroke="#B170FF" stroke-width="3"/>
</svg>
