<svg width="98" height="98" viewBox="0 0 98 98" fill="none" xmlns="http://www.w3.org/2000/svg">
<rect width="98" height="98" rx="20" fill="#3BDFAD" fill-opacity="0.2"/>
<g clip-path="url(#clip0_13_278)">
<path d="M72.7656 15.6367C73.3759 16.354 73.7266 17.2625 74.0591 18.1333C74.131 18.3167 74.131 18.3167 74.2042 18.5037C74.3079 18.769 74.4111 19.0344 74.5137 19.3001C74.6805 19.7316 74.8488 20.1626 75.0174 20.5934C75.1978 21.0543 75.3781 21.5153 75.558 21.9764C76.1724 23.5511 76.7972 25.1215 77.4233 26.6915C77.6839 27.3449 77.9442 27.9983 78.2044 28.6518C78.3381 28.9874 78.4718 29.3229 78.6055 29.6585C79.0963 30.8904 79.5865 32.1226 80.0765 33.3548C81.4069 36.6996 82.74 40.0431 84.0861 43.3816C84.4619 44.3145 84.8366 45.2479 85.2112 46.1813C85.5615 47.0539 85.9139 47.9257 86.2678 48.7969C86.4846 49.3317 86.6993 49.8673 86.9136 50.4032C87.0122 50.6487 87.1116 50.8938 87.2119 51.1386C88.1868 53.5194 88.1868 53.5194 88 54.6367C87.6301 55.2854 87.2241 55.5298 86.5414 55.803C86.2838 55.908 86.2838 55.908 86.0209 56.015C85.8351 56.0881 85.6492 56.1611 85.4578 56.2363C85.2636 56.3142 85.0695 56.3923 84.8755 56.4706C84.4617 56.637 84.0474 56.8018 83.6325 56.9656C83.0639 57.19 82.4964 57.4172 81.9291 57.6451C81.4689 57.8298 81.0084 58.0136 80.5477 58.1971C80.3239 58.2862 80.1002 58.3755 79.8765 58.4649C79.5628 58.5901 79.2486 58.7142 78.9344 58.838C78.6642 58.945 78.6642 58.945 78.3886 59.0542C77.9453 59.207 77.9453 59.207 77.4883 59.207C77.4888 59.3208 77.4894 59.4345 77.49 59.5518C77.5034 62.3211 77.5135 65.0904 77.5199 67.8597C77.523 69.1989 77.5273 70.5381 77.5342 71.8773C77.5403 73.0446 77.5443 74.2119 77.5456 75.3793C77.5464 75.9973 77.5483 76.6153 77.5527 77.2334C77.5568 77.8153 77.5581 78.3972 77.5572 78.9792C77.5574 79.1925 77.5586 79.4059 77.5609 79.6192C77.5798 81.4292 77.5798 81.4292 77.2364 82.0212C76.545 82.6826 75.7692 82.7061 74.8466 82.7067C74.6819 82.7074 74.6819 82.7074 74.5139 82.7082C74.1459 82.7094 73.7779 82.7085 73.4099 82.7076C73.1434 82.7081 72.8769 82.7087 72.6105 82.7094C71.8781 82.711 71.1458 82.7106 70.4134 82.71C69.6237 82.7096 68.8339 82.711 68.0441 82.7121C66.4969 82.7141 64.9496 82.7143 63.4024 82.714C62.145 82.7137 60.8876 82.714 59.6303 82.7146C59.4514 82.7147 59.2726 82.7148 59.0883 82.7149C58.725 82.7151 58.3617 82.7153 57.9985 82.7154C54.5903 82.7171 51.1822 82.7168 47.7741 82.7158C44.6549 82.7151 41.5358 82.7168 38.4166 82.7197C35.2151 82.7226 32.0136 82.7239 28.8121 82.7233C27.0142 82.723 25.2163 82.7234 23.4184 82.7255C21.8879 82.7274 20.3575 82.7276 18.827 82.7257C18.046 82.7248 17.2649 82.7247 16.4839 82.7265C15.769 82.7281 15.0542 82.7277 14.3394 82.7255C14.0807 82.7251 13.8219 82.7255 13.5632 82.7267C13.2116 82.7283 12.8601 82.727 12.5085 82.725C12.2156 82.725 12.2156 82.725 11.9167 82.725C11.2725 82.6576 10.8764 82.5121 10.3047 82.2109C9.98186 81.7267 9.9617 81.6092 9.96038 81.055C9.9593 80.9107 9.95823 80.7665 9.95712 80.6178C9.95749 80.4591 9.95785 80.3003 9.95823 80.1367C9.95744 79.9682 9.95664 79.7998 9.95582 79.6262C9.95352 79.0589 9.95342 78.4916 9.95332 77.9242C9.95216 77.5186 9.95088 77.113 9.94948 76.7075C9.946 75.6036 9.94479 74.4998 9.94402 73.3959C9.94352 72.7069 9.94253 72.0178 9.94143 71.3288C9.93845 69.4215 9.93595 67.5143 9.93551 65.607C9.93548 65.4849 9.93545 65.3629 9.93542 65.2371C9.93536 64.9896 9.93531 64.7421 9.93525 64.4946C9.93522 64.3717 9.9352 64.2489 9.93517 64.1223C9.93514 63.9993 9.93511 63.8763 9.93508 63.7495C9.93455 61.7557 9.93043 59.7618 9.92473 57.7679C9.91893 55.7216 9.91598 53.6752 9.91593 51.6288C9.91585 50.4796 9.91455 49.3304 9.91015 48.1811C9.90642 47.2026 9.9053 46.2242 9.90759 45.2457C9.90869 44.7464 9.90813 44.2471 9.90509 43.7478C9.902 43.2066 9.90357 42.6657 9.90635 42.1246C9.90333 41.8874 9.90333 41.8874 9.90025 41.6454C9.91278 40.5797 9.91277 40.5797 10.37 39.9976C10.4993 39.9017 10.6285 39.8058 10.7617 39.707C10.8499 39.637 10.9381 39.5671 11.0289 39.495C11.8945 38.9432 12.8215 38.5883 13.7806 38.2305C14.3087 38.0332 14.8351 37.8314 15.3618 37.6303C15.5274 37.5673 15.5274 37.5673 15.6963 37.503C16.8957 37.0458 18.0874 36.5698 19.2787 36.0918C19.5044 36.0013 19.7301 35.9109 19.9558 35.8205C20.4269 35.6317 20.8979 35.4427 21.3689 35.2537C22.7007 34.7192 24.033 34.1859 25.3653 33.6525C25.5065 33.596 25.6477 33.5394 25.7932 33.4811C29.1864 32.1226 32.5822 30.7706 35.9783 29.4193C36.4711 29.2233 36.9639 29.0272 37.4567 28.8311C39.1386 28.1618 40.8206 27.4925 42.5026 26.8234C45.7058 25.549 48.9089 24.2742 52.1118 22.9992C52.8138 22.7198 53.5157 22.4404 54.2177 22.161C57.5629 20.8297 60.9079 19.4977 64.2498 18.1581C64.4914 18.0613 64.7329 17.9645 64.9744 17.8677C65.9516 17.4761 66.9288 17.0842 67.9055 16.6913C68.367 16.5057 68.8287 16.3206 69.2903 16.1353C69.4514 16.0703 69.6126 16.0053 69.7786 15.9383C69.9973 15.8507 69.9973 15.8507 70.2204 15.7613C70.3453 15.711 70.4703 15.6607 70.599 15.6089C71.3698 15.3252 72.003 15.2532 72.7656 15.6367ZM70.0085 19.3709C69.8765 19.4224 69.7445 19.474 69.6086 19.5272C69.4623 19.585 69.316 19.6428 69.1653 19.7023C69.0101 19.7633 68.8548 19.8242 68.6949 19.8869C68.1663 20.0946 67.6381 20.3031 67.1099 20.5117C66.8243 20.6241 66.5387 20.7366 66.2531 20.8491C62.6163 22.2817 58.9874 23.7343 55.3589 25.188C51.0111 26.9298 46.6602 28.6639 42.3082 30.3954C36.7292 32.6151 31.1517 34.8387 25.5771 37.0695C25.4265 37.1298 25.2758 37.1901 25.1205 37.2522C23.3303 37.9687 21.5401 38.6854 19.75 39.4023C19.75 39.4526 19.75 39.5028 19.75 39.5546C20.8664 39.5723 21.9827 39.5858 23.0992 39.5941C23.6177 39.5981 24.1362 39.6034 24.6546 39.6121C25.2513 39.622 25.848 39.6257 26.4448 39.629C26.63 39.6329 26.8152 39.6369 27.0061 39.6409C28.0795 39.6413 28.5562 39.5654 29.3477 38.7929C29.823 38.5479 30.3209 38.3661 30.8211 38.1782C30.9717 38.1199 31.1222 38.0616 31.2774 38.0015C31.6107 37.8725 31.9443 37.7444 32.2782 37.6169C33.1282 37.292 33.9762 36.9621 34.8243 36.6323C35.0338 36.5509 35.2432 36.4695 35.4527 36.3882C38.4006 35.2443 41.3342 34.0644 44.2691 32.8876C45.5971 32.3552 46.9255 31.8235 48.2537 31.2918C48.397 31.2344 48.5403 31.177 48.6879 31.1179C51.2988 30.0726 53.9111 29.0306 56.5252 27.9934C56.8051 27.8823 57.085 27.771 57.3649 27.6598C57.8717 27.4584 58.3787 27.2574 58.8857 27.0565C59.0307 26.9988 59.1757 26.9412 59.3251 26.8818C61.4523 26.0406 61.4523 26.0406 62.4062 26.3007C62.7585 26.6054 62.7585 26.6054 62.9394 26.8101C64.7248 28.7815 66.9446 30.0012 69.6301 30.1522C69.9963 30.1697 70.3626 30.1857 70.7289 30.2016C70.9061 30.2101 70.9061 30.2101 71.0869 30.2188C71.1935 30.2234 71.3002 30.228 71.4101 30.2328C71.6992 30.2617 71.6992 30.2617 72.1562 30.414C72.3171 30.8327 72.3171 30.8327 72.4609 31.3281C72.5649 31.5845 72.6718 31.8397 72.7811 32.094C73.0893 32.8246 73.3809 33.56 73.6652 34.3002C73.8839 34.8686 74.1059 35.4357 74.328 36.0027C74.4425 36.2969 74.5556 36.5917 74.6674 36.8869C74.8309 37.3176 74.9992 37.7462 75.1686 38.1746C75.2174 38.3065 75.2661 38.4383 75.3164 38.5742C75.5861 39.2425 75.6874 39.4933 76.3574 39.8218C76.6155 39.9158 76.6155 39.9158 76.8789 40.0117C77.4579 40.6894 77.4031 41.3983 77.4018 42.2443C77.4034 42.3916 77.4049 42.5388 77.4065 42.6904C77.4111 43.176 77.4125 43.6614 77.4139 44.147C77.4165 44.484 77.4192 44.8211 77.4222 45.1581C77.4294 46.0445 77.434 46.9308 77.4379 47.8171C77.4425 48.7219 77.4496 49.6267 77.4564 50.5314C77.4696 52.3061 77.4798 54.0807 77.4883 55.8554C78.1133 55.6166 78.7381 55.3772 79.3628 55.1377C79.6249 55.0376 79.6249 55.0376 79.8923 54.9354C81.3904 54.3607 82.8705 53.7487 84.3438 53.1132C84.0533 52.2157 83.7373 51.3339 83.388 50.4578C83.34 50.3364 83.2919 50.215 83.2424 50.0899C83.083 49.6875 82.9231 49.2854 82.7632 48.8833C82.6482 48.5935 82.5333 48.3037 82.4184 48.0139C82.0452 47.0728 81.6711 46.1321 81.2969 45.1913C81.17 44.8722 81.0431 44.5531 80.9162 44.234C80.0481 42.051 79.1788 39.8685 78.3092 37.6861C77.6614 36.0604 77.014 34.4345 76.3665 32.8087C76.2961 32.6319 76.2258 32.4552 76.1532 32.2731C74.9109 29.1533 73.6705 26.0326 72.4324 22.9111C72.3923 22.81 72.3522 22.7088 72.3108 22.6047C71.8529 21.45 71.3951 20.2953 70.9375 19.1406C70.5742 19.1406 70.3472 19.2378 70.0085 19.3709ZM60.0684 29.8866C59.9369 29.9387 59.8053 29.9907 59.6697 30.0443C59.4548 30.1312 59.4548 30.1312 59.2356 30.2198C59.0836 30.2802 58.9315 30.3407 58.7749 30.403C58.2693 30.6044 57.7643 30.8074 57.2593 31.0103C56.9041 31.1521 56.5488 31.2939 56.1936 31.4356C55.3488 31.7727 54.5044 32.1108 53.6601 32.4493C52.6287 32.8628 51.5968 33.2749 50.5648 33.687C48.6244 34.4622 46.6846 35.2388 44.7449 36.0158C43.6704 36.4462 42.5959 36.8763 41.5213 37.3064C41.1999 37.435 40.8785 37.5637 40.5571 37.6925C39.1095 38.2721 37.6589 38.8435 36.2031 39.4023C36.2031 39.4526 36.2031 39.5028 36.2031 39.5546C48.1179 39.5546 60.0327 39.5546 72.3086 39.5546C72.0311 38.6297 71.7679 37.7742 71.4124 36.888C71.3728 36.7891 71.3332 36.6902 71.2925 36.5882C71.2101 36.3827 71.1274 36.1773 71.0444 35.972C70.9169 35.6565 70.7906 35.3405 70.6643 35.0245C70.3675 34.1008 70.3675 34.1008 69.8711 33.3085C69.5549 33.2579 69.2385 33.2083 68.9214 33.1638C66.0121 32.755 63.4577 31.7702 61.3398 29.6523C60.7875 29.6523 60.5586 29.6906 60.0684 29.8866ZM13.1992 42.7538C13.1992 54.8697 13.1992 66.9856 13.1992 79.4687C33.3589 79.4687 53.5185 79.4687 74.2891 79.4687C74.2891 67.3528 74.2891 55.2369 74.2891 42.7538C54.1294 42.7538 33.9698 42.7538 13.1992 42.7538Z" fill="#3BDFAD"/>
<path d="M26.7598 45.6281C26.911 45.6277 27.0623 45.6274 27.2181 45.627C27.7235 45.6261 28.2289 45.6262 28.7344 45.6263C29.0973 45.6259 29.4602 45.6253 29.8231 45.6248C30.7057 45.6236 31.5883 45.6231 32.471 45.623C33.1886 45.6229 33.9062 45.6226 34.6238 45.6221C36.6598 45.6208 38.6959 45.6201 40.732 45.6202C40.8417 45.6202 40.9513 45.6202 41.0643 45.6202C41.1741 45.6202 41.2839 45.6202 41.397 45.6202C43.1768 45.6203 44.9565 45.6188 46.7362 45.6167C48.5652 45.6145 50.3942 45.6134 52.2231 45.6136C53.2493 45.6136 54.2756 45.6132 55.3018 45.6116C56.2667 45.6101 57.2317 45.6101 58.1966 45.6112C58.5506 45.6113 58.9046 45.611 59.2586 45.6101C59.7421 45.6089 60.2256 45.6096 60.7091 45.6108C60.8489 45.61 60.9886 45.6092 61.1326 45.6084C63.1266 45.6191 63.1266 45.6191 63.8327 46.3007C64.0809 46.7129 64.2531 47.1003 64.4153 47.5527C65.4987 50.2348 67.3249 51.6169 69.8711 52.8086C70.954 53.3289 70.954 53.3289 71.2422 53.875C71.3806 54.6429 71.4171 55.3953 71.4167 56.1735C71.4174 56.3509 71.4174 56.3509 71.4182 56.532C71.4196 56.9202 71.42 57.3084 71.4201 57.6967C71.4206 57.9685 71.4211 58.2404 71.4216 58.5122C71.4226 59.0811 71.4228 59.6499 71.4228 60.2187C71.4227 60.9449 71.4248 61.671 71.4274 62.3971C71.4291 62.9584 71.4294 63.5196 71.4294 64.0808C71.4295 64.3484 71.4302 64.616 71.4314 64.8836C71.445 68.2746 71.445 68.2746 70.7435 69.0207C70.3257 69.2631 69.9239 69.4462 69.4712 69.614C66.5284 70.8056 65.2517 72.7793 64.0094 75.553C63.7625 75.9911 63.5903 76.1599 63.168 76.4219C62.8431 76.4795 62.8431 76.4795 62.486 76.4802C62.3494 76.4816 62.2128 76.483 62.0721 76.4844C61.9227 76.4836 61.7732 76.4828 61.6192 76.482C61.46 76.4829 61.3007 76.4838 61.1367 76.4848C60.6014 76.4873 60.0661 76.4866 59.5308 76.4858C59.1477 76.487 58.7646 76.4883 58.3815 76.4898C57.448 76.4928 56.5144 76.4937 55.5809 76.4934C54.8221 76.4932 54.0634 76.4938 53.3047 76.4949C53.0862 76.4952 52.8678 76.4955 52.6493 76.4959C52.4862 76.4961 52.4862 76.4961 52.3198 76.4963C50.263 76.4992 48.2062 76.4991 46.1494 76.498C44.2674 76.4972 42.3854 76.5003 40.5033 76.5054C38.5713 76.5105 36.6392 76.5128 34.7071 76.5121C33.6222 76.5118 32.5374 76.5126 31.4525 76.5164C30.4325 76.5199 29.4126 76.5195 28.3926 76.5164C28.0178 76.5159 27.643 76.5167 27.2682 76.5188C26.7574 76.5216 26.2468 76.5197 25.7361 76.5166C25.5869 76.5185 25.4378 76.5204 25.2842 76.5223C24.5768 76.513 24.2708 76.5029 23.6994 76.053C23.4603 75.7327 23.2796 75.4771 23.1414 75.1061C23.1021 75.0064 23.0627 74.9066 23.0222 74.8038C22.9824 74.6999 22.9426 74.596 22.9016 74.489C22.4567 73.4093 21.9358 72.5491 21.1211 71.6992C21.0198 71.5918 20.9184 71.4844 20.814 71.3737C19.8809 70.4665 18.7836 69.9513 17.6172 69.4141C16.4365 68.8618 16.4365 68.8618 16.0937 68.3477C16.0624 67.887 16.049 67.4402 16.0495 66.9793C16.0485 66.8393 16.0474 66.6993 16.0464 66.5551C16.0435 66.0913 16.0429 65.6276 16.0426 65.1639C16.0416 64.8419 16.0406 64.5199 16.0395 64.1979C16.0377 63.5225 16.0371 62.8471 16.0373 62.1716C16.0373 61.306 16.0332 60.4405 16.0279 59.5749C16.0245 58.9097 16.0239 58.2445 16.0241 57.5792C16.0237 57.2601 16.0224 56.941 16.02 56.6218C16.017 56.1754 16.0179 55.7292 16.0197 55.2828C16.018 55.1509 16.0163 55.019 16.0145 54.8832C16.0209 54.2745 16.0463 53.9528 16.3697 53.4227C16.8123 53.012 17.2999 52.8199 17.8552 52.6086C20.6002 51.4823 22.0388 49.692 23.1968 47.0195C23.2522 46.8844 23.3075 46.7493 23.3646 46.6101C23.5925 46.1963 23.7531 46.0273 24.168 45.8008C25.0339 45.6373 25.8805 45.6266 26.7598 45.6281ZM25.9961 48.8477C25.5939 49.6018 25.1917 50.3559 24.7773 51.1328C23.4011 53.0506 21.5779 54.7891 19.293 55.5508C19.293 59.1705 19.293 62.7902 19.293 66.5195C20.3487 67.1228 20.3487 67.1228 21.4258 67.7383C21.9116 68.0853 22.3522 68.4144 22.7969 68.8047C22.9108 68.9043 23.0247 69.0038 23.142 69.1064C24.1037 70.0043 24.742 71.0214 25.3867 72.1562C25.6884 72.6841 25.6884 72.6841 25.9961 73.2227C37.7098 73.2227 49.4235 73.2227 61.4922 73.2227C61.8441 72.5188 62.196 71.815 62.5586 71.0898C62.9558 70.5498 63.3334 70.0602 63.7773 69.5664C63.8958 69.4268 63.8958 69.4268 64.0166 69.2843C65.1047 68.0869 66.6558 67.3122 68.043 66.5195C68.043 62.8998 68.043 59.2802 68.043 55.5508C67.4397 55.2491 66.8364 54.9475 66.2148 54.6367C63.9506 53.1469 62.5382 51.2443 61.3398 48.8477C49.6764 48.8477 38.013 48.8477 25.9961 48.8477Z" fill="#3BDFAD"/>
<path d="M49.0631 53.4091C51.2342 55.1375 52.5777 57.2031 52.9609 59.9688C53.1777 62.4498 52.6321 64.9021 51.0489 66.8707C49.753 68.3839 48.289 69.3637 46.4102 70.0235C46.3031 70.0612 46.1961 70.0989 46.0858 70.1377C43.7635 70.7922 41.1674 70.3256 39.0804 69.2207C36.8533 67.8856 35.4305 65.9697 34.6505 63.5096C34.0805 61.224 34.3351 58.7121 35.4414 56.6172C36.8675 54.3591 38.8057 52.7003 41.4132 51.9904C44.0952 51.5466 46.7938 51.8247 49.0631 53.4091ZM38.8215 57.417C37.7964 58.818 37.42 60.4702 37.6694 62.1778C38.0327 63.8922 38.9117 65.2034 40.3545 66.1768C41.8268 67.0609 43.2775 67.3612 44.9831 67.0575C46.5782 66.6375 47.9137 65.7524 48.8477 64.3868C49.74 62.6421 50.0323 61.0625 49.4618 59.1714C48.7884 57.3655 47.5623 56.2026 45.8407 55.3848C43.2648 54.3482 40.5371 55.3809 38.8215 57.417Z" fill="#3BDFAD"/>
<path d="M61.854 58.9975C62.3978 59.4896 62.8004 59.8849 62.9216 60.6334C62.9636 61.5566 62.8232 62.1333 62.2539 62.8632C61.7406 63.3011 61.2433 63.5083 60.5686 63.5393C59.715 63.4444 59.1872 63.2028 58.6262 62.5586C58.1339 61.8834 58.073 61.4027 58.1406 60.5781C58.3476 59.9098 58.6362 59.3731 59.2261 58.9785C60.0936 58.5606 60.998 58.5854 61.854 58.9975ZM59.9973 60.6162C59.782 60.8728 59.782 60.8728 59.845 61.197C59.9588 61.5207 59.9588 61.5207 60.2734 61.7968C60.67 61.748 60.67 61.748 61.0352 61.6445C61.1384 61.2026 61.1384 61.2026 61.1875 60.7304C61.087 60.6299 60.9864 60.5293 60.8828 60.4257C60.3011 60.3681 60.3011 60.3681 59.9973 60.6162Z" fill="#3BDFAD"/>
<path d="M28.0242 58.931C28.6232 59.335 28.9666 59.7398 29.1953 60.4258C29.2916 61.24 29.2568 61.9371 28.7984 62.6336C28.2581 63.2178 27.6054 63.4387 26.834 63.5489C26.0625 63.4387 25.4099 63.2178 24.8696 62.6336C24.4136 61.9408 24.3337 61.2355 24.4727 60.4258C24.6831 59.792 25.0114 59.358 25.5676 58.9881C26.3838 58.5818 27.1823 58.6292 28.0242 58.931ZM26.3294 60.6163C26.1141 60.8729 26.1141 60.8729 26.177 61.1971C26.2908 61.5208 26.2908 61.5208 26.6055 61.7969C27.002 61.7481 27.002 61.7481 27.3672 61.6446C27.4705 61.2027 27.4705 61.2027 27.5195 60.7305C27.419 60.63 27.3184 60.5294 27.2149 60.4258C26.6332 60.3682 26.6332 60.3682 26.3294 60.6163Z" fill="#3BDFAD"/>
</g>
<defs>
<clipPath id="clip0_13_278">
<rect width="78" height="78" fill="white" transform="translate(10 10)"/>
</clipPath>
</defs>
</svg>
