<svg width="98" height="98" viewBox="0 0 98 98" fill="none" xmlns="http://www.w3.org/2000/svg">
<rect width="98" height="98" rx="20" fill="#B170FF" fill-opacity="0.1"/>
<g clip-path="url(#clip0_13_258)">
<path d="M31.664 44.657C31.8273 44.656 31.9907 44.6551 32.159 44.6541C32.7019 44.6517 33.2447 44.6536 33.7876 44.6555C34.1786 44.6547 34.5696 44.6536 34.9606 44.6522C35.9093 44.6495 36.8581 44.6501 37.8068 44.6519C38.5777 44.6533 39.3486 44.6535 40.1195 44.6528C40.2294 44.6527 40.3394 44.6526 40.4527 44.6525C40.6761 44.6523 40.8994 44.6521 41.1228 44.6519C43.2136 44.6502 45.3043 44.6522 47.395 44.6554C49.1889 44.6582 50.9829 44.6577 52.7768 44.6549C54.862 44.6516 56.9472 44.6503 59.0324 44.6522C59.2546 44.6524 59.4768 44.6526 59.699 44.6528C59.8083 44.6529 59.9176 44.653 60.0303 44.6531C60.8008 44.6536 61.5713 44.6527 62.3418 44.6513C63.3778 44.6494 64.4138 44.6507 65.4498 44.6543C65.8305 44.6551 66.2113 44.6548 66.5921 44.6535C67.1105 44.6518 67.6288 44.6539 68.1472 44.657C68.3749 44.6549 68.3749 44.6549 68.6072 44.6528C69.6231 44.6645 69.6231 44.6645 70.1166 45.0248C70.3448 45.3689 70.4107 45.5437 70.4043 45.9531C70.4067 46.1039 70.4067 46.1039 70.4091 46.2578C70.3281 46.5625 70.3281 46.5625 69.7188 47.1718C68.9144 47.1718 68.11 47.1718 67.2812 47.1718C67.2812 49.585 67.2812 51.9981 67.2812 54.4843C67.9348 54.4843 68.5884 54.4843 69.2617 54.4843C71.0632 54.9739 72.3824 55.9394 73.375 57.5312C74.1937 59.0112 74.2116 60.8185 73.8838 62.4496C73.3774 64.0085 72.3083 65.1955 70.9375 66.0625C69.7523 66.6315 68.6706 66.7597 67.3697 66.7492C67.1864 66.7502 67.0032 66.7511 66.8143 66.7521C66.3103 66.7541 65.8064 66.7534 65.3024 66.7515C64.7571 66.7501 64.2119 66.7522 63.6666 66.7539C62.6005 66.7566 61.5345 66.756 60.4684 66.7543C59.6022 66.7529 58.7361 66.7527 57.8699 66.7534C57.6847 66.7535 57.6847 66.7535 57.4957 66.7537C57.2448 66.7539 56.994 66.7541 56.7431 66.7543C54.3943 66.756 52.0455 66.754 49.6967 66.7507C47.6811 66.748 45.6654 66.7485 43.6498 66.7513C41.3075 66.7545 38.9652 66.7558 36.6229 66.754C36.3733 66.7538 36.1237 66.7536 35.8741 66.7534C35.7513 66.7533 35.6285 66.7532 35.502 66.7531C34.6363 66.7526 33.7705 66.7535 32.9047 66.7549C31.8506 66.7566 30.7966 66.7561 29.7425 66.7529C29.2046 66.7513 28.6668 66.7507 28.1289 66.7527C27.5464 66.7548 26.964 66.7523 26.3816 66.7492C26.1254 66.7513 26.1254 66.7513 25.8641 66.7533C25.6306 66.7509 25.6306 66.7509 25.3924 66.7485C25.258 66.7484 25.1235 66.7483 24.985 66.7482C24.5064 66.6467 24.3215 66.4352 24.0156 66.0625C23.9347 65.7578 23.9347 65.7578 23.9395 65.4531C23.9371 65.3023 23.9371 65.3023 23.9347 65.1484C24.0156 64.8437 24.0156 64.8437 24.625 64.2343C25.4294 64.2343 26.2338 64.2343 27.0625 64.2343C27.0625 61.8212 27.0625 59.4081 27.0625 56.9218C26.2581 56.9218 25.4538 56.9218 24.625 56.9218C24.0156 56.3125 24.0156 56.3125 23.9347 56.0078C23.9427 55.4983 23.9712 55.1725 24.2251 54.7224C24.8316 54.3613 25.4534 54.3585 26.1484 54.332C26.0952 54.2291 26.042 54.1262 25.9872 54.0202C25.9178 53.8843 25.8485 53.7484 25.7771 53.6084C25.7082 53.474 25.6392 53.3397 25.5682 53.2013C24.9559 51.8764 25.0162 49.9059 25.4724 48.5334C26.1094 47.0791 27.2131 45.8477 28.6585 45.1657C29.6854 44.7742 30.5697 44.647 31.664 44.657ZM28.7383 48.2382C27.8715 49.3395 27.6977 50.3576 27.8242 51.7421C28.1007 52.6617 28.6595 53.3942 29.4827 53.8988C30.591 54.4898 31.6507 54.5061 32.8837 54.4992C33.0145 54.4991 33.1454 54.4989 33.2802 54.4987C33.7658 54.498 34.2513 54.4958 34.7368 54.4939C36.3676 54.4891 36.3676 54.4891 38.0312 54.4843C38.0312 52.0712 38.0312 49.6581 38.0312 47.1718C36.9535 47.1655 35.8758 47.1593 34.7654 47.1528C34.4279 47.15 34.0904 47.1472 33.7428 47.1444C33.4713 47.1435 33.1998 47.1427 32.9283 47.1421C32.7906 47.1405 32.6529 47.139 32.511 47.1374C31.1281 47.137 29.8133 47.3014 28.7383 48.2382ZM40.4688 47.1718C40.4688 47.9762 40.4688 48.7806 40.4688 49.6093C48.5125 49.6093 56.5563 49.6093 64.8438 49.6093C64.8438 48.805 64.8438 48.0006 64.8438 47.1718C56.8 47.1718 48.7563 47.1718 40.4688 47.1718ZM40.4688 52.0468C40.4688 52.8512 40.4688 53.6556 40.4688 54.4843C48.5125 54.4843 56.5563 54.4843 64.8438 54.4843C64.8438 53.68 64.8438 52.8756 64.8438 52.0468C56.8 52.0468 48.7563 52.0468 40.4688 52.0468ZM29.5 56.9218C29.5 57.7262 29.5 58.5306 29.5 59.3593C39.1525 59.3593 48.805 59.3593 58.75 59.3593C58.75 58.555 58.75 57.7506 58.75 56.9218C49.0975 56.9218 39.445 56.9218 29.5 56.9218ZM61.1875 56.9218C61.1875 59.335 61.1875 61.7481 61.1875 64.2343C62.8041 64.2438 62.8041 64.2438 64.4534 64.2534C64.7908 64.2562 65.1283 64.2589 65.476 64.2618C65.7475 64.2627 66.0189 64.2634 66.2904 64.2641C66.497 64.2664 66.497 64.2664 66.7077 64.2688C67.9935 64.2692 69.1529 64.1613 70.1758 63.3203C70.9924 62.4978 71.4361 61.7967 71.4517 60.6066C71.4315 59.5109 71.1287 58.8538 70.4329 58.0263C69.1437 56.9471 67.9531 56.8978 66.3202 56.907C66.1241 56.9072 66.1241 56.9072 65.9241 56.9074C65.4402 56.9082 64.9563 56.9103 64.4724 56.9123C63.3884 56.9155 62.3044 56.9186 61.1875 56.9218ZM29.5 61.7968C29.5 62.6012 29.5 63.4056 29.5 64.2343C39.1525 64.2343 48.805 64.2343 58.75 64.2343C58.75 63.43 58.75 62.6256 58.75 61.7968C49.0975 61.7968 39.445 61.7968 29.5 61.7968Z" fill="#B170FF"/>
<path d="M19.9308 28.856C20.116 28.8559 20.116 28.8559 20.3049 28.8559C20.7112 28.8561 21.1176 28.8585 21.524 28.8608C21.8064 28.8614 22.0888 28.8619 22.3712 28.8622C23.1133 28.8633 23.8553 28.8663 24.5974 28.8697C25.3551 28.8728 26.1129 28.8742 26.8706 28.8757C28.3564 28.879 29.8423 28.8843 31.3281 28.8906C31.3281 29.695 31.3281 30.4994 31.3281 31.3281C30.9814 31.3311 30.6346 31.3341 30.2774 31.3373C29.1312 31.3475 27.985 31.3593 26.8388 31.3719C26.1439 31.3795 25.4491 31.3866 24.7542 31.3924C24.0835 31.398 23.4128 31.4051 22.7421 31.4131C22.4863 31.4159 22.2305 31.4182 21.9748 31.42C21.6162 31.4226 21.2578 31.427 20.8993 31.4319C20.741 31.4324 20.741 31.4324 20.5795 31.4329C19.9881 31.4431 19.5008 31.4775 18.9883 31.7851C18.5863 32.4954 18.6395 33.2344 18.6412 34.0265C18.6403 34.1765 18.6394 34.3264 18.6385 34.4809C18.6359 34.9838 18.6355 35.4867 18.635 35.9897C18.6336 36.35 18.6321 36.7103 18.6304 37.0706C18.6262 38.0495 18.6239 39.0283 18.6219 40.0071C18.6199 40.9262 18.6163 41.8454 18.6128 42.7645C18.6058 44.5848 18.6003 46.4052 18.5955 48.2255C18.5909 49.9937 18.5857 51.7618 18.5796 53.53C18.579 53.6935 18.579 53.6935 18.5785 53.8604C18.5766 54.4072 18.5747 54.9541 18.5728 55.501C18.557 60.0371 18.5434 64.5732 18.5313 69.1094C18.6712 69.1091 18.8112 69.1088 18.9554 69.1085C27.2498 69.0914 35.5443 69.0784 43.8387 69.0705C44.8345 69.0695 45.8303 69.0685 46.8261 69.0675C47.1234 69.0672 47.1234 69.0672 47.4268 69.0669C50.6373 69.0636 53.8478 69.0576 57.0583 69.0506C60.3523 69.0435 63.6462 69.0392 66.9401 69.0377C68.9729 69.0366 71.0056 69.0333 73.0384 69.0272C74.4321 69.0231 75.8257 69.0219 77.2194 69.0229C78.0237 69.0234 78.8279 69.0226 79.6321 69.0186C80.3687 69.0148 81.1053 69.0147 81.8419 69.0173C82.108 69.0176 82.3742 69.0166 82.6404 69.0142C84.2181 69.0009 85.5853 69.0376 86.8007 70.1742C87.7921 71.207 88.0863 72.2501 88.0732 73.6692C88.0276 74.9676 87.585 75.8383 86.6479 76.717C85.7509 77.4809 84.859 77.7091 83.7032 77.699C83.581 77.6997 83.4588 77.7005 83.3329 77.7013C82.9237 77.7032 82.5145 77.702 82.1053 77.7007C81.8089 77.7014 81.5124 77.7024 81.216 77.7035C80.4015 77.706 79.587 77.7056 78.7725 77.7048C77.8941 77.7044 77.0156 77.7066 76.1371 77.7085C74.4161 77.7117 72.6951 77.7124 70.9741 77.7121C69.5753 77.7119 68.1766 77.7125 66.7778 77.7136C66.3751 77.7139 65.9723 77.7143 65.5696 77.7146C65.3692 77.7147 65.1687 77.7149 64.9622 77.7151C62.2475 77.7172 59.5329 77.7183 56.8182 77.7176C56.7121 77.7176 56.6059 77.7176 56.4966 77.7175C55.9585 77.7174 55.4205 77.7173 54.8825 77.7171C54.7757 77.7171 54.6688 77.717 54.5587 77.717C54.3427 77.717 54.1266 77.7169 53.9105 77.7168C50.5486 77.7159 47.1868 77.7183 43.8249 77.7232C40.0473 77.7287 36.2696 77.7316 32.492 77.7309C30.492 77.7305 28.4921 77.7313 26.4921 77.7351C24.7894 77.7383 23.0868 77.7389 21.3841 77.736C20.5153 77.7346 19.6466 77.7344 18.7779 77.7376C17.9824 77.7404 17.187 77.7397 16.3915 77.7363C16.1039 77.7356 15.8164 77.7363 15.5288 77.7383C12.4622 77.7589 12.4622 77.7589 11.2001 76.5758C10.2072 75.5443 9.91373 74.4994 9.92681 73.0807C9.97236 71.7824 10.415 70.9117 11.3521 70.0329C12.3815 69.1564 13.3344 69.0442 14.637 69.0808C14.7775 69.0829 14.918 69.0849 15.0628 69.087C15.4065 69.0924 15.7501 69.0999 16.0938 69.1094C16.0932 68.9165 16.0926 68.7237 16.0921 68.5251C16.0788 63.9469 16.0688 59.3687 16.0626 54.7905C16.0619 54.2268 16.0611 53.6632 16.0603 53.0995C16.0601 52.9873 16.06 52.8751 16.0598 52.7595C16.0571 50.9432 16.0523 49.1269 16.0467 47.3107C16.041 45.4466 16.0377 43.5826 16.0364 41.7185C16.0356 40.5686 16.0329 39.4186 16.028 38.2687C16.0244 37.3865 16.024 36.5043 16.0248 35.6221C16.0247 35.2605 16.0234 34.8989 16.0211 34.5373C16.0181 34.0433 16.0188 33.5495 16.0205 33.0555C16.0187 32.9127 16.0169 32.7698 16.0151 32.6226C16.0249 31.5429 16.2852 30.7386 17.0025 29.9201C17.1016 29.838 17.2008 29.7559 17.303 29.6714C17.4018 29.5869 17.5005 29.5025 17.6023 29.4155C18.3523 28.8987 19.04 28.8476 19.9308 28.856ZM12.8279 72.3371C12.5179 72.895 12.4513 73.3686 12.5898 73.9844C13.0562 74.7251 13.4318 74.9885 14.2656 75.2031C14.6694 75.2309 15.0567 75.2444 15.46 75.2419C15.5781 75.2424 15.6961 75.2428 15.8177 75.2434C16.2137 75.2446 16.6097 75.2437 17.0057 75.2428C17.2922 75.2433 17.5788 75.2439 17.8654 75.2446C18.6533 75.2462 19.4412 75.2458 20.2292 75.2452C21.0788 75.2448 21.9284 75.2462 22.7779 75.2473C24.4425 75.2493 26.1071 75.2495 27.7716 75.2492C29.1243 75.2489 30.4769 75.2492 31.8296 75.2498C32.022 75.2499 32.2143 75.25 32.4125 75.2501C32.8033 75.2503 33.1941 75.2505 33.5848 75.2506C36.2093 75.2518 38.8338 75.2524 41.4582 75.2518C41.5609 75.2518 41.6635 75.2518 41.7693 75.2517C42.2895 75.2516 42.8097 75.2515 43.3299 75.2514C43.4332 75.2513 43.5365 75.2513 43.6429 75.2513C43.8519 75.2512 44.0608 75.2512 44.2697 75.2511C47.5211 75.2503 50.7725 75.2515 54.0239 75.2543C57.6765 75.2575 61.3292 75.2591 64.9818 75.2585C66.916 75.2582 68.8501 75.2586 70.7842 75.2607C72.4307 75.2626 74.0771 75.2628 75.7235 75.2609C76.5638 75.26 77.4041 75.2599 78.2444 75.2617C79.0133 75.2633 79.7823 75.2629 80.5512 75.2607C80.8297 75.2603 81.1081 75.2607 81.3865 75.2619C81.7647 75.2634 82.1427 75.2622 82.5208 75.2602C82.6292 75.2613 82.7376 75.2624 82.8492 75.2636C83.7737 75.2535 84.477 75.0366 85.1721 74.4128C85.4821 73.8549 85.5487 73.3813 85.4102 72.7656C84.9438 72.0249 84.5682 71.7614 83.7344 71.5469C83.3306 71.5191 82.9433 71.5056 82.54 71.5081C82.4219 71.5076 82.3039 71.5071 82.1823 71.5066C81.7863 71.5053 81.3903 71.5062 80.9943 71.5071C80.7078 71.5067 80.4212 71.5061 80.1346 71.5054C79.3467 71.5038 78.5588 71.5041 77.7708 71.5048C76.9212 71.5052 76.0717 71.5038 75.2221 71.5027C73.5575 71.5007 71.8929 71.5004 70.2284 71.5008C68.8757 71.5011 67.5231 71.5008 66.1704 71.5001C65.978 71.5001 65.7857 71.5 65.5875 71.4999C65.1967 71.4997 64.8059 71.4995 64.4152 71.4993C61.7907 71.4981 59.1662 71.4975 56.5418 71.4981C56.4391 71.4982 56.3365 71.4982 56.2307 71.4982C55.7105 71.4983 55.1903 71.4985 54.6701 71.4986C54.5668 71.4986 54.4635 71.4987 54.3571 71.4987C54.1481 71.4987 53.9392 71.4988 53.7303 71.4988C50.4789 71.4997 47.2275 71.4985 43.9761 71.4956C40.3235 71.4925 36.6708 71.4909 33.0182 71.4915C31.084 71.4918 29.1499 71.4914 27.2158 71.4892C25.5693 71.4874 23.9229 71.4872 22.2765 71.489C21.4362 71.4899 20.5959 71.4901 19.7556 71.4883C18.9867 71.4866 18.2177 71.4871 17.4488 71.4892C17.1703 71.4896 16.8919 71.4893 16.6135 71.488C16.2353 71.4865 15.8573 71.4878 15.4792 71.4898C15.3708 71.4887 15.2624 71.4875 15.1508 71.4864C14.2263 71.4964 13.523 71.7133 12.8279 72.3371Z" fill="#B170FF"/>
<path d="M52.3411 22.5554C52.4676 22.5945 52.5942 22.6337 52.7246 22.674C53.1385 22.8025 53.5513 22.9341 53.9643 23.0658C54.2548 23.1568 54.5454 23.2475 54.8361 23.3381C55.5988 23.5764 56.3608 23.8173 57.1225 24.0587C57.8934 24.3025 58.6651 24.5436 59.4367 24.785C60.9296 25.2528 62.4221 25.7217 63.912 26.1987C64.2095 26.2929 64.5081 26.3837 64.8067 26.4743C65.0506 26.55 65.0506 26.55 65.2994 26.6273C65.5023 26.6885 65.5023 26.6885 65.7094 26.751C66.1305 26.9408 66.3729 27.1703 66.6719 27.5195C66.7528 27.8242 66.7528 27.8242 66.7481 28.1289C66.7504 28.2797 66.7504 28.2797 66.7528 28.4336C66.6333 28.8833 66.4186 29.0482 66.0625 29.3476C65.6773 29.511 65.3108 29.6481 64.914 29.7737C64.804 29.81 64.694 29.8464 64.5806 29.8838C64.3492 29.9599 64.1174 30.0351 63.8854 30.1096C63.5294 30.2237 63.1743 30.3403 62.8192 30.4575C62.594 30.5312 62.3686 30.6048 62.1432 30.6782C62.0367 30.713 61.9303 30.7477 61.8205 30.7835C61.0712 31.0234 61.0712 31.0234 60.7305 31.0234C60.732 31.184 60.732 31.184 60.7335 31.3479C60.7427 32.3588 60.7497 33.3696 60.7542 34.3805C60.7565 34.9002 60.7598 35.4198 60.7649 35.9395C60.7709 36.5373 60.7731 37.1352 60.7751 37.7331C60.7775 37.9191 60.7798 38.1051 60.7823 38.2967C60.7823 38.5574 60.7823 38.5574 60.7824 38.8234C60.7839 39.0522 60.7839 39.0522 60.7854 39.2857C60.7202 39.7856 60.572 40.0652 60.2734 40.4687C57.4564 42.2716 53.4889 42.3865 50.2568 42.3635C50.0485 42.3628 50.0485 42.3628 49.8359 42.3621C42.0996 42.3241 42.0996 42.3241 39.8594 40.164C39.7005 39.6874 39.6886 39.3578 39.6897 38.858C39.6898 38.6842 39.6898 38.5103 39.6898 38.3313C39.6906 38.1437 39.6913 37.9561 39.6922 37.7628C39.6924 37.5707 39.6926 37.3786 39.6928 37.1807C39.6935 36.6705 39.6949 36.1604 39.6966 35.6502C39.6981 35.1294 39.6988 34.6086 39.6996 34.0878C39.7013 33.0663 39.7038 32.0449 39.707 31.0234C39.5926 30.9925 39.4782 30.9615 39.3603 30.9297C39.2098 30.8889 39.0594 30.8481 38.9044 30.806C38.6809 30.7455 38.6809 30.7455 38.4529 30.6837C37.6923 30.472 36.9501 30.2119 36.2031 29.957C36.2031 31.063 36.2031 32.169 36.2031 33.3086C36.6556 33.4594 36.6556 33.4594 37.1172 33.6132C37.8379 34.1436 38.4638 34.8524 38.6406 35.7461C38.7554 36.948 38.8185 38.1173 38.0313 39.0976C37.2993 39.8662 36.6355 40.4086 35.5527 40.5199C34.2553 40.5342 33.358 40.4866 32.3999 39.5743C31.4277 38.5225 31.2549 37.6958 31.2817 36.2709C31.3762 35.2024 31.7818 34.6346 32.5659 33.9274C32.861 33.683 33.1185 33.4798 33.4609 33.3086C33.4632 33.1572 33.4654 33.0059 33.4677 32.85C33.4766 32.2847 33.4883 31.7194 33.5009 31.1541C33.506 30.9102 33.5102 30.6663 33.5137 30.4223C33.5189 30.0702 33.5268 29.7182 33.5353 29.3661C33.5368 29.2044 33.5368 29.2044 33.5383 29.0394C33.5604 28.2778 33.646 27.7008 34.0703 27.0625C34.603 26.7734 35.1653 26.6194 35.7461 26.4531C36.087 26.3437 36.4278 26.2338 36.7685 26.1236C37.1467 26.0053 37.5249 25.8874 37.9033 25.7699C38.11 25.7054 38.3167 25.6409 38.5234 25.5764C39.0655 25.4072 39.6078 25.2385 40.15 25.0699C40.7946 24.8693 41.4389 24.6681 42.0833 24.467C42.6106 24.3025 43.138 24.1384 43.6657 23.9752C44.6588 23.668 45.6504 23.3575 46.6392 23.037C46.8179 22.9798 46.9967 22.9227 47.1808 22.8638C47.5112 22.7581 47.841 22.6507 48.1701 22.5413C48.3919 22.471 48.3919 22.471 48.6182 22.3992C48.7442 22.358 48.8703 22.3169 49.0001 22.2746C50.175 22.0506 51.2153 22.1901 52.3411 22.5554ZM48.9101 25.0349C48.769 25.0787 48.769 25.0787 48.6251 25.1234C48.3173 25.2196 48.0107 25.3188 47.7039 25.4182C47.4887 25.4862 47.2735 25.554 47.0581 25.6216C46.4933 25.7996 45.9293 25.9803 45.3655 26.1615C44.9058 26.3088 44.4455 26.4542 43.9851 26.5995C43.0323 26.9002 42.0799 27.2022 41.1286 27.5075C40.9603 27.5614 40.792 27.6153 40.6186 27.6708C40.2063 27.8099 39.8044 27.9626 39.4023 28.1289C39.8745 28.4436 40.2837 28.5985 40.8192 28.7831C40.9159 28.8165 41.0126 28.85 41.1122 28.8845C42.1242 29.2335 43.1392 29.5739 44.1543 29.9136C44.6347 30.0746 45.114 30.2383 45.5927 30.4044C46.1726 30.6056 46.754 30.802 47.3367 30.9951C47.5573 31.0691 47.7774 31.1447 47.9968 31.2221C49.4266 31.7241 50.4485 31.8714 51.8945 31.3281C52.112 31.2606 52.3296 31.1937 52.5475 31.1277C52.7466 31.0613 52.9456 30.9942 53.1442 30.9264C53.3083 30.8714 53.3083 30.8714 53.4757 30.8152C53.8249 30.698 54.1737 30.5798 54.5225 30.4616C54.7648 30.3801 55.0071 30.2986 55.2495 30.2172C55.7321 30.055 56.2146 29.8925 56.6969 29.7297C57.647 29.4093 58.5984 29.0928 59.5498 28.7763C59.8426 28.6788 60.1354 28.5812 60.4282 28.4835C60.6305 28.4161 60.8328 28.3487 61.0352 28.2812C60.9047 27.9352 60.9047 27.9352 60.4957 27.8252C60.3234 27.7722 60.151 27.7193 59.9734 27.6647C59.8785 27.6351 59.7837 27.6056 59.6859 27.5752C59.3707 27.4775 59.055 27.3815 58.7393 27.2856C58.52 27.2182 58.3008 27.1507 58.0816 27.0831C57.621 26.9414 57.1602 26.8005 56.6992 26.6601C56.1102 26.4808 55.5217 26.2998 54.9335 26.1182C54.4801 25.9784 54.0266 25.8394 53.5729 25.7006C53.356 25.6342 53.1392 25.5676 52.9224 25.5007C52.6179 25.4069 52.3131 25.3142 52.0081 25.2218C51.835 25.1689 51.6619 25.1161 51.4836 25.0616C50.5297 24.8114 49.8582 24.7336 48.9101 25.0349ZM42.2969 31.9375C42.2969 34.1495 42.2969 36.3615 42.2969 38.6406C47.6027 40.0369 52.8661 40.3988 58.1406 38.6406C58.1406 36.4286 58.1406 34.2165 58.1406 31.9375C57.1252 32.2144 56.1425 32.4903 55.155 32.839C54.9175 32.921 54.68 33.0028 54.4424 33.0845C54.0767 33.2108 53.7113 33.3378 53.3465 33.4667C52.9884 33.5929 52.6294 33.716 52.27 33.8388C52.1632 33.8773 52.0564 33.9159 51.9463 33.9556C50.4772 34.4505 49.2524 34.2303 47.8193 33.7227C47.6701 33.672 47.5208 33.6213 47.367 33.569C46.8949 33.4082 46.424 33.2442 45.9531 33.08C45.4777 32.9165 45.002 32.7536 44.5262 32.591C44.2313 32.49 43.9366 32.3883 43.6422 32.2859C43.5099 32.2401 43.3776 32.1944 43.2413 32.1472C43.1248 32.1066 43.0083 32.066 42.8882 32.0242C42.6029 31.9227 42.6029 31.9227 42.2969 31.9375ZM34.1655 35.9936C33.8438 36.4639 33.8247 36.7101 33.918 37.2695C34.1465 37.6503 34.1465 37.6503 34.5273 37.8789C35.0867 37.9721 35.333 37.9531 35.8032 37.6313C36.125 37.161 36.144 36.9148 36.0508 36.3554C35.8223 35.9746 35.8223 35.9746 35.4414 35.7461C34.882 35.6528 34.6358 35.6719 34.1655 35.9936Z" fill="#B170FF"/>
<path d="M80.9868 20.2892C81.4463 20.3933 81.6031 20.6091 81.9062 20.9688C82.0783 21.3541 82.2251 21.7235 82.3615 22.1209C82.4021 22.2345 82.4426 22.3482 82.4844 22.4653C82.6139 22.8292 82.7409 23.1939 82.8679 23.5586C82.9514 23.7943 83.035 24.03 83.1187 24.2656C83.2436 24.6167 83.3676 24.9681 83.4886 25.3206C83.6997 25.9342 83.9189 26.5406 84.1658 27.1407C84.9589 29.1216 85.1042 30.8835 85.0839 33.0011C85.0846 33.3403 85.0857 33.6795 85.0873 34.0186C85.0902 34.9298 85.0865 35.8408 85.0813 36.7519C85.0769 37.7092 85.0781 38.6665 85.0785 39.6237C85.0783 41.2285 85.0741 42.8332 85.067 44.438C85.0598 46.0861 85.0566 47.7343 85.0577 49.3825C85.0589 51.3763 85.0572 53.3702 85.0525 55.3641C85.0507 56.1234 85.05 56.8826 85.0501 57.6419C85.0501 58.5347 85.047 59.4275 85.0416 60.3204C85.04 60.6476 85.0395 60.9748 85.0401 61.302C85.0408 61.7491 85.0376 62.196 85.0336 62.6431C85.0346 62.7721 85.0357 62.901 85.0367 63.0338C85.0208 64.0667 84.7289 64.8613 84.0444 65.6424C83.9452 65.7245 83.8461 65.8066 83.7439 65.8911C83.6451 65.9756 83.5463 66.06 83.4446 66.147C82.5736 66.7471 81.737 66.7277 80.7161 66.729C80.5699 66.7328 80.4236 66.7365 80.273 66.7403C79.1261 66.745 78.3206 66.5249 77.4514 65.7632C77.3693 65.664 77.2872 65.5649 77.2026 65.4627C77.1182 65.3639 77.0337 65.2651 76.9467 65.1633C76.4 64.3698 76.3747 63.6546 76.3699 62.7217C76.368 62.5844 76.3661 62.4472 76.3642 62.3058C76.3583 61.8455 76.3546 61.3853 76.351 60.925C76.3474 60.5948 76.3436 60.2646 76.3398 59.9345C76.3278 58.8474 76.3194 57.7603 76.3118 56.6732C76.3105 56.4873 76.3092 56.3014 76.3078 56.1099C76.2959 54.3507 76.2856 52.5914 76.2784 50.8321C76.2768 50.4245 76.2751 50.017 76.2734 49.6094C76.2729 49.5081 76.2725 49.4069 76.2721 49.3025C76.2645 47.5767 76.2464 45.8512 76.2254 44.1255C76.2069 42.5467 76.1976 40.968 76.1945 39.3891C76.1924 38.4505 76.1867 37.5123 76.1709 36.5738C76.0934 31.7226 76.6483 27.7558 78.5672 23.2827C78.7075 22.9481 78.8395 22.6113 78.9689 22.2723C79.0301 22.113 79.0301 22.113 79.0925 21.9504C79.2018 21.6644 79.31 21.378 79.4182 21.0915C79.7736 20.3428 80.2087 20.3222 80.9868 20.2892ZM80.5351 25.6914C80.3312 26.2434 80.1284 26.7957 79.9258 27.3482C79.8676 27.5055 79.8095 27.6628 79.7496 27.8248C79.6946 27.9751 79.6397 28.1253 79.583 28.2801C79.5319 28.4189 79.4809 28.5577 79.4283 28.7007C79.3006 29.0313 79.3006 29.0313 79.3164 29.3477C80.2213 29.3477 81.1262 29.3477 82.0586 29.3477C81.7019 28.1087 81.2813 26.9023 80.8398 25.6914C80.7393 25.6914 80.6387 25.6914 80.5351 25.6914ZM78.8594 31.9375C78.8594 40.0818 78.8594 48.2261 78.8594 56.6172C80.0659 56.6172 81.2725 56.6172 82.5156 56.6172C82.5156 48.4729 82.5156 40.3286 82.5156 31.9375C81.3091 31.9375 80.1025 31.9375 78.8594 31.9375ZM78.8594 59.0547C78.847 59.6959 78.838 60.3368 78.8308 60.9781C78.827 61.1593 78.8231 61.3406 78.8192 61.5273C78.7898 62.7983 78.7898 62.7983 79.3164 63.9297C79.9212 64.3099 80.6007 64.3216 81.2969 64.2344C81.9769 63.997 81.9769 63.997 82.3864 63.4381C82.5322 62.9615 82.5503 62.5728 82.5454 62.0748C82.5444 61.8986 82.5434 61.7223 82.5424 61.5407C82.5398 61.3582 82.5373 61.1756 82.5347 60.9876C82.5333 60.8021 82.5319 60.6166 82.5305 60.4255C82.5269 59.9686 82.5214 59.5116 82.5156 59.0547C81.3091 59.0547 80.1025 59.0547 78.8594 59.0547Z" fill="#B170FF"/>
<path d="M68.957 28.8906C70.7166 28.8906 72.4762 28.8906 74.2891 28.8906C74.1885 29.695 74.088 30.4994 73.9844 31.3281C71.7221 31.3281 69.4598 31.3281 67.1289 31.3281C67.3803 31.0768 67.6316 30.8254 67.8906 30.5664C68.3748 30.011 68.6144 29.5759 68.957 28.8906Z" fill="#B170FF"/>
</g>
<defs>
<clipPath id="clip0_13_258">
<rect width="78" height="78" fill="white" transform="translate(10 10)"/>
</clipPath>
</defs>
</svg>
