<svg width="98" height="98" viewBox="0 0 98 98" fill="none" xmlns="http://www.w3.org/2000/svg">
<rect width="98" height="98" rx="20" fill="#3BDFAD" fill-opacity="0.2"/>
<g clip-path="url(#clip0_13_249)">
<path d="M54.9414 11.6758C55.4864 12.1002 55.9793 12.5562 56.4649 13.0469C56.5599 13.1369 56.655 13.2268 56.7529 13.3195C58.5579 15.1652 59.2868 17.8033 59.2714 20.3159C59.1819 23.2665 57.9711 25.8076 55.8365 27.8433C53.7008 29.653 51.086 30.5666 48.28 30.3754C45.2246 30.0301 42.6581 28.7151 40.7193 26.3133C39.0408 23.9294 38.4005 21.0798 38.887 18.2076C39.4259 15.5648 40.8628 13.2322 43.0977 11.702C46.733 9.34348 51.293 9.29358 54.9414 11.6758ZM49.1524 13.6563C49.5104 15.0884 50.5595 16.1432 51.7744 16.918C52.7888 17.4811 53.7962 17.6493 54.9414 17.7696C54.4742 16.2041 53.4406 15.2213 52.0469 14.418C51.09 13.9352 50.2191 13.7251 49.1524 13.6563ZM44.5386 15.3732C43.2039 16.7201 42.5518 18.3287 42.5254 20.2166C42.5549 22.1569 43.3364 23.7 44.7154 25.0589C46.1252 26.2073 47.8108 26.6727 49.6094 26.6055C51.5526 26.3567 53.1046 25.374 54.3321 23.8633C54.7904 23.1283 55.1005 22.4337 55.2461 21.5782C54.8151 21.3627 54.4018 21.3617 53.9226 21.3116C51.1845 20.9702 48.7636 19.8088 47.0196 17.6172C46.442 16.7441 45.9574 15.8138 45.4961 14.8751C45.0633 14.8751 44.8541 15.0978 44.5386 15.3732Z" fill="#3BDFAD"/>
<path d="M40.9258 49.3047C41.0692 49.4264 41.0692 49.4264 41.2156 49.5505C43.0134 51.1934 43.9978 53.7087 44.1506 56.1043C44.1745 59.1508 43.2744 61.9002 41.1448 64.1106C39.0536 66.1809 36.3947 67.0242 33.5052 67.0242C30.8294 66.9839 28.5583 65.9736 26.6316 64.1225C24.5505 61.9516 23.6279 59.4393 23.647 56.4541C23.7239 53.6966 24.7994 51.3922 26.7578 49.4571C26.8625 49.3491 26.9671 49.241 27.075 49.1298C28.4025 47.8441 30.1359 47.0712 31.9375 46.7149C32.0422 46.6933 32.1468 46.6717 32.2547 46.6494C35.4575 46.1473 38.5248 47.2043 40.9258 49.3047ZM33.918 50.3711C34.6213 52.0223 35.8029 53.3058 37.4552 54.0214C38.2302 54.3107 38.883 54.377 39.707 54.3321C39.3222 52.9461 38.2406 51.9154 37.0351 51.1709C36.0309 50.6609 35.0495 50.3275 33.918 50.3711ZM29.2102 52.3332C27.9101 53.6478 27.3723 55.2459 27.3672 57.0743C27.4788 58.7657 28.2295 60.4979 29.5 61.6446C30.9815 62.8235 32.5773 63.404 34.4738 63.2977C35.9977 63.0966 37.6917 62.3441 38.7233 61.1792C39.4563 60.2006 39.8956 59.3293 40.1641 58.1407C39.9983 58.1257 39.8326 58.1108 39.6618 58.0954C37.0903 57.8429 34.9598 57.1463 33.0039 55.3985C32.9034 55.3985 32.8028 55.3985 32.6992 55.3985C32.6646 55.3168 32.6301 55.2351 32.5945 55.1509C32.3835 54.7692 32.1228 54.4645 31.8405 54.1339C31.2182 53.3582 30.7785 52.5107 30.4141 51.5899C29.8897 51.5899 29.5853 51.9948 29.2102 52.3332Z" fill="#3BDFAD"/>
<path d="M71.2785 49.3493C73.1845 51.2175 74.2774 53.6908 74.3337 56.3478C74.3555 59.3697 73.5591 61.845 71.435 64.0558C69.264 66.1369 66.7518 67.0595 63.7666 67.0405C61.0091 66.9636 58.7046 65.888 56.7695 63.9297C56.6615 63.825 56.5535 63.7203 56.4422 63.6125C54.5714 61.6808 53.8777 59.0977 53.875 56.4648C54.0373 53.7618 55.0982 51.1879 57.0742 49.3047C61.3321 45.7485 67.0544 45.6664 71.2785 49.3493ZM64.2344 50.3711C64.6765 51.8866 65.6764 52.8744 67.017 53.6613C67.9972 54.164 68.9314 54.3851 70.0234 54.4843C69.7027 53.2014 68.8086 52.1827 67.7383 51.4375C66.6533 50.7965 65.5213 50.2906 64.2344 50.3711ZM59.626 52.1611C58.4438 53.368 57.6964 54.9504 57.636 56.6457C57.6856 58.6592 58.3947 60.3046 59.8545 61.7016C61.1611 62.7824 62.7481 63.3626 64.445 63.3018C66.223 63.1123 67.9244 62.4163 69.1094 61.0351C69.7321 60.1301 70.2591 59.2229 70.4805 58.1406C70.3622 58.1367 70.244 58.1327 70.1222 58.1287C67.283 57.9796 64.5749 56.9893 62.6142 54.881C61.7752 53.8955 61.1411 52.7491 60.5781 51.5898C60.1142 51.5898 59.9558 51.8448 59.626 52.1611Z" fill="#3BDFAD"/>
<path d="M33.3556 70.2885C33.9268 70.2901 34.498 70.2885 35.0692 70.2866C39.3808 70.2838 43.0339 70.7773 46.4102 73.6798C46.5501 73.7894 46.5501 73.7894 46.6928 73.9012C49.6343 76.2436 51.4189 80.2342 52.8276 83.6107C52.9387 83.8726 52.9387 83.8726 53.052 84.1399C53.4249 85.0584 53.6921 85.7878 53.5703 86.7813C53.2633 87.353 53.044 87.64 52.5039 88.0001C52.1582 88.0566 52.1582 88.0566 51.7708 88.0667C51.6441 88.0728 51.5174 88.0789 51.3869 88.0852C50.8183 87.9661 50.4588 87.6494 50.0664 87.2384C49.791 86.7479 49.791 86.7479 49.5642 86.194C49.5222 86.0942 49.4803 85.9944 49.4371 85.8917C49.3481 85.6795 49.2601 85.4669 49.173 85.2539C48.9456 84.699 48.7089 84.148 48.4722 83.597C48.4027 83.4349 48.4027 83.4349 48.3318 83.2696C46.9665 80.1096 44.8908 76.4585 41.5576 75.0871C40.2867 74.6081 39.0592 74.2749 37.6945 74.2622C37.5103 74.2602 37.3261 74.2583 37.1363 74.2563C36.9387 74.2551 36.7411 74.254 36.5376 74.2529C36.3846 74.2519 36.3846 74.2519 36.2285 74.251C35.6873 74.2478 35.1462 74.2456 34.605 74.2442C34.1624 74.2428 33.7198 74.2397 33.2772 74.2348C29.5962 74.1952 26.3194 74.2629 23.4652 76.9392C22.5581 77.8385 21.8234 78.863 21.1211 79.9259C21.0184 80.081 20.9157 80.2362 20.8099 80.396C19.8567 81.9564 19.1939 83.6644 18.4908 85.3472C17.504 87.6801 17.504 87.6801 16.8555 88.0001C16.2875 88.1017 15.749 88.0913 15.1797 88.0001C14.6524 87.6127 14.3645 87.2257 14.1133 86.629C14.1343 85.4363 14.5345 84.4746 15.0083 83.3917C15.0831 83.2185 15.1579 83.0454 15.235 82.867C17.2993 78.1586 20.1191 73.2655 25.1427 71.2691C25.3725 71.1852 25.603 71.1032 25.8342 71.0233C25.9864 70.9696 25.9864 70.9696 26.1416 70.9148C28.4621 70.1766 30.9518 70.2803 33.3556 70.2885Z" fill="#3BDFAD"/>
<path d="M61.8796 70.3025C62.1463 70.3018 62.1463 70.3018 62.4184 70.301C62.7927 70.3002 63.1669 70.2999 63.5411 70.2999C64.1064 70.2996 64.6716 70.2968 65.2368 70.2939C70.0659 70.282 70.0659 70.282 72.1658 71.0232C72.2791 71.0625 72.3925 71.1019 72.5092 71.1424C74.6119 71.9115 76.2322 73.1686 77.793 74.7461C77.9129 74.8627 78.0329 74.9794 78.1566 75.0996C80.6303 77.6488 83.7181 82.7109 83.9236 86.3343C83.8533 86.8953 83.6105 87.2419 83.2773 87.6953C82.6255 88.1299 82.0608 88.0723 81.2969 88C80.7996 87.8453 80.6149 87.6836 80.3594 87.233C79.91 86.32 79.4988 85.3969 79.1069 84.458C77.3524 80.3247 75.2709 76.5605 70.9702 74.7526C69.5845 74.3031 68.2443 74.2404 66.7944 74.2379C66.5873 74.2369 66.3801 74.2359 66.173 74.2348C65.7404 74.233 65.3079 74.2324 64.8754 74.2326C64.4369 74.2326 63.9986 74.2305 63.5601 74.2264C60.5824 74.1985 58.0945 74.31 55.3734 75.6268C54.7388 75.8996 54.403 75.9533 53.7226 75.8125C53.1525 75.5158 52.7547 75.1819 52.5402 74.5646C52.4529 74.0099 52.4888 73.5865 52.6277 73.0417C53.8004 71.534 56.4652 70.7576 58.293 70.4805C59.489 70.3394 60.6761 70.3038 61.8796 70.3025Z" fill="#3BDFAD"/>
<path d="M48.4668 33.5851C48.9487 33.5848 49.4307 33.582 49.9126 33.5791C54.1273 33.5671 58.0085 33.9686 61.3399 36.8125C61.4522 36.9047 61.5645 36.9968 61.6803 37.0916C62.6019 37.8719 63.3434 38.7551 64.0821 39.7071C64.2058 39.8535 64.2058 39.8535 64.332 40.0028C64.872 40.6716 65.05 41.2987 64.9961 42.1446C64.7723 42.7807 64.5277 43.1911 63.9297 43.5157C63.2958 43.7174 62.7571 43.6997 62.1349 43.4472C61.4951 43 61.0708 42.337 60.6234 41.7072C60.2946 41.2337 60.2946 41.2337 59.9235 40.8824C59.6641 40.6211 59.6641 40.6211 59.6641 40.3165C59.5318 40.2564 59.5318 40.2564 59.3969 40.1951C59.0375 40.0025 58.7648 39.7808 58.4549 39.5167C55.8221 37.4551 52.7781 37.4991 49.596 37.5147C49.0014 37.5171 48.4069 37.5147 47.8122 37.5118C44.299 37.4817 44.299 37.4817 41.0115 38.6026C40.9102 38.655 40.809 38.7075 40.7047 38.7615C40.0077 39.135 39.4116 39.5632 38.8513 40.126C38.6407 40.3165 38.6407 40.3165 38.336 40.3165C38.2957 40.4052 38.2555 40.494 38.214 40.5854C38.024 40.9394 37.8145 41.1994 37.5457 41.4971C37.4518 41.6018 37.3579 41.7065 37.2612 41.8143C37.1145 41.9778 37.1145 41.9778 36.9649 42.1446C36.6842 42.4709 36.4038 42.7976 36.124 43.1247C35.8524 43.4121 35.6847 43.5064 35.2909 43.5466C34.559 43.5614 34.0354 43.5655 33.461 43.0586C33.0602 42.4367 32.8769 41.9643 33.0039 41.2305C34.3152 38.2428 37.3247 35.8345 40.2629 34.5982C42.9532 33.5974 45.6313 33.5849 48.4668 33.5851Z" fill="#3BDFAD"/>
</g>
<defs>
<clipPath id="clip0_13_249">
<rect width="78" height="78" fill="white" transform="translate(10 10)"/>
</clipPath>
</defs>
</svg>
