<svg width="167" height="54" viewBox="0 0 167 54" fill="none" xmlns="http://www.w3.org/2000/svg">
<rect width="167" height="54" rx="5" fill="#3BDFAD"/>
<path d="M19.88 44.336C17.544 44.336 15.432 43.936 13.544 43.136C11.688 42.336 10.216 41.184 9.128 39.68C8.04 38.176 7.48 36.4 7.448 34.352H14.648C14.744 35.728 15.224 36.816 16.088 37.616C16.984 38.416 18.2 38.816 19.736 38.816C21.304 38.816 22.536 38.448 23.432 37.712C24.328 36.944 24.776 35.952 24.776 34.736C24.776 33.744 24.472 32.928 23.864 32.288C23.256 31.648 22.488 31.152 21.56 30.8C20.664 30.416 19.416 30 17.816 29.552C15.64 28.912 13.864 28.288 12.488 27.68C11.144 27.04 9.976 26.096 8.984 24.848C8.024 23.568 7.544 21.872 7.544 19.76C7.544 17.776 8.04 16.048 9.032 14.576C10.024 13.104 11.416 11.984 13.208 11.216C15 10.416 17.048 10.016 19.352 10.016C22.808 10.016 25.608 10.864 27.752 12.56C29.928 14.224 31.128 16.56 31.352 19.568H23.96C23.896 18.416 23.4 17.472 22.472 16.736C21.576 15.968 20.376 15.584 18.872 15.584C17.56 15.584 16.504 15.92 15.704 16.592C14.936 17.264 14.552 18.24 14.552 19.52C14.552 20.416 14.84 21.168 15.416 21.776C16.024 22.352 16.76 22.832 17.624 23.216C18.52 23.568 19.768 23.984 21.368 24.464C23.544 25.104 25.32 25.744 26.696 26.384C28.072 27.024 29.256 27.984 30.248 29.264C31.24 30.544 31.736 32.224 31.736 34.304C31.736 36.096 31.272 37.76 30.344 39.296C29.416 40.832 28.056 42.064 26.264 42.992C24.472 43.888 22.344 44.336 19.88 44.336ZM44.282 10.496V44H37.562V10.496H44.282ZM70.4574 10.496V34.016C70.4574 37.28 69.5134 39.824 67.6254 41.648C65.7374 43.44 63.2094 44.336 60.0414 44.336C56.8414 44.336 54.2494 43.408 52.2654 41.552C50.3134 39.696 49.3374 37.104 49.3374 33.776H56.0574C56.0894 35.216 56.4254 36.336 57.0654 37.136C57.7374 37.936 58.6974 38.336 59.9454 38.336C61.1614 38.336 62.0894 37.952 62.7294 37.184C63.3694 36.416 63.6894 35.36 63.6894 34.016V10.496H70.4574ZM93.8484 44.336C90.7124 44.336 87.8324 43.6 85.2084 42.128C82.5844 40.656 80.5044 38.624 78.9684 36.032C77.4324 33.408 76.6644 30.448 76.6644 27.152C76.6644 23.888 77.4324 20.96 78.9684 18.368C80.5044 15.744 82.5844 13.696 85.2084 12.224C87.8324 10.752 90.7124 10.016 93.8484 10.016C97.0164 10.016 99.8964 10.752 102.488 12.224C105.112 13.696 107.176 15.744 108.68 18.368C110.216 20.96 110.984 23.888 110.984 27.152C110.984 30.448 110.216 33.408 108.68 36.032C107.176 38.624 105.112 40.656 102.488 42.128C99.8644 43.6 96.9844 44.336 93.8484 44.336ZM93.8484 38.336C95.8644 38.336 97.6404 37.888 99.1764 36.992C100.712 36.064 101.912 34.752 102.776 33.056C103.64 31.36 104.072 29.392 104.072 27.152C104.072 24.912 103.64 22.96 102.776 21.296C101.912 19.6 100.712 18.304 99.1764 17.408C97.6404 16.512 95.8644 16.064 93.8484 16.064C91.8324 16.064 90.0404 16.512 88.4724 17.408C86.9364 18.304 85.7364 19.6 84.8724 21.296C84.0084 22.96 83.5764 24.912 83.5764 27.152C83.5764 29.392 84.0084 31.36 84.8724 33.056C85.7364 34.752 86.9364 36.064 88.4724 36.992C90.0404 37.888 91.8324 38.336 93.8484 38.336ZM160.768 10.496L151.408 44H143.488L137.2 20.144L130.624 44L122.752 44.048L113.728 10.496H120.928L126.832 36.512L133.648 10.496H141.136L147.568 36.368L153.52 10.496H160.768Z" fill="white"/>
</svg>
